SplineFontDB: 3.0
FontName: Tuffy-BoldItalic
FullName: Tuffy Bold Italic
FamilyName: Tuffy
Weight: Bold
Copyright: Copyright (c) 2011, Thatcher Ulrich (http://tulrich.com), Karoly Barta, Michael Everson (http://www.evertype.com), with Reserved Font Name "Tuffy"\n
FontLog: "2011-08-30: Prepared v001.271 as a web font+AAoA-2010-08-20: Merged accented and extended characters from Karoly Barta and Michael Everson.+AAoA-2004-9-1: Created.+AAoA" 
Version: 001.271
ItalicAngle: -12
UnderlinePosition: -204
UnderlineWidth: 102
Ascent: 1597
Descent: 451
LayerCount: 2
Layer: 0 1 "Back"  1
Layer: 1 1 "Fore"  0
NeedsXUIDChange: 1
XUID: [1021 745 1046372284 8541740]
FSType: 0
OS2Version: 0
OS2_WeightWidthSlopeOnly: 0
OS2_UseTypoMetrics: 0
CreationTime: 1166531129
ModificationTime: 1314725601
PfmFamily: 33
TTFWeight: 700
TTFWidth: 5
LineGap: 0
VLineGap: 0
Panose: 2 11 8 3 6 1 0 0 0 0
OS2TypoAscent: 2340
OS2TypoAOffset: 0
OS2TypoDescent: -697
OS2TypoDOffset: 0
OS2TypoLinegap: 0
OS2WinAscent: 2340
OS2WinAOffset: 0
OS2WinDescent: 697
OS2WinDOffset: 0
HheadAscent: 2340
HheadAOffset: 0
HheadDescent: -697
HheadDOffset: 0
OS2Vendor: 'PfEd'
Lookup: 258 0 0 "'kern' Horizontal Kerning in Latin lookup 0"  {"'kern' Horizontal Kerning in Latin lookup 0 subtable"  } ['kern' ('latn' <'dflt' > ) ]
MarkAttachClasses: 1
DEI: 91125
TtTable: prep
PUSHW_1
 511
SCANCTRL
PUSHB_1
 4
SCANTYPE
EndTTInstrs
LangName: 1033 "" "" "" "" "" "" "" "" "" "Thatcher Ulrich, Karoly Barta, Michael Everson" "" "http://tulrich.com+AAoA" "http://tulrich.com+AAoA" "This Font Software is licensed under the SIL Open Font License, Version 1.1. This license is available with a FAQ at: http://scripts.sil.org/OFL+AAoA" "http://scripts.sil.org/OFL" 
GaspTable: 1 65535 15
Encoding: UnicodeBmp
Compacted: 1
UnicodeInterp: none
NameList: Adobe Glyph List
DisplaySize: -48
AntiAlias: 1
FitToEm: 1
WinInfo: 285 15 10
BeginPrivate: 0
EndPrivate
GridOrder2: 1
Grid
1362 0 m 25,0,0
1362 1074 m 25,0,0
1362 0 m 25,0,0
1362 1074 m 25,0,0

StartChar: exclam
Encoding: 33 33 1
Width: 457
Flags: HW
HStem: -33 328<176.75 345.647> 1463 20G<520.5 571>
VStem: 97 572
LayerCount: 2
Fore
SplineSet
93 97 m 0,0,1
 93 184.230769231 93 184.230769231 160.5 239.615384615 c 128,-1,2
 228 295 228 295 291.5 295 c 128,-1,3
 355 295 355 295 392 258.5 c 128,-1,4
 429 222 429 222 429 166 c 0,5,6
 429 77.7692307692 429 77.7692307692 361.5 22.3846153846 c 128,-1,7
 294 -33 294 -33 231 -33 c 128,-1,8
 168 -33 168 -33 130.5 4 c 128,-1,9
 93 41 93 41 93 97 c 0,0,1
226 435 m 1,10,-1
 387 1389 l 1,11,12
 395 1426 395 1426 449 1454.5 c 128,-1,13
 503 1483 503 1483 544.5 1483 c 128,-1,14
 586 1483 586 1483 627.5 1457.5 c 128,-1,15
 669 1432 669 1432 669 1400 c 0,16,17
 669 1394 669 1394 668 1391 c 2,18,-1
 426 440 l 2,19,20
 421 417 421 417 381 399 c 128,-1,21
 341 381 341 381 314.5 381 c 128,-1,22
 288 381 288 381 257 397.5 c 128,-1,23
 226 414 226 414 226 435 c 1,10,-1
EndSplineSet
EndChar

StartChar: quotedbl
Encoding: 34 34 2
Width: 874
Flags: HW
HStem: 1044 498<459.927 570.324 834.143 945.324>
VStem: 382 667
LayerCount: 2
Back
SplineSet
442.368 1091.58 m 2,0,-1
 421.886 1466.37 l 1,1,2
 421.888842231 1501.45023431 421.888842231 1501.45023431 443.40305797 1521.85011715 c 0
 464.917273708 1542.25 464.917273708 1542.25 493.697 1542.25 c 0,3,4
 495.847625 1542.25 495.847625 1542.25 497.664 1542.14 c 0,5,6
 523.150260778 1542.14 523.150260778 1542.14 543.40918993 1527.53736715 c 0
 563.668119082 1512.9347343 563.668119082 1512.9347343 569.437 1485.79 c 0,7,8
 571.39 1476.61565593 571.39 1476.61565593 571.39 1466.37 c 2,9,-1
 550.912 1091.58 l 2,10,11
 549.468953145 1069.93429718 549.468953145 1069.93429718 532.634151431 1057.20714859 c 0
 515.799349716 1044.48 515.799349716 1044.48 495.616 1044.48 c 0,12,13
 486.989164688 1044.48 486.989164688 1044.48 478.789699053 1046.81318325 c 0
 470.590233418 1049.14636651 470.590233418 1049.14636651 463.366472822 1053.7066605 c 0
 456.142712226 1058.26695449 456.142712226 1058.26695449 450.854417803 1065.86537075 c 0
 445.566123379 1073.46378702 445.566123379 1073.46378702 443.505 1083.16 c 0,14,15
 442.642192707 1087.20773792 442.642192707 1087.20773792 442.368 1091.58 c 2,0,-1
149.504 1091.58 m 2,16,-1
 129.021 1466.37 l 1,17,18
 129.024552801 1501.45035573 129.024552801 1501.45035573 150.539102983 1521.85017787 c 0
 172.053653164 1542.25 172.053653164 1542.25 200.834 1542.25 c 0,19,20
 202.985 1542.25 202.985 1542.25 204.8 1542.14 c 0,21,22
 230.285760778 1542.14 230.285760778 1542.14 250.54481637 1527.53727601 c 0
 270.803871962 1512.93455203 270.803871962 1512.93455203 276.572 1485.79 c 0,23,24
 278.526 1476.61816327 278.526 1476.61816327 278.526 1466.37 c 2,25,-1
 258.048 1091.58 l 2,26,27
 256.604953145 1069.93429718 256.604953145 1069.93429718 239.770151431 1057.20714859 c 0
 222.935349716 1044.48 222.935349716 1044.48 202.752 1044.48 c 0,28,29
 191.055270965 1044.48 191.055270965 1044.48 180.566736528 1048.41366912 c 0
 170.07820209 1052.34733825 170.07820209 1052.34733825 161.719930139 1061.35299754 c 0
 153.361658188 1070.35865684 153.361658188 1070.35865684 150.64 1083.16 c 0,30,31
 149.77587962 1087.22106044 149.77587962 1087.22106044 149.504 1091.58 c 2,16,-1
EndSplineSet
Fore
SplineSet
382 1092 m 2,0,-1
 441 1466 l 1,1,2
 448 1500 448 1500 492 1521 c 128,-1,3
 536 1542 536 1542 570 1542 c 2,4,-1
 574 1542 l 2,5,6
 605 1542 605 1542 639.5 1527 c 128,-1,7
 674 1512 674 1512 674 1486 c 0,8,9
 674 1483 674 1483 672 1466 c 1,10,-1
 572 1092 l 2,11,12
 566 1071 566 1071 528.5 1057.5 c 128,-1,13
 491 1044 491 1044 466.5 1044 c 128,-1,14
 442 1044 442 1044 411.484375 1054.3359375 c 128,-1,15
 380.96875 1064.671875 380.96875 1064.671875 380.96875 1081.88232422 c 0,16,17
 380.96875 1088.90625 380.96875 1088.90625 382 1092 c 2,0,-1
756 1092 m 1,18,-1
 816 1466 l 1,19,20
 823 1500 823 1500 867 1521 c 128,-1,21
 911 1542 911 1542 945 1542 c 2,22,-1
 949 1542 l 2,23,24
 979 1542 979 1542 1014 1526.5 c 128,-1,25
 1049 1511 1049 1511 1049 1486 c 0,26,27
 1049 1483 1049 1483 1047 1466 c 1,28,-1
 947 1092 l 2,29,30
 941 1071 941 1071 903 1057.5 c 128,-1,31
 865 1044 865 1044 840.5 1044 c 128,-1,32
 816 1044 816 1044 785.5 1054.5 c 128,-1,33
 755 1065 755 1065 755 1083 c 1,34,35
 756 1084 756 1084 756 1087 c 2,36,-1
 756 1092 l 1,18,-1
EndSplineSet
EndChar

StartChar: numbersign
Encoding: 35 35 3
Width: 1565
Flags: HMW
LayerCount: 2
Back
SplineSet
958.464 546.816 m 1,0,-1
 958.464 884.736 l 1,1,-1
 616.448 884.736 l 1,2,-1
 616.448 546.816 l 1,3,-1
 958.464 546.816 l 1,0,-1
1107.97 405.504 m 1,4,-1
 1107.97 53.248 l 1,5,-1
 958.464 53.248 l 1,6,-1
 958.464 405.504 l 1,7,-1
 616.448 405.504 l 1,8,-1
 616.448 53.248 l 1,9,-1
 466.944 53.248 l 1,10,-1
 466.944 405.504 l 1,11,-1
 118.784 405.504 l 1,12,-1
 118.784 546.816 l 1,13,-1
 466.944 546.816 l 1,14,-1
 466.944 884.736 l 1,15,-1
 118.784 884.736 l 1,16,-1
 118.784 1024 l 1,17,-1
 466.944 1024 l 1,18,-1
 466.944 1402.88 l 1,19,-1
 616.448 1402.88 l 1,20,-1
 616.448 1024 l 1,21,-1
 958.464 1024 l 1,22,-1
 958.464 1402.88 l 1,23,-1
 1107.97 1402.88 l 1,24,-1
 1107.97 1024 l 1,25,-1
 1468.42 1024 l 1,26,-1
 1468.42 884.736 l 1,27,-1
 1107.97 884.736 l 1,28,-1
 1107.97 546.816 l 1,29,-1
 1468.42 546.816 l 1,30,-1
 1468.42 405.504 l 1,31,-1
 1107.97 405.504 l 1,4,-1
EndSplineSet
Fore
SplineSet
1003 596 m 1,0,-1
 1054 836 l 1,1,-1
 869 836 l 1,2,-1
 818 596 l 1,3,-1
 1003 596 l 1,0,-1
1206 356 m 1,4,-1
 1140 47 l 1,5,-1
 886 47 l 1,6,-1
 952 356 l 1,7,-1
 767 356 l 1,8,-1
 701 47 l 1,9,-1
 447 47 l 1,10,-1
 513 356 l 1,11,-1
 195 356 l 1,12,-1
 246 596 l 1,13,-1
 564 596 l 1,14,-1
 615 836 l 1,15,-1
 297 836 l 1,16,-1
 347 1073 l 1,17,-1
 665 1073 l 1,18,-1
 735 1403 l 1,19,-1
 989 1403 l 1,20,-1
 919 1073 l 1,21,-1
 1104 1073 l 1,22,-1
 1174 1403 l 1,23,-1
 1428 1403 l 1,24,-1
 1358 1073 l 1,25,-1
 1669 1073 l 1,26,-1
 1619 836 l 1,27,-1
 1308 836 l 1,28,-1
 1257 596 l 1,29,-1
 1568 596 l 1,30,-1
 1517 356 l 1,31,-1
 1206 356 l 1,4,-1
EndSplineSet
EndChar

StartChar: dollar
Encoding: 36 36 4
Width: 927
Flags: HW
HStem: -26 251<417.914 428 648 749.664> 1073 21G<922.5 1003.78>
VStem: 256 279<914.142 1106.59> 828 281<298.874 534.421>
LayerCount: 2
Back
SplineSet
18.4316 343.497 m 1,0,-1
 266.127 426.394 l 1,1,2
 283.22629026 390.079762136 283.22629026 390.079762136 294.02742105 368.844797476 c 0
 304.828551841 347.609832817 304.828551841 347.609832817 320.325917142 321.673132553 c 0
 335.823282443 295.736432289 335.823282443 295.736432289 349.140633878 281.584296019 c 0
 362.457985314 267.432159748 362.457985314 267.432159748 381.296651836 252.174765206 c 0
 400.135318358 236.917370663 400.135318358 236.917370663 421.131654287 229.690418468 c 0
 442.127990215 222.463466272 442.127990215 222.463466272 469.470721807 217.727733136 c 0
 496.813453398 212.992 496.813453398 212.992 530.432 212.992 c 0,3,4
 642.082133333 212.992 642.082133333 212.992 691.729066667 258.47010687 c 0
 741.376 303.94821374 741.376 303.94821374 741.376 393.216 c 0,5,6
 741.376 414.610759491 741.376 414.610759491 737.101383458 434.056464042 c 0
 732.826766916 453.502168594 732.826766916 453.502168594 724.177038417 471.135047676 c 0
 715.527309918 488.767926759 715.527309918 488.767926759 702.696352208 504.63917498 c 0
 689.865394497 520.5104232 689.865394497 520.5104232 672.500163417 534.831516426 c 0
 655.134932337 549.152609653 655.134932337 549.152609653 633.698695958 561.894479667 c 0
 612.262459579 574.636349682 612.262459579 574.636349682 586.132788417 586.090735176 c 0
 560.003117255 597.545120671 560.003117255 597.545120671 529.912664708 607.602690605 c 0
 499.822212161 617.660260539 499.822212161 617.660260539 464.896 626.688 c 0,7,8
 420.183939499 638.383714797 420.183939499 638.383714797 382.173362281 650.808192911 c 0
 344.162785063 663.232671024 344.162785063 663.232671024 299.880678244 682.566839159 c 0
 255.598571425 701.901007295 255.598571425 701.901007295 220.477552368 723.913242473 c 0
 185.356533312 745.925477651 185.356533312 745.925477651 151.511127223 777.109206506 c 0
 117.665721135 808.292935361 117.665721135 808.292935361 95.1018380827 844.083201657 c 0
 72.53795503 879.873467952 72.53795503 879.873467952 58.796827515 927.097031579 c 0
 45.0557 974.320595206 45.0557 974.320595206 45.0557 1028.1 c 0,9,10
 45.0557 1078.38133712 45.0557 1078.38133712 54.9702256818 1122.79948167 c 0
 64.8847513635 1167.21762622 64.8847513635 1167.21762622 83.4341911151 1202.93481521 c 0
 101.983630867 1238.65200419 101.983630867 1238.65200419 127.853378026 1268.71057542 c 0
 153.723125184 1298.76914665 153.723125184 1298.76914665 186.33163799 1321.29419021 c 0
 218.940150796 1343.81923376 218.940150796 1343.81923376 256.228214744 1360.82604417 c 0
 293.516278693 1377.83285457 293.516278693 1377.83285457 335.646959865 1388.47356521 c 0
 377.777641037 1399.11427584 377.777641037 1399.11427584 421.947117088 1404.37713792 c 0
 466.116593139 1409.64 466.116593139 1409.64 513.186 1409.64 c 0,11,12
 685.077141086 1409.64 685.077141086 1409.64 793.267422849 1348.00650119 c 0
 901.457704612 1286.37300239 901.457704612 1286.37300239 968.09 1151.04 c 1,13,-1
 705.098 1073.14 l 1,14,15
 683.171146533 1112.49642029 683.171146533 1112.49642029 660.141355243 1132.45993841 c 0
 637.111563952 1152.42345652 637.111563952 1152.42345652 602.75197809 1160.91672826 c 0
 568.392392229 1169.41 568.392392229 1169.41 509.952 1169.41 c 0,16,17
 472.546503156 1169.41 472.546503156 1169.41 447.424804894 1167.10776092 c 0
 422.303106633 1164.80552183 422.303106633 1164.80552183 395.976139106 1156.55743908 c 0
 369.649171578 1148.30935633 369.649171578 1148.30935633 354.359620894 1133.35736092 c 0
 339.070070211 1118.4053655 339.070070211 1118.4053655 329.279035106 1092.00543908 c 0
 319.488 1065.60551267 319.488 1065.60551267 319.488 1028.1 c 0,18,19
 319.488 1008.98209123 319.488 1008.98209123 324.412475754 991.669949735 c 0
 329.336951508 974.357808242 329.336951508 974.357808242 336.709386246 960.670863265 c 0
 344.081820983 946.983918288 344.081820983 946.983918288 357.315523754 934.013951735 c 0
 370.549226525 921.043985183 370.549226525 921.043985183 382.355714246 911.733135265 c 0
 394.162201967 902.422285347 394.162201967 902.422285347 413.087547754 892.664777735 c 0
 432.012893542 882.907270123 432.012893542 882.907270123 445.635850246 876.842799265 c 0
 459.25880695 870.778328407 459.25880695 870.778328407 481.258211754 863.103563735 c 0
 503.257616559 855.428799063 503.257616559 855.428799063 516.079458246 851.480991265 c 0
 528.901299933 847.533183467 528.901299933 847.533183467 551.357179754 840.811445735 c 0
 573.813059575 834.089708004 573.813059575 834.089708004 583.537 831.054 c 0,20,21
 636.831950804 813.046481383 636.831950804 813.046481383 673.526590652 799.194714683 c 0
 710.221230501 785.342947982 710.221230501 785.342947982 759.276485149 762.413967533 c 0
 808.331739797 739.484987084 808.331739797 739.484987084 841.49741281 716.794563079 c 0
 874.663085823 694.104139075 874.663085823 694.104139075 910.305179027 660.453396104 c 0
 945.947272231 626.802653134 945.947272231 626.802653134 967.116841381 589.33766512 c 0
 988.286410532 551.872677106 988.286410532 551.872677106 1002.04820527 501.564264909 c 0
 1015.81 451.255852713 1015.81 451.255852713 1015.81 393.216 c 0,22,23
 1015.81 261.107589103 1015.81 261.107589103 952.657497583 164.604922276 c 0
 889.504995166 68.1022554483 889.504995166 68.1022554483 780.635169083 19.7151777242 c 0
 671.765343 -28.6719 671.765343 -28.6719 530.432 -28.6719 c 0,24,25
 428.035307279 -28.6719 428.035307279 -28.6719 347.750411994 -4.9470971411 c 0
 267.46551671 18.7777057178 267.46551671 18.7777057178 206.425531756 67.5234971411 c 0
 145.385546802 116.269288564 145.385546802 116.269288564 100.582249494 183.110490359 c 0
 55.7789521869 249.951692153 55.7789521869 249.951692153 18.4316 343.497 c 1,0,-1
EndSplineSet
Fore
SplineSet
759 1537 m 1,0,-1
 929 1537 l 1,1,-1
 900 1404 l 1,2,3
 1141 1385 1141 1385 1217 1155 c 1,4,-1
 935 1073 l 1,5,6
 914 1118 914 1118 900 1133.5 c 128,-1,7
 886 1149 886 1149 848 1159 c 1,8,-1
 777 823 l 1,9,10
 969.386046512 752.120930233 969.386046512 752.120930233 1039.5 672.5 c 0,11,12
 1109 593.576271186 1109 593.576271186 1109 480 c 0,13,14
 1109 438 1109 438 1098 385 c 0,15,16
 1063 220 1063 220 928.5 106.5 c 128,-1,17
 794 -7 794 -7 596 -26 c 1,18,-1
 569 -155 l 1,19,-1
 401 -155 l 1,20,-1
 428 -26 l 1,21,22
 212.257161892 -9.40439706862 212.257161892 -9.40439706862 123 221.5 c 0,23,24
 100 281 100 281 93 344 c 1,25,-1
 357 426 l 1,26,27
 384.6 315.6 384.6 315.6 402.8 288.3 c 0,28,29
 440.147540984 232.278688525 440.147540984 232.278688525 482 225 c 1,30,-1
 570 639 l 1,31,32
 256 713 256 713 256 956 c 0,33,34
 256 1168.37226277 256 1168.37226277 434 1297 c 0,35,36
 571 1396 571 1396 731 1405 c 1,37,-1
 759 1537 l 1,0,-1
622 885 m 1,38,-1
 682 1167 l 1,39,40
 621 1160 621 1160 585 1120 c 0,41,42
 535 1064.44444444 535 1064.44444444 535 1009.22222222 c 128,-1,43
 535 954 535 954 556 929 c 128,-1,44
 577 904 577 904 622 885 c 1,38,-1
725 578 m 1,45,-1
 648 217 l 1,46,47
 793 248 793 248 823 387 c 1,48,49
 828 415 828 415 828 429 c 0,50,51
 828 531 828 531 725 578 c 1,45,-1
EndSplineSet
EndChar

StartChar: percent
Encoding: 37 37 5
Width: 1435
Flags: HW
HStem: 63 207<1020.6 1166.36> 479 205<1049.47 1187.92> 768 207<538.888 685.495> 1184 205<568.509 706.575>
VStem: 316 218<981.028 1148.04> 714 224<1002.73 1177.07> 796 220<276.09 443.922> 1196 221<298.456 472.612>
LayerCount: 2
Back
SplineSet
880.64 372.736 m 0,0,1
 880.64 347.09129895 880.64 347.09129895 887.00767498 323.776044369 c 0
 893.375349961 300.460789787 893.375349961 300.460789787 905.68069302 281.465299631 c 0
 917.986036078 262.469809475 917.986036078 262.469809475 934.97994698 248.475180369 c 0
 951.973857882 234.480551262 951.973857882 234.480551262 974.29608502 226.808275631 c 0
 996.618312157 219.136 996.618312157 219.136 1021.95 219.136 c 0,2,3
 1083.02700472 219.136 1083.02700472 219.136 1126.21850236 262.73681767 c 0
 1169.41 306.337635341 1169.41 306.337635341 1169.41 372.736 c 0,4,5
 1169.41 433.559561223 1169.41 433.559561223 1126.72614486 477.899780612 c 0
 1084.04228972 522.24 1084.04228972 522.24 1021.95 522.24 c 0,6,7
 1002.83777118 522.24 1002.83777118 522.24 984.495391933 516.68304896 c 0
 966.153012684 511.12609792 966.153012684 511.12609792 950.6921914 501.258284373 c 0
 935.231370116 491.390470826 935.231370116 491.390470826 922.146077118 477.410752664 c 0
 909.06078412 463.431034501 909.06078412 463.431034501 899.94782103 447.024210299 c 0
 890.83485794 430.617386097 890.83485794 430.617386097 885.73742897 411.514456367 c 0
 880.64 392.411526638 880.64 392.411526638 880.64 372.736 c 0,0,1
751.616 372.736 m 0,8,9
 751.616 446.352424373 751.616 446.352424373 787.82126717 508.55877276 c 0
 824.02653434 570.765121147 824.02653434 570.765121147 886.760066163 606.918560573 c 0
 949.493597986 643.072 949.493597986 643.072 1024 643.072 c 0,10,11
 1137.70018325 643.072 1137.70018325 643.072 1218.06509162 563.949449649 c 0
 1298.43 484.826899298 1298.43 484.826899298 1298.43 372.736 c 0,12,13
 1298.43 345.059791032 1298.43 345.059791032 1292.82957694 318.309413645 c 0
 1287.22915387 291.559036258 1287.22915387 291.559036258 1276.88645822 267.718586355 c 0
 1266.54376257 243.878136452 1266.54376257 243.878136452 1251.5336785 222.173413645 c 0
 1236.52359443 200.468690839 1236.52359443 200.468690839 1218.07067697 182.502586355 c 0
 1199.61775951 164.536481871 1199.61775951 164.536481871 1177.40606131 149.941413645 c 0
 1155.19436311 135.346345419 1155.19436311 135.346345419 1130.83927072 125.318586355 c 0
 1106.48417833 115.29082729 1106.48417833 115.29082729 1079.27891287 109.869413645 c 0
 1052.07364742 104.448 1052.07364742 104.448 1024 104.448 c 0,14,15
 910.295365079 104.448 910.295365079 104.448 830.95568254 182.548 c 0
 751.616 260.648 751.616 260.648 751.616 372.736 c 0,8,9
221.184 1077.25 m 0,16,17
 221.184 1034.36517172 221.184 1034.36517172 238.870576342 999.455626263 c 0
 256.557152684 964.546080808 256.557152684 964.546080808 289.513423658 944.097040404 c 0
 322.469694632 923.648 322.469694632 923.648 364.544 923.648 c 0,18,19
 425.621880695 923.648 425.621880695 923.648 468.810940347 967.248785714 c 0
 512 1010.84957143 512 1010.84957143 512 1077.25 c 0,20,21
 512 1138.07206311 512 1138.07206311 469.317394423 1182.41103155 c 0
 426.634788847 1226.75 426.634788847 1226.75 364.544 1226.75 c 0,22,23
 306.386519783 1226.75 306.386519783 1226.75 263.785259891 1182.06166667 c 0
 221.184 1137.37333333 221.184 1137.37333333 221.184 1077.25 c 0,16,17
94.208 1077.25 m 0,24,25
 94.208 1189.53244792 94.208 1189.53244792 173.647137744 1268.55622396 c 0
 253.086275488 1347.58 253.086275488 1347.58 366.592 1347.58 c 0,26,27
 422.429944927 1347.58 422.429944927 1347.58 473.242324155 1326.19863047 c 0
 524.054703382 1304.81726094 524.054703382 1304.81726094 560.805675845 1268.64324453 c 0
 597.556648309 1232.46922811 597.556648309 1232.46922811 619.290324155 1182.39363047 c 0
 641.024 1132.31803283 641.024 1132.31803283 641.024 1077.25 c 0,28,29
 641.024 965.352902062 641.024 965.352902062 560.759274516 887.156451031 c 0
 480.494549032 808.96 480.494549032 808.96 366.592 808.96 c 0,30,31
 252.887209205 808.96 252.887209205 808.96 173.547604603 887.060326823 c 0
 94.208 965.160653646 94.208 965.160653646 94.208 1077.25 c 0,24,25
413.696 137.216 m 1,32,-1
 264.192 137.216 l 1,33,-1
 985.088 1318.91 l 1,34,-1
 1128.45 1318.91 l 1,35,-1
 413.696 137.216 l 1,32,-1
EndSplineSet
Fore
SplineSet
1177.5 456 m 128,-1,1
 1159 479 1159 479 1126 479 c 128,-1,2
 1093 479 1093 479 1054.5 441.092307692 c 128,-1,3
 1016 403.184615385 1016 403.184615385 1016 356.092307692 c 0,4,5
 1016 270 1016 270 1085 270 c 0,6,7
 1123 270 1123 270 1153 296.5 c 0,8,9
 1196 334.483333333 1196 334.483333333 1196 383.741666667 c 128,-1,0
 1196 433 1196 433 1177.5 456 c 128,-1,1
804 370 m 0,10,11
 832 501 832 501 939.5 592.5 c 128,-1,12
 1047 684 1047 684 1164 684 c 128,-1,13
 1281 684 1281 684 1349 614.5 c 128,-1,14
 1417 545 1417 545 1417 438 c 0,15,16
 1417 271.333333333 1417 271.333333333 1275 153 c 0,17,18
 1167 63 1167 63 1049.5 63 c 128,-1,19
 932 63 932 63 864 131 c 128,-1,20
 796 199 796 199 796 304 c 0,21,22
 796 333 796 333 804 370 c 0,10,11
696 1160.5 m 128,-1,24
 678 1184 678 1184 645 1184 c 128,-1,25
 612 1184 612 1184 573 1145 c 128,-1,26
 534 1106 534 1106 534 1059.5 c 0,27,28
 534 975 534 975 604 975 c 0,29,30
 642 975 642 975 671.5 1001 c 0,31,32
 714 1038.45762712 714 1038.45762712 714 1087.72881356 c 128,-1,23
 714 1137 714 1137 696 1160.5 c 128,-1,24
316 1009 m 0,33,34
 316 1176.20930233 316 1176.20930233 458.5 1297.5 c 0,35,36
 566 1389 566 1389 683.5 1389 c 128,-1,37
 801 1389 801 1389 869.5 1319 c 128,-1,38
 938 1249 938 1249 938 1142 c 0,39,40
 938 1112 938 1112 930 1075 c 0,41,42
 903 947 903 947 795 857.5 c 128,-1,43
 687 768 687 768 569 768 c 128,-1,44
 451 768 451 768 383.5 836 c 128,-1,45
 316 904 316 904 316 1009 c 0,33,34
510 119 m 1,46,-1
 300 119 l 1,47,-1
 1230 1337 l 1,48,-1
 1431 1337 l 1,49,-1
 510 119 l 1,46,-1
EndSplineSet
EndChar

StartChar: ampersand
Encoding: 38 38 6
Width: 1284
Flags: HW
HStem: -53 241<464.644 755.591> 358 217<720 848 1091.89 1261> 707 239<639.315 877> 1278 242<687.275 919.176>
VStem: 133 272<254.793 509.398> 336 272<976.693 1197.66>
LayerCount: 2
Back
SplineSet
751.616 1228.8 m 17,0,1
 743.358119691 1252.07294127 743.358119691 1252.07294127 721.163050199 1274.69554229 c 0
 698.967980707 1297.31814332 698.967980707 1297.31814332 670.036949801 1314.13805146 c 0
 641.105918896 1330.95795959 641.105918896 1330.95795959 606.667050199 1341.31897979 c 0
 572.228181502 1351.68 572.228181502 1351.68 540.672 1351.68 c 0,2,3
 513.17939197 1351.68 513.17939197 1351.68 486.563450308 1345.74173738 c 0
 459.947508646 1339.80347476 459.947508646 1339.80347476 435.121883025 1328.26409596 c 0
 410.296257404 1316.72471715 410.296257404 1316.72471715 389.340339197 1298.33470034 c 0
 368.38442099 1279.94468353 368.38442099 1279.94468353 352.746771914 1256.50817003 c 0
 337.109122839 1233.07165653 337.109122839 1233.07165653 328.298561419 1201.77432997 c 0
 319.488 1170.47700341 319.488 1170.47700341 319.488 1134.59 c 0,4,5
 319.488 1022.09763095 319.488 1022.09763095 386.835761342 959.560815476 c 0
 454.183522683 897.024 454.183522683 897.024 557.056 897.024 c 2,6,-1
 727.04 897.024 l 1,7,-1
 727.04 755.712 l 1,8,-1
 561.152 755.712 l 2,9,10
 526.394117647 755.712 526.394117647 755.712 493.753294118 749.921663751 c 0
 461.112470588 744.131327502 461.112470588 744.131327502 431.954705882 733.086336249 c 0
 402.796941176 722.041344995 402.796941176 722.041344995 376.881294118 705.569663751 c 0
 350.965647059 689.097982507 350.965647059 689.097982507 329.458705882 668.190336249 c 0
 307.951764706 647.28268999 307.951764706 647.28268999 290.825294118 621.281663751 c 0
 273.698823529 595.280637512 273.698823529 595.280637512 261.906705882 565.662336249 c 0
 250.114588235 536.044034985 250.114588235 536.044034985 243.841294118 501.665663751 c 0
 237.568 467.287292517 237.568 467.287292517 237.568 430.08 c 0,11,12
 237.568 294.054053918 237.568 294.054053918 333.925932115 200.12239271 c 1
 427.069958445 111.525405638 427.069958445 111.525405638 550.912 110.592 c 0,13,14
 600.594310779 110.592 600.594310779 110.592 645.386992847 126.834229843 c 0
 690.179674916 143.076459686 690.179674916 143.076459686 724.020495153 171.567562157 c 0
 757.861315389 200.058664627 757.861315389 200.058664627 782.815984847 237.458997843 c 0
 807.770654305 274.859331059 807.770654305 274.859331059 820.653327153 318.564810157 c 0
 833.536 362.270289254 833.536 362.270289254 833.536 407.552 c 1,15,-1
 618.496 407.552 l 1,16,-1
 618.496 546.816 l 1,17,-1
 1140.74 546.816 l 1,18,-1
 1140.74 405.504 l 1,19,-1
 983.04 405.504 l 1,20,21
 983.04 350.815051128 983.04 350.815051128 968.441626707 293.157000291 c 0
 953.843253414 235.498949454 953.843253414 235.498949454 920.125669293 176.883712509 c 0
 886.408085172 118.268475564 886.408085172 118.268475564 837.959450707 72.562987491 c 0
 789.510816242 26.8574994179 789.510816242 26.8574994179 714.932453293 -1.93110029103 c 0
 640.354090344 -30.7197 640.354090344 -30.7197 550.912 -30.7197 c 0,22,23
 479.702193917 -30.7197 479.702193917 -30.7197 411.53270454 -12.3359726903 c 0
 343.363215162 6.04775461943 343.363215162 6.04775461943 283.31278106 43.5971078903 c 0
 223.262346958 81.1464611611 223.262346958 81.1464611611 177.89691894 133.51423211 c 0
 132.531490921 185.882003058 132.531490921 185.882003058 106.20179546 258.75163269 c 0
 79.8721 331.621262322 79.8721 331.621262322 79.8721 415.744 c 0,24,25
 79.8721 496.210826808 79.8721 496.210826808 98.2555213652 563.604870407 c 0
 116.63894273 630.998914007 116.63894273 630.998914007 144.948729035 675.107449593 c 0
 173.258515339 719.215985179 173.258515339 719.215985179 211.075690965 752.348550407 c 0
 248.892866591 785.481115636 248.892866591 785.481115636 283.819458635 802.411129593 c 0
 318.746050678 819.34114355 318.746050678 819.34114355 354.304 827.392 c 1,26,27
 331.664607954 834.762964852 331.664607954 834.762964852 309.403734869 848.027028868 c 0
 287.142861785 861.291092883 287.142861785 861.291092883 265.316265131 880.484887799 c 0
 243.489668476 899.678682715 243.489668476 899.678682715 224.961660795 925.850788127 c 0
 206.433653115 952.022893538 206.433653115 952.022893538 192.195079945 982.884369281 c 0
 177.956506776 1013.74584502 177.956506776 1013.74584502 169.874253388 1052.82588072 c 0
 161.792 1091.90591642 161.792 1091.90591642 161.792 1134.59 c 0,28,29
 161.792 1195.19583491 161.792 1195.19583491 180.200009143 1250.35132936 c 0
 198.608018286 1305.50682382 198.608018286 1305.50682382 232.938934857 1349.37587064 c 0
 267.269851429 1393.24491746 267.269851429 1393.24491746 313.795145143 1425.66012936 c 0
 360.320438857 1458.07534127 360.320438857 1458.07534127 419.126710857 1475.53267064 c 0
 477.932982857 1492.99 477.932982857 1492.99 542.72 1492.99 c 0,30,31
 665.14057596 1492.99 665.14057596 1492.99 750.224157769 1440.84276405 c 0
 835.307739578 1388.69552809 835.307739578 1388.69552809 876.544 1304.58 c 1,32,-1
 751.616 1228.8 l 17,0,1
EndSplineSet
Fore
SplineSet
959 1167 m 17,0,1
 947 1209 947 1209 909.5 1243.5 c 128,-1,2
 872 1278 872 1278 809 1278 c 128,-1,3
 746 1278 746 1278 687.5 1236.5 c 0,4,5
 608 1180.1025641 608 1180.1025641 608 1075 c 0,6,7
 608 1013 608 1013 649.5 979.5 c 128,-1,8
 691 946 691 946 758 946 c 2,9,-1
 928 946 l 1,10,-1
 877 707 l 1,11,-1
 711 707 l 2,12,13
 605 707 605 707 520.5 627 c 128,-1,14
 436 547 436 547 411 428 c 0,15,16
 405 400 405 400 405 373 c 0,17,18
 405 292 405 292 455 240 c 128,-1,19
 505 188 505 188 603.5 188 c 128,-1,20
 702 188 702 188 767.5 237.5 c 128,-1,21
 833 287 833 287 848 358 c 1,22,-1
 674 358 l 1,23,-1
 720 575 l 1,24,-1
 1306 575 l 1,25,-1
 1261 360 l 1,26,-1
 1103 360 l 1,27,28
 1079.17241379 249.526645768 1079.17241379 249.526645768 985.5 144.5 c 0,29,30
 809.351351351 -53 809.351351351 -53 540 -53 c 0,31,32
 364 -53 364 -53 248.5 46.5 c 128,-1,33
 133 146 133 146 133 303 c 0,34,35
 133 346 133 346 142 391 c 0,36,37
 212 720 212 720 474 828 c 1,38,39
 423 851 423 851 379.5 909 c 128,-1,40
 336 967 336 967 336 1052 c 0,41,42
 336 1081 336 1081 344 1118 c 0,43,44
 382 1298 382 1298 531.5 1409 c 128,-1,45
 681 1520 681 1520 866 1520 c 0,46,47
 1005 1520 1005 1520 1087.5 1452 c 128,-1,48
 1170 1384 1170 1384 1193 1274 c 1,49,-1
 959 1167 l 17,0,1
EndSplineSet
EndChar

StartChar: quotesingle
Encoding: 39 39 7
Width: 464
Flags: HW
HStem: 1044 498<459.927 570.324>
VStem: 382 292
LayerCount: 2
Back
SplineSet
118.784 1050.62 m 1,0,-1
 118.784 1548.29 l 1,1,-1
 268.288 1548.29 l 1,2,-1
 268.288 1050.62 l 1,3,-1
 118.784 1050.62 l 1,0,-1
EndSplineSet
Fore
SplineSet
382 1092 m 2,0,-1
 441 1466 l 1,1,2
 448 1500 448 1500 492 1521 c 128,-1,3
 536 1542 536 1542 570 1542 c 2,4,-1
 574 1542 l 2,5,6
 605 1542 605 1542 639.5 1527 c 128,-1,7
 674 1512 674 1512 674 1486 c 0,8,9
 674 1483 674 1483 672 1466 c 1,10,-1
 572 1092 l 2,11,12
 566 1071 566 1071 528.5 1057.5 c 128,-1,13
 491 1044 491 1044 466.5 1044 c 0,14,15
 442 1044 442 1044 411.484375 1054.3359375 c 0,16,17
 380.96875 1064.671875 380.96875 1064.671875 380.96875 1081.88232422 c 0,18,19
 380.96875 1088.90625 380.96875 1088.90625 382 1092 c 2,0,-1
EndSplineSet
EndChar

StartChar: parenleft
Encoding: 40 40 8
Width: 653
Flags: HW
VStem: 147 269<122.393 752.874>
LayerCount: 2
Back
SplineSet
268.288 -83.9678 m 1,0,1
 52.5168014469 247.780154383 52.5168014469 247.780154383 32.5676356152 662.431099018 c 0
 30.7433522915 701.340274963 30.7433522915 701.340274963 30.7197 739.328 c 0,2,3
 30.7197 870.538918726 30.7197 870.538918726 56.7283025302 1011.51168079 c 0
 82.7369050605 1152.48444285 82.7369050605 1152.48444285 137.148730803 1297.26831921 c 0
 191.560556546 1442.05219557 191.560556546 1442.05219557 268.288 1562.62 c 1,4,-1
 446.464 1562.62 l 1,5,6
 312.940340883 1368.27469147 312.940340883 1368.27469147 247.606170441 1153.60527431 c 0
 182.272 938.935857143 182.272 938.935857143 182.272 729.088 c 0,7,8
 182.272 528.819039306 182.272 528.819039306 250.181395243 316.062475201 c 0
 318.090790487 103.305911096 318.090790487 103.305911096 446.464 -83.9678 c 1,9,-1
 268.288 -83.9678 l 1,0,1
EndSplineSet
Fore
SplineSet
271 -84 m 1,0,1
 147 130 147 130 147 395 c 0,2,3
 147 547 147 547 188 739 c 0,4,5
 293 1231 293 1231 621 1563 c 1,6,-1
 885 1563 l 1,7,8
 540.442359249 1179.06434316 540.442359249 1179.06434316 444 729 c 0,9,10
 416 594 416 594 416 461 c 0,11,12
 416 169 416 169 535 -84 c 1,13,-1
 271 -84 l 1,0,1
EndSplineSet
EndChar

StartChar: parenright
Encoding: 41 41 9
Width: 643
Flags: HW
VStem: 525 267<688.464 1345.66>
LayerCount: 2
Back
SplineSet
256 -96.2559 m 1,0,-1
 79.8721 -96.2559 l 1,1,2
 206.511278722 89.1800744492 206.511278722 89.1800744492 275.287639361 307.762458059 c 0
 344.064 526.344841669 344.064 526.344841669 344.064 727.04 c 0,3,4
 344.064 918.951684657 344.064 918.951684657 275.092078028 1141.81633602 c 0
 206.120156057 1364.68098738 206.120156057 1364.68098738 79.8721 1550.34 c 1,5,-1
 256 1550.34 l 1,6,7
 370.881011408 1369.81123937 370.881011408 1369.81123937 433.248505704 1148.54450663 c 0
 495.616 927.277773885 495.616 927.277773885 495.616 727.04 c 0,8,9
 495.616 587.731669168 495.616 587.731669168 469.842551507 447.187495867 c 0
 444.069103014 306.643322567 444.069103014 306.643322567 389.634781827 165.847204133 c 0
 335.200460639 25.0510856983 335.200460639 25.0510856983 256 -96.2559 c 1,0,-1
EndSplineSet
Fore
SplineSet
320 -96 m 1,0,-1
 60 -96 l 1,1,2
 226 89 226 89 341 307.5 c 128,-1,3
 456 526 456 526 490.5 689 c 0,4,5
 525 852 525 852 525 993 c 0,6,7
 525 1302 525 1302 409 1549 c 1,8,-1
 670 1549 l 1,9,10
 792 1333 792 1333 792 1049 c 0,11,12
 792 892 792 892 757 727 c 0,13,14
 653 233 653 233 320 -96 c 1,0,-1
EndSplineSet
EndChar

StartChar: asterisk
Encoding: 42 42 10
Width: 1172
Flags: HW
HStem: 604 231<271.163 537 938 1205.36>
LayerCount: 2
Back
SplineSet
620.813 645.394 m 6,0,-1
 826 332 l 1,1,2
 838.424456017 310.263162956 838.424456017 310.263162956 828.519592593 285.043037037 c 0
 818.614729168 259.822911118 818.614729168 259.822911118 801.070074074 239.77162963 c 0
 783.52541898 219.720348141 783.52541898 219.720348141 766.139 209.682 c 0,3,4
 765.48875 209.307 765.48875 209.307 764.731 208.8695 c 0
 763.97325 208.432 763.97325 208.432 762.675 207.682 c 0,5,6
 747.027015033 198.647692654 747.027015033 198.647692654 723.92694783 191.914594513 c 0
 700.826880626 185.181496372 700.826880626 185.181496372 675.23805217 186.008072153 c 0
 649.649223714 186.834647934 649.649223714 186.834647934 637.68 200.18 c 0,7,8
 632.947 204.376 632.947 204.376 625.947 216.5 c 2,9,-1
 456.269 550.394 l 2,10,11
 447.128121697 568.880229736 447.128121697 568.880229736 470.595082655 598.259964641 c 0
 494.062043614 627.639699546 494.062043614 627.639699546 515.406 639.963 c 0,12,13
 527.230258424 646.789596309 527.230258424 646.789596309 546.233222222 653.01362963 c 0
 565.23618602 659.23766295 565.23618602 659.23766295 586.012444444 661.22537037 c 0
 606.788702869 663.21307779 606.788702869 663.21307779 615.447 652.688 c 0,14,15
 617.81063676 650.592095553 617.81063676 650.592095553 620.813 645.394 c 6,0,-1
572.675 551.712 m 6,16,-1
 403.861 217.318 l 1,17,18
 392.30802456 197.307784418 392.30802456 197.307784418 364.719819751 192.061833115 c 0
 337.131614943 186.815881812 337.131614943 186.815881812 311.259180249 192.388833552 c 0
 285.386745555 197.961785291 285.386745555 197.961785291 268 208 c 2,19,20
 267.229165444 208.445054593 l 1
 266.417524 208.913669746 l 1
 264.536 210 l 2,21,22
 237.853348182 225.405132215 237.853348182 225.405132215 212.645830608 257.563939843 c 0
 187.438313033 289.722747472 187.438313033 289.722747472 195.541 314.498 c 0,23,24
 196.386362951 318.6281447 196.386362951 318.6281447 198.34804915 322.692709162 c 0
 200.309735349 326.757273624 200.309735349 326.757273624 203.809 332.818 c 2,25,-1
 408.13 646.712 l 2,26,27
 416.025683216 658.555753937 416.025683216 658.555753937 438.713048492 658.943470871 c 0
 461.400413768 659.331187806 461.400413768 659.331187806 482.315618175 653.280862462 c 0
 503.230822582 647.230537119 503.230822582 647.230537119 515.268 640.281 c 0,28,29
 536.231255829 628.178111199 536.231255829 628.178111199 559.303362685 602.653584014 c 0
 582.37546954 577.129056828 582.37546954 577.129056828 576.309 560.006 c 0,30,31
 575.886333333 557.940666667 575.886333333 557.940666667 575.030666667 556.125333333 c 0
 574.175 554.31 574.175 554.31 572.675 551.712 c 6,16,-1
411.455 635 m 6,32,-1
 206.269 948.394 l 1,33,34
 189.436123603 977.549215234 189.436123603 977.549215234 212.998957139 1015.59402421 c 0
 236.561790675 1053.63883318 236.561790675 1053.63883318 266.13 1070.71 c 2,35,36
 266.900834556 1071.15505459 l 1
 267.712476 1071.62366975 l 1
 269.594 1072.71 l 2,37,38
 285.241969804 1081.74429859 285.241969804 1081.74429859 308.34183206 1088.47711943 c 0
 331.441694315 1095.20994028 331.441694315 1095.20994028 357.030501274 1094.38288057 c 0
 382.619308232 1093.55582086 382.619308232 1093.55582086 394.589 1080.21 c 0,39,40
 397.745094061 1077.41540277 397.745094061 1077.41540277 400.287763824 1073.67952111 c 0
 402.830433588 1069.94363946 402.830433588 1069.94363946 406.321 1063.89 c 2,41,-1
 576 730 l 2,42,43
 585.140846592 711.513170525 585.140846592 711.513170525 561.673648973 682.133878379 c 0
 538.206451354 652.754586232 538.206451354 652.754586232 516.862 640.431 c 0,44,45
 505.037510283 633.604270157 505.037510283 633.604270157 486.034777778 627.380148148 c 0
 467.032045273 621.15602614 467.032045273 621.15602614 446.255555556 619.168185185 c 0
 425.479065838 617.180344231 425.479065838 617.180344231 416.821 627.706 c 0,46,47
 415.243666667 629.104666667 415.243666667 629.104666667 414.099333333 630.753333333 c 0
 412.955 632.402 412.955 632.402 411.455 635 c 6,32,-1
459.455 729 m 6,48,-1
 628.269 1063.39 l 1,49,50
 639.821886644 1083.40422082 639.821886644 1083.40422082 667.410435574 1088.65050797 c 0
 694.998984503 1093.89679511 694.998984503 1093.89679511 720.870564426 1088.32282537 c 0
 746.74214435 1082.74885562 746.74214435 1082.74885562 764.13 1072.71 c 2,51,52
 764.900834556 1072.26494541 l 1
 765.712476 1071.79633025 l 1
 767.594 1070.71 l 2,53,54
 794.276206787 1055.30512472 794.276206787 1055.30512472 819.483960148 1023.14622232 c 0
 844.691713508 990.987319918 844.691713508 990.987319918 836.589 966.214 c 0,55,56
 835.320682907 960.017450795 835.320682907 960.017450795 828.321 947.894 c 2,57,-1
 624 634 l 2,58,59
 616.104317441 622.156247048 616.104317441 622.156247048 593.416793536 621.768511815 c 0
 570.729269631 621.380776581 570.729269631 621.380776581 549.813873131 627.431154852 c 0
 528.898476631 633.481533123 528.898476631 633.481533123 516.862 640.431 c 0,60,61
 495.898744171 652.533888801 495.898744171 652.533888801 472.826637315 678.058415986 c 0
 449.75453046 703.582943172 449.75453046 703.582943172 455.821 720.706 c 0,62,63
 456.243666667 722.771333333 456.243666667 722.771333333 457.099333333 724.586666667 c 0
 457.955 726.402 457.955 726.402 459.455 729 c 6,48,-1
564 734 m 6,64,-1
 938 755 l 1,65,66
 972 755 972 755 993 715.5 c 0
 1014 676 1014 676 1014 642 c 2,67,68
 1014 638 l 2,69,70
 1014 607 1014 607 999 569 c 0
 984 531 984 531 958 526 c 0,71,72
 952 524 952 524 938 524 c 2,73,-1
 564 544 l 2,74,75
 543 545 543 545 529.5 580 c 0
 516 615 516 615 516 640 c 0,76,77
 516 664 516 664 526.5 697 c 0
 537 730 537 730 555 733 c 0,78,79
 558 734 558 734 564 734 c 6,64,-1
468 545 m 6,80,-1
 94 524 l 1,81,82
 60 524 60 524 39 563.5 c 0
 18 603 18 603 18 637 c 2,83,84
 18 641 l 2,85,86
 18 672 18 672 33 710 c 0
 48 748 48 748 74 753 c 0,87,88
 80 755 80 755 94 755 c 2,89,-1
 468 735 l 2,90,91
 489 734 489 734 502.5 699 c 0
 516 664 516 664 516 639 c 0,92,93
 516 615 516 615 505.5 582 c 0
 495 549 495 549 477 546 c 0,94,95
 474 545 474 545 468 545 c 6,80,-1
EndSplineSet
Fore
SplineSet
237 692 m 1,0,-1
 240 721 l 1,1,2
 247 752 247 752 270 790 c 0,3,4
 297.236842105 835 297.236842105 835 340 835 c 1,5,-1
 586 822 l 1,6,-1
 494 1028 l 1,7,8
 483.333333333 1065.33333333 483.333333333 1065.33333333 519.166666667 1101.16666667 c 0,9,10
 593 1175 593 1175 671 1175 c 0,11,12
 700 1175 700 1175 707 1165.5 c 128,-1,13
 714 1156 714 1156 718 1144 c 2,14,-1
 784 925 l 1,15,-1
 940 1143 l 2,16,17
 961 1171 961 1171 1005.5 1171 c 0,18,19
 1042 1171 1042 1171 1082 1151 c 1,20,21
 1100 1138 1100 1138 1116.5 1114.5 c 128,-1,22
 1133 1091 1133 1091 1133 1076 c 0,23,24
 1133 1048.4 1133 1048.4 1116 1028 c 2,25,-1
 938 821 l 1,26,-1
 1184 835 l 1,27,28
 1211 835 1211 835 1225 808 c 128,-1,29
 1239 781 1239 781 1239 762 c 128,-1,30
 1239 743 1239 743 1236 722 c 1,31,-1
 1236 718 l 1,32,33
 1229 687 1229 687 1206 649 c 0,34,35
 1178.76315789 604 1178.76315789 604 1135 604 c 1,36,-1
 892 617 l 1,37,-1
 983 412 l 1,38,39
 992.035971223 375.856115108 992.035971223 375.856115108 957.017985612 338.928057554 c 0,40,41
 887.862068966 266 887.862068966 266 806 266 c 0,42,43
 777 266 777 266 769.5 276 c 128,-1,44
 762 286 762 286 758 296 c 1,45,-1
 693 516 l 1,46,-1
 536 297 l 1,47,48
 514 270 514 270 470 270 c 128,-1,49
 426 270 426 270 398 288 c 1,50,-1
 396 290 l 1,51,52
 378 302 378 302 360.5 326.5 c 128,-1,53
 343 351 343 351 343 365.5 c 0,54,55
 343 388 343 388 349 394 c 1,56,57
 351 401 351 401 361 413 c 2,58,-1
 537 618 l 1,59,-1
 291 604 l 1,60,61
 264 604 264 604 250.5 631 c 128,-1,62
 237 658 237 658 237 692 c 1,0,-1
EndSplineSet
EndChar

StartChar: plus
Encoding: 43 43 11
Width: 972
Flags: HW
HStem: 520 240<230 445 736 972>
LayerCount: 2
Back
SplineSet
67.584 710.656 m 1,0,-1
 374.784 710.656 l 1,1,-1
 374.784 1021.95 l 1,2,-1
 516.096 1021.95 l 1,3,-1
 516.096 710.656 l 1,4,-1
 823.296 710.656 l 1,5,-1
 823.296 569.344 l 1,6,-1
 516.096 569.344 l 1,7,-1
 516.096 258.048 l 1,8,-1
 374.784 258.048 l 1,9,-1
 374.784 569.344 l 1,10,-1
 67.584 569.344 l 1,11,-1
 67.584 710.656 l 1,0,-1
EndSplineSet
Fore
SplineSet
230 760 m 1,0,-1
 496 760 l 1,1,-1
 560 1062 l 1,2,-1
 800 1062 l 1,3,-1
 736 760 l 1,4,-1
 1023 760 l 1,5,-1
 972 520 l 1,6,-1
 684 520 l 1,7,-1
 623 233 l 1,8,-1
 384 233 l 1,9,-1
 445 520 l 1,10,-1
 179 520 l 1,11,-1
 230 760 l 1,0,-1
EndSplineSet
EndChar

StartChar: comma
Encoding: 44 44 12
Width: 444
Flags: HW
HStem: -205 503
LayerCount: 2
Back
SplineSet
308.224 94.208 m 0,0,1
 308.224 56.7564892814 308.224 56.7564892814 300.195797606 18.0643007495 c 0
 292.167595211 -20.6278877824 292.167595211 -20.6278877824 281.521535728 -49.4672049162 c 0
 270.875476245 -78.3065220499 270.875476245 -78.3065220499 254.305427235 -110.011559436 c 0
 237.735378226 -141.716596821 237.735378226 -141.716596821 226.870276469 -158.542101212 c 0
 216.005174711 -175.367605603 216.005174711 -175.367605603 200.905723531 -197.127319621 c 0
 185.806272352 -218.887033638 185.806272352 -218.887033638 184.32 -221.184 c 1,2,-1
 129.024 -190.464 l 1,3,4
 200.704 -82.944 200.704 -82.944 200.704 -12.2881 c 1,5,6
 156.09098911 -12.2881 156.09098911 -12.2881 124.637294555 18.7516163785 c 0
 93.1836 49.7913327571 93.1836 49.7913327571 93.1836 94.208 c 0,7,8
 93.1836 138.722539225 93.1836 138.722539225 124.686694611 170.225269613 c 0
 156.189789223 201.728 156.189789223 201.728 200.704 201.728 c 0,9,10
 222.566873602 201.728 222.566873602 201.728 242.477077892 193.208866556 c 0
 262.387282182 184.689733111 262.387282182 184.689733111 276.786250233 170.291024069 c 0
 291.185218284 155.892315027 291.185218284 155.892315027 299.704609142 135.981897806 c 0
 308.224 116.071480584 308.224 116.071480584 308.224 94.208 c 0,0,1
EndSplineSet
Fore
SplineSet
380 260 m 128,-1,1
 414 222 414 222 414 164.208955224 c 128,-1,2
 414 106.417910448 414 106.417910448 373 34.2089552239 c 128,-1,3
 332 -38 332 -38 291.5 -83 c 0,4,5
 212.537735849 -170.735849057 212.537735849 -170.735849057 159 -205 c 1,6,-1
 95 -162 l 1,7,8
 110 -143 110 -143 135 -102.5 c 0,9,10
 166 -52.28 166 -52.28 166 -29 c 1,11,12
 129 -20 129 -20 104.5 10.5 c 128,-1,13
 80 41 80 41 80 79 c 128,-1,14
 80 117 80 117 85 137 c 0,15,16
 98 197 98 197 156.5 247.5 c 128,-1,17
 215 298 215 298 280.5 298 c 128,-1,0
 346 298 346 298 380 260 c 128,-1,1
EndSplineSet
EndChar

StartChar: hyphen
Encoding: 45 45 13
Width: 960
Flags: HW
HStem: 514 240<258 979>
LayerCount: 2
Back
SplineSet
98.3037 704.512 m 1,0,-1
 776.192 704.512 l 1,1,-1
 776.192 563.2 l 1,2,-1
 98.3037 563.2 l 1,3,-1
 98.3037 704.512 l 1,0,-1
EndSplineSet
Fore
SplineSet
258 754 m 1,0,-1
 1030 754 l 1,1,-1
 979 514 l 1,2,-1
 207 514 l 1,3,-1
 258 754 l 1,0,-1
EndSplineSet
EndChar

StartChar: period
Encoding: 46 46 14
Width: 451
Flags: HW
HStem: -33 328<171.75 340.647>
VStem: 88 336<49.6232 212.821>
LayerCount: 2
Back
SplineSet
93.1836 94.208 m 0,0,1
 93.1836 138.722539225 93.1836 138.722539225 124.686694611 170.225269613 c 0
 156.189789223 201.728 156.189789223 201.728 200.704 201.728 c 0,2,3
 222.566873602 201.728 222.566873602 201.728 242.477077892 193.208866556 c 0
 262.387282182 184.689733111 262.387282182 184.689733111 276.786250233 170.291024069 c 0
 291.185218284 155.892315027 291.185218284 155.892315027 299.704609142 135.981897806 c 0
 308.224 116.071480584 308.224 116.071480584 308.224 94.208 c 0,4,5
 308.224 49.6939316297 308.224 49.6939316297 276.720778317 18.1912158149 c 0
 245.217556635 -13.3115 245.217556635 -13.3115 200.704 -13.3115 c 0,6,7
 171.511803596 -13.3115 171.511803596 -13.3115 146.741850899 1.08228694343 c 0
 121.971898202 15.4760738869 121.971898202 15.4760738869 107.577749101 40.2458797232 c 0
 93.1836 65.0156855596 93.1836 65.0156855596 93.1836 94.208 c 0,0,1
EndSplineSet
Fore
SplineSet
88 97 m 0,0,1
 88 184.230769231 88 184.230769231 155.5 239.615384615 c 128,-1,2
 223 295 223 295 286.5 295 c 128,-1,3
 350 295 350 295 387 258.5 c 128,-1,4
 424 222 424 222 424 166 c 0,5,6
 424 77.7692307692 424 77.7692307692 356.5 22.3846153846 c 128,-1,7
 289 -33 289 -33 226 -33 c 128,-1,8
 163 -33 163 -33 125.5 4 c 128,-1,9
 88 41 88 41 88 97 c 0,0,1
EndSplineSet
EndChar

StartChar: slash
Encoding: 47 47 15
Width: 847
Flags: HW
HStem: 0 21G<-42 257.487>
LayerCount: 2
Back
SplineSet
124.928 0 m 1,0,-1
 -32.7676 0 l 1,1,-1
 684.032 1544.19 l 1,2,-1
 841.729 1544.19 l 1,3,-1
 124.928 0 l 1,0,-1
EndSplineSet
Fore
SplineSet
245 0 m 1,0,-1
 -42 0 l 1,1,-1
 941 1544 l 1,2,-1
 1209 1544 l 1,3,-1
 245 0 l 1,0,-1
EndSplineSet
EndChar

StartChar: zero
Encoding: 48 48 16
Width: 1177
Flags: HW
HStem: -28 242<512.469 764.969> 1248 242<706.808 983.411>
VStem: 207 257<266.829 755.964> 1025 258<756.035 1202.97>
LayerCount: 2
Back
SplineSet
90.1123 727.04 m 0,0,1
 90.1123 849.97357543 90.1123 849.97357543 110.775726847 963.840346929 c 0
 131.439153694 1077.70711843 131.439153694 1077.70711843 172.520480353 1173.74645307 c 0
 213.601807012 1269.78578771 213.601807012 1269.78578771 270.748939647 1341.19554693 c 0
 327.896072282 1412.60530614 327.896072282 1412.60530614 405.238653153 1452.79765307 c 0
 482.581234024 1492.99 482.581234024 1492.99 571.392 1492.99 c 0,2,3
 660.13074703 1492.99 660.13074703 1492.99 736.060179379 1452.724429 c 0
 811.989611728 1412.45885799 811.989611728 1412.45885799 866.984972621 1341.268771 c 0
 921.980333515 1270.07868402 921.980333515 1270.07868402 960.981907379 1173.673229 c 0
 999.983481243 1077.26777398 999.983481243 1077.26777398 1019.16174062 963.913571004 c 0
 1038.34 850.559368033 1038.34 850.559368033 1038.34 727.04 c 0,4,5
 1038.34 573.302826123 1038.34 573.302826123 1006.2051828 436.553184562 c 0
 974.070365603 299.803543001 974.070365603 299.803543001 914.952192198 195.479012313 c 0
 855.834018793 91.1544816245 855.834018793 91.1544816245 764.794432802 30.2173908122 c 0
 673.75484681 -30.7197 673.75484681 -30.7197 563.2 -30.7197 c 0,6,7
 452.665990332 -30.7197 452.665990332 -30.7197 361.92971193 30.1962300791 c 0
 271.193433528 91.1121601582 271.193433528 91.1121601582 212.470484945 195.500173046 c 0
 153.747536361 299.888185934 153.747536361 299.888185934 121.92991818 436.532023829 c 0
 90.1123 573.175861725 90.1123 573.175861725 90.1123 727.04 c 0,0,1
247.808 727.04 m 0,8,9
 247.808 490.207459061 247.808 490.207459061 321.677703218 316.433624405 c 0
 405.039187939 120.330970252 405.039187939 120.330970252 549.548825943 111.027905836 c 0
 556.83326581 110.62169726 556.83326581 110.62169726 563.2 110.592 c 0,10,11
 596.04974197 110.592 596.04974197 110.592 626.298414998 120.306816106 c 0
 656.547088026 130.021632212 656.547088026 130.021632212 681.970129002 147.989375894 c 0
 707.393169977 165.957119575 707.393169977 165.957119575 730.177070998 191.077504106 c 0
 752.96097202 216.197888637 752.96097202 216.197888637 771.410385002 247.391103894 c 0
 789.859797984 278.58431915 789.859797984 278.58431915 805.596718998 314.342528106 c 0
 821.333640013 350.100737062 821.333640013 350.100737062 833.227217002 389.751679894 c 0
 845.12079399 429.402622725 845.12079399 429.402622725 854.228526998 471.030912106 c 0
 863.336260007 512.659201487 863.336260007 512.659201487 869.091793002 556.000127894 c 0
 874.847325997 599.3410543 874.847325997 599.3410543 877.743662998 642.071680106 c 0
 880.64 684.802305912 880.64 684.802305912 880.64 727.04 c 0,12,13
 880.64 814.471521798 880.64 814.471521798 870.194668732 899.948700225 c 0
 859.749337465 985.425878652 859.749337465 985.425878652 835.789331268 1067.92041978 c 0
 811.82932507 1150.4149609 811.82932507 1150.4149609 776.969708732 1212.81718022 c 0
 742.110092395 1275.21939955 742.110092395 1275.21939955 688.988691268 1313.44969978 c 0
 635.867290141 1351.68 635.867290141 1351.68 571.392 1351.68 c 0,14,15
 507.444680702 1351.68 507.444680702 1351.68 453.097401088 1313.59609827 c 0
 398.750121473 1275.51219654 398.750121473 1275.51219654 361.646150912 1212.67078173 c 0
 324.542180351 1149.82936693 324.542180351 1149.82936693 298.301369088 1068.06681827 c 0
 272.060557824 986.304269606 272.060557824 986.304269606 259.934278912 899.802301732 c 0
 247.808 813.300333858 247.808 813.300333858 247.808 727.04 c 0,8,9
EndSplineSet
Fore
SplineSet
241 756 m 0,0,1
 315 1101 315 1101 491 1295.5 c 128,-1,2
 667 1490 667 1490 907 1490 c 0,3,4
 1091 1490 1091 1490 1187 1373 c 128,-1,5
 1283 1256 1283 1256 1283 1038 c 0,6,7
 1283 912 1283 912 1242 719 c 128,-1,8
 1201 526 1201 526 1105 349.5 c 128,-1,9
 1009 173 1009 173 872.5 72.5 c 128,-1,10
 736 -28 736 -28 579 -28 c 2,11,-1
 578 -28 l 2,12,13
 397 -28 397 -28 302 102.5 c 128,-1,14
 207 233 207 233 207 462 c 0,15,16
 207 599 207 599 241 756 c 0,0,1
641 1137 m 128,-1,18
 566 1026 566 1026 515 785.5 c 128,-1,19
 464 545 464 545 464 433.5 c 128,-1,20
 464 322 464 322 503 268 c 128,-1,21
 542 214 542 214 620.5 214 c 128,-1,22
 699 214 699 214 753.5 248.5 c 128,-1,23
 808 283 808 283 849.5 355 c 0,24,25
 925.406567738 486.693322341 925.406567738 486.693322341 975.203283869 722.346661171 c 128,-1,26
 1025 958 1025 958 1025 1058 c 128,-1,27
 1025 1158 1025 1158 985 1203 c 128,-1,28
 945 1248 945 1248 855 1248 c 0,29,17
 716 1248 716 1248 641 1137 c 128,-1,18
EndSplineSet
EndChar

StartChar: one
Encoding: 49 49 17
Width: 1177
Flags: HW
HStem: 0 21G<502 774.245> 1436 20G<787.636 1079>
VStem: 485 594
LayerCount: 2
Back
SplineSet
571.392 1275.9 m 1,0,-1
 362.496 1099.78 l 1,1,-1
 272.384 1196.03 l 1,2,-1
 573.44 1456.13 l 1,3,-1
 729.088 1456.13 l 1,4,-1
 729.088 0 l 1,5,-1
 571.392 0 l 1,6,-1
 571.392 1275.9 l 1,0,-1
EndSplineSet
Fore
SplineSet
754 1184 m 1,0,-1
 758 1206 l 1,1,-1
 485 1206 l 1,2,-1
 814 1456 l 1,3,-1
 1079 1456 l 1,4,-1
 770 0 l 1,5,-1
 502 0 l 1,6,-1
 754 1184 l 1,0,-1
EndSplineSet
EndChar

StartChar: two
Encoding: 50 50 18
Width: 1177
Flags: HW
HStem: 0 240<453 1061> 1076 21G<524.183 616.5> 1252 240<691.015 950.911>
VStem: 987 270<951.285 1215.28>
LayerCount: 2
Back
SplineSet
725 1176 m 5,0,-1
 942 1322 l 1
240 1112 m 20,2,3
 268 1209 268 1209 362 1288.5 c 0
 456 1368 456 1368 570 1368 c 0,4,5
 727 1368 727 1368 810.5 1275 c 0
 894 1182 894 1182 893 1040 c 0,6,7
 893 1008 893 1008 887 977.5 c 0
 881 947 881 947 873.5 922 c 0
 866 897 866 897 848.5 868.5 c 0
 831 840 831 840 820.5 822 c 0
 810 804 810 804 783.5 776.5 c 0
 757 749 757 749 745 736.5 c 0
 733 724 733 724 700.5 697 c 0
 668 670 668 670 657.5 661.5 c 0
 647 653 647 653 610.5 625.5 c 0
 574 598 574 598 567 592 c 0,8,9
 511 549 511 549 476 520 c 0
 441 491 441 491 391.5 442.5 c 0
 342 394 342 394 313.5 352 c 0
 285 310 285 310 264 255.5 c 0
 243 201 243 201 243 146 c 0
188 398 m 5,11,-1
 412 265 l 1
719 896 m 5,13,-1
 931 751 l 1
485 686 m 5,15,-1
 642 488 l 1
262.144 1110.02 m 9,17,-1
 122.878 1165.31 l 1,18,19
 161.607587607 1303.18043344 161.607587607 1303.18043344 290.061706637 1399.11021672 c 0
 418.515825667 1495.04 418.515825667 1495.04 569.344 1495.04 c 0,20,21
 633.990397271 1495.04 633.990397271 1495.04 694.076625659 1478.8542336 c 0
 754.162854046 1462.6684672 754.162854046 1462.6684672 808.187806341 1427.4698464 c 0
 862.212758636 1392.2712256 862.212758636 1392.2712256 902.217873659 1341.4241536 c 0
 942.222988682 1290.5770816 942.222988682 1290.5770816 965.702494341 1216.3117664 c 0
 989.182 1142.0464512 989.182 1142.0464512 989.182 1052.67 c 0,22,23
 989.182 1001.92835227 989.182 1001.92835227 975.614047841 952.770796817 c 0
 962.046095681 903.613241366 962.046095681 903.613241366 941.185704112 864.30991412 c 0
 920.325312544 825.006586875 920.325312544 825.006586875 888.533286122 785.549906192 c 0
 856.7412597 746.09322551 856.7412597 746.09322551 827.303750987 717.80172662 c 0
 797.866242275 689.510227731 797.866242275 689.510227731 759.666040028 659.124703067 c 0
 721.465837781 628.739178403 721.465837781 628.739178403 695.267110362 610.82978912 c 0
 669.068382944 592.920399838 669.068382944 592.920399838 636.275903309 570.976312442 c 0
 603.483423675 549.032225046 603.483423675 549.032225046 591.872 540.672 c 0,24,25
 547.869568389 508.99024924 547.869568389 508.99024924 497.818261398 464.70146914 c 0
 447.766954407 420.412689039 447.766954407 420.412689039 394.661738602 364.45053086 c 0
 341.556522796 308.488372682 341.556522796 308.488372682 306.970261398 248.31746914 c 0
 272.384 188.146565598 272.384 188.146565598 272.384 141.312 c 1,26,-1
 1036.29 141.312 l 1,27,-1
 1036.29 0 l 1,28,-1
 88.0645 0 l 1,29,30
 88.0645 53.100135447 88.0645 53.100135447 97.0218599987 104.191444263 c 0
 105.979219997 155.282753078 105.979219997 155.282753078 121.154306668 199.519370552 c 0
 136.329393338 243.755988026 136.329393338 243.755988026 159.832806501 287.280958666 c 0
 183.336219663 330.805929306 183.336219663 330.805929306 208.827895145 367.185675079 c 0
 234.319570628 403.565420851 234.319570628 403.565420851 267.750567818 440.636547143 c 0
 301.181565008 477.707673436 301.181565008 477.707673436 332.371360166 507.343041334 c 0
 363.561155324 536.978409232 363.561155324 536.978409232 402.301267406 568.708185003 c 0
 441.041379488 600.437960775 441.041379488 600.437960775 473.310825186 624.441444626 c 0
 505.580270885 648.444928478 505.580270885 648.444928478 544.771 675.84 c 0,31,32
 555.451496095 683.30601943 555.451496095 683.30601943 587.383310826 704.851164712 c 0
 619.315125557 726.396309993 619.315125557 726.396309993 636.12588644 738.221813804 c 0
 652.936647322 750.047317615 652.936647322 750.047317615 683.239439732 774.167512368 c 0
 713.542232142 798.28770712 713.542232142 798.28770712 731.065245815 816.723610679 c 0
 748.588259487 835.159514238 748.588259487 835.159514238 771.170646763 863.717688149 c 0
 793.75303404 892.27586206 793.75303404 892.27586206 805.89691769 919.185095054 c 0
 818.040801339 946.094328048 818.040801339 946.094328048 826.81140067 980.953410805 c 0
 835.582 1015.81249356 835.582 1015.81249356 835.582 1052.67 c 0,33,34
 835.582 1123.82049235 835.582 1123.82049235 812.836829232 1182.22575914 c 0
 790.091658464 1240.63102593 790.091658464 1240.63102593 752.248483268 1277.35845961 c 0
 714.405308072 1314.08589328 714.405308072 1314.08589328 667.238204232 1333.90794664 c 0
 620.071100392 1353.73 620.071100392 1353.73 569.344 1353.73 c 0,35,36
 469.291640205 1353.73 469.291640205 1353.73 384.172368569 1290.19065227 c 0
 299.053096933 1226.65130455 299.053096933 1226.65130455 262.144 1110.02 c 9,17,-1
EndSplineSet
Fore
SplineSet
587 1076 m 9,0,-1
 364 1147 l 1,1,2
 424 1292 424 1292 578 1392 c 128,-1,3
 732 1492 732 1492 884 1492 c 0,4,5
 1074.08450704 1492 1074.08450704 1492 1176 1391.5 c 0,6,7
 1257 1311.625 1257 1311.625 1257 1168 c 0,8,9
 1257 1112 1257 1112 1236.5 1016 c 128,-1,10
 1216 920 1216 920 1163 837 c 128,-1,11
 1110 754 1110 754 1022 682 c 128,-1,12
 934 610 934 610 805.5 527.5 c 128,-1,13
 677 445 677 445 583.5 374.5 c 128,-1,14
 490 304 490 304 453 240 c 1,15,-1
 1112 240 l 1,16,-1
 1061 0 l 1,17,-1
 92 0 l 1,18,19
 129 172 129 172 196 291 c 0,20,21
 311.671425255 496.446262767 311.671425255 496.446262767 650.5 698.5 c 0,22,23
 861.941768623 824.589128078 861.941768623 824.589128078 936.5 937 c 0,24,25
 987 1013.13846154 987 1013.13846154 987 1095.06923077 c 0,26,27
 987 1252 987 1252 831 1252 c 128,-1,28
 675 1252 675 1252 587 1076 c 9,0,-1
EndSplineSet
EndChar

StartChar: three
Encoding: 51 51 19
Width: 1177
Flags: HW
HStem: -28 242<512.313 791.814> 651 213<617 861.204> 1253 237<710.225 951.074>
VStem: 927 275<339.285 586.345> 990 266<1001.26 1215.64>
LayerCount: 2
Back
SplineSet
763 274 m 5,0,-1
 920 76 l 1
805 530 m 5,2,-1
 1022 676 l 1
741 1162 m 5,4,-1
 958 1308 l 1
240 1112 m 20,6,7
 268 1209 268 1209 362 1288.5 c 0
 456 1368 456 1368 570 1368 c 0,8,9
 630.71838318 1368 630.71838318 1368 682.740914893 1351.65223829 c 0
 734.763446607 1335.30447659 734.763446607 1335.30447659 772.621533107 1306.39192171 c 0
 810.479619606 1277.47936682 810.479619606 1277.47936682 837.597426893 1238.20087829 c 0
 864.71523418 1198.92238976 864.71523418 1198.92238976 878.519725107 1152.74296171 c 0
 892.324216033 1106.56353365 892.324216033 1106.56353365 893.344 1056 c 0,10,11
 895.292572317 959.329458867 895.292572317 959.329458867 849.082711425 891.436364717 c 0
 802.872850534 823.543270566 802.872850534 823.543270566 724.299288575 791.771635283 c 0
 645.725726615 760 645.725726615 760 542 760 c 1,12,13
 964 760 964 760 964 428 c 0,14,15
 964 358 964 358 942.5 301 c 0
 921 244 921 244 885.5 207 c 0
 850 170 850 170 802 145 c 0
 754 120 754 120 703 109 c 0
 652 98 652 98 598 98 c 0,16,17
 490 98 490 98 398 150.5 c 0
 306 203 306 203 264 282 c 0
122.88 251.904 m 9,19,-1
 278.528 299.008 l 1,20,21
 288.016081413 278.513744148 288.016081413 278.513744148 300.748994601 259.177267439 c 0
 313.48190779 239.84079073 313.48190779 239.84079073 328.379005399 222.894732561 c 0
 343.276103008 205.948674392 343.276103008 205.948674392 360.540994601 190.809267439 c 0
 377.805886194 175.669860487 377.805886194 175.669860487 396.283005399 163.310732561 c 0
 414.760124604 150.951604635 414.760124604 150.951604635 434.732994601 141.065267439 c 0
 454.705864599 131.178930243 454.705864599 131.178930243 474.939005399 124.462732561 c 0
 495.172146199 117.746534878 495.172146199 117.746534878 516.028994601 114.169267439 c 0
 536.885843003 110.592 536.885843003 110.592 557.056 110.592 c 0,22,23
 619.920695652 110.592 619.920695652 110.592 675.053449275 128.533333333 c 0
 730.186202899 146.474666667 730.186202899 146.474666667 773.906550725 181.354666667 c 0
 817.626898551 216.234666667 817.626898551 216.234666667 842.989449275 273.429333333 c 0
 868.352 330.624 868.352 330.624 868.352 403.456 c 0,24,25
 868.352 475.370625243 868.352 475.370625243 842.787191136 531.953770874 c 0
 817.222382271 588.536916505 817.222382271 588.536916505 773.628808864 622.766229126 c 0
 730.035235457 656.995541748 730.035235457 656.995541748 675.939191136 674.609770874 c 0
 621.843146814 692.224 621.843146814 692.224 561.152 692.224 c 2,26,-1
 483.328 692.224 l 1,27,-1
 483.328 825.344 l 1,28,-1
 561.152 825.344 l 2,29,30
 597.846824373 825.344 597.846824373 825.344 631.851763919 832.474241475 c 0
 665.856703465 839.60448295 665.856703465 839.60448295 696.361569415 853.541758525 c 0
 726.866435364 867.4790341 726.866435364 867.4790341 751.906282437 889.438982216 c 0
 776.94612951 911.398930332 776.94612951 911.398930332 795.196532378 939.633610377 c 0
 813.446935245 967.868290422 813.446935245 967.868290422 823.491467622 1005.11305629 c 0
 833.536 1042.35782216 833.536 1042.35782216 833.536 1085.44 c 0,31,32
 833.536 1207.3138764 833.536 1207.3138764 763.033951325 1282.5669382 c 0
 692.53190265 1357.82 692.53190265 1357.82 559.104 1357.82 c 2,33,-1
 552.96 1357.82 l 2,34,35
 499.937537122 1357.82 499.937537122 1357.82 450.518551781 1340.10742262 c 0
 401.099566441 1322.39484524 401.099566441 1322.39484524 360.489448219 1286.10924405 c 0
 319.879329997 1249.82364285 319.879329997 1249.82364285 299.008 1200.13 c 1,36,-1
 161.792 1263.62 l 1,37,38
 214.168747307 1366.82848889 214.168747307 1366.82848889 324.607184681 1431.95924444 c 0
 435.045622054 1497.09 435.045622054 1497.09 559.104 1497.09 c 0,39,40
 683.651247769 1497.09 683.651247769 1497.09 782.240811942 1444.91873099 c 0
 880.830376115 1392.74746199 880.830376115 1392.74746199 936.031188058 1298.71793567 c 0
 991.232 1204.68840936 991.232 1204.68840936 991.232 1085.44 c 0,41,42
 991.232 1030.03356641 991.232 1030.03356641 976.608660921 979.954080624 c 0
 961.985321842 929.874594838 961.985321842 929.874594838 941.515371079 895.817311376 c 0
 921.045420316 861.760027914 921.045420316 861.760027914 892.099988921 831.220128624 c 0
 863.154557525 800.680229333 863.154557525 800.680229333 841.769579079 784.438879376 c 0
 820.384600633 768.19752942 820.384600633 768.19752942 796.672 753.664 c 1,43,44
 824.807220308 745.158003163 824.807220308 745.158003163 854.461108539 727.548033619 c 0
 884.114996769 709.938064076 884.114996769 709.938064076 915.339483461 679.362430381 c 0
 946.563970154 648.786796685 946.563970154 648.786796685 970.788596539 610.467969619 c 0
 995.013222923 572.149142554 995.013222923 572.149142554 1010.53161146 518.045566381 c 0
 1026.05 463.941990207 1026.05 463.941990207 1026.05 403.456 c 0,45,46
 1026.05 302.982806957 1026.05 302.982806957 989.379997598 220.246514701 c 0
 952.709995196 137.510222445 952.709995196 137.510222445 889.054689902 83.0496821738 c 0
 825.399384607 28.5891419024 825.399384607 28.5891419024 740.098622598 -1.0652790488 c 0
 654.797860589 -30.7197 654.797860589 -30.7197 557.056 -30.7197 c 0,47,48
 477.281908643 -30.7197 477.281908643 -30.7197 393.304930736 1.4497772187 c 0
 309.327952828 33.6192544374 309.327952828 33.6192544374 234.748402598 99.584989448 c 0
 160.168852368 165.550724459 160.168852368 165.550724459 122.88 251.904 c 9,19,-1
EndSplineSet
Fore
SplineSet
1256 1195 m 0,0,1
 1256 954.375 1256 954.375 1041 820 c 1,2,3
 1088 783 1088 783 1119 749 c 128,-1,4
 1150 715 1150 715 1176 655.5 c 128,-1,5
 1202 596 1202 596 1202 536.5 c 0,6,7
 1202 281.913043478 1202 281.913043478 978.5 107 c 0,8,9
 806 -28 806 -28 592 -28 c 0,10,11
 321.569343066 -28 321.569343066 -28 214.5 162.5 c 0,12,13
 176 231 176 231 162 323 c 9,14,-1
 435 393 l 1,15,16
 452 300 452 300 510.5 257 c 128,-1,17
 569 214 569 214 657 214 c 128,-1,18
 745 214 745 214 823.5 275.5 c 128,-1,19
 902 337 902 337 922 429 c 0,20,21
 927 452 927 452 927 471 c 0,22,23
 927 548 927 548 871.5 599.5 c 128,-1,24
 816 651 816 651 736 651 c 2,25,-1
 571 651 l 1,26,-1
 617 864 l 1,27,-1
 759 864 l 2,28,29
 834 864 834 864 901 923 c 0,30,31
 990 1001.37313433 990 1001.37313433 990 1108 c 0,32,33
 990 1178 990 1178 947 1215.5 c 128,-1,34
 904 1253 904 1253 840 1253 c 128,-1,35
 776 1253 776 1253 724.5 1220 c 128,-1,36
 673 1187 673 1187 645 1142 c 1,37,-1
 409 1208 l 1,38,39
 576 1490 576 1490 885 1490 c 0,40,41
 1107.31386861 1490 1107.31386861 1490 1203.5 1364.5 c 0,42,43
 1256 1296 1256 1296 1256 1195 c 0,0,1
EndSplineSet
EndChar

StartChar: four
Encoding: 52 52 20
Width: 1177
Flags: HW
HStem: 0 21G<675 948.253> 348 240<473 749 1068 1156> 1436 20G<947.252 1253>
LayerCount: 2
Back
SplineSet
854.016 1445.25 m 1,0,-1
 854.016 536.576 l 1,1,-1
 1042.43 536.576 l 1,2,-1
 1042.43 397.312 l 1,3,-1
 854.016 397.312 l 1,4,-1
 854.016 0 l 1,5,-1
 696.32 0 l 1,6,-1
 696.32 397.312 l 1,7,-1
 77.8242 397.312 l 1,8,-1
 684.032 1456.13 l 1,9,-1
 696.32 1456.13 l 1,10,-1
 854.016 1456.13 l 1,11,-1
 860.16 1456.13 l 1,12,-1
 854.016 1445.25 l 1,0,-1
700.416 1229.67 m 1,13,-1
 313.344 538.624 l 1,14,-1
 700.416 538.624 l 1,15,-1
 700.416 1229.67 l 1,13,-1
EndSplineSet
Fore
SplineSet
1068 585 m 9,0,-1
 1206 585 l 1,1,-1
 1156 348 l 1,2,-1
 1018 348 l 1,3,-1
 944 0 l 1,4,-1
 675 0 l 1,5,-1
 749 348 l 1,6,-1
 164 348 l 1,7,-1
 207 552 l 1,8,-1
 964 1456 l 1,9,-1
 1253 1456 l 1,10,-1
 1068 585 l 9,0,-1
918 1105 m 1,11,-1
 473 588 l 1,12,-1
 808 588 l 1,13,-1
 918 1105 l 1,11,-1
EndSplineSet
EndChar

StartChar: five
Encoding: 53 53 21
Width: 1177
Flags: HW
HStem: -26 242<520.63 800.409> 719 229<649.078 880.925> 1217 239<765 1234>
VStem: 947 269<368.016 646.306>
LayerCount: 2
Back
SplineSet
763 274 m 1,0,-1
 920 76 l 1
812 590 m 1,2,-1
 1029 736 l 1
306 752 m 0,4,5
 332.178779889 768.36173743 332.178779889 768.36173743 374.296055925 784.007684358 c 0
 416.41333196 799.653631285 416.41333196 799.653631285 477.703944075 811.661315642 c 0
 538.994556191 823.669 538.994556191 823.669 598 823.669 c 0,6,7
 664.955528641 823.669 664.955528641 823.669 731.721754774 797.029757368 c 0
 798.487980906 770.390514737 798.487980906 770.390514737 852.215745226 724.197336382 c 0
 905.943509547 678.004158027 905.943509547 678.004158027 939.471754774 608.726069868 c 0
 973 539.44798171 973 539.44798171 973 461 c 0,8,9
 973 356 973 356 915 270.5 c 0
 857 185 857 185 772 141.5 c 0
 687 98 687 98 598 98 c 0,10,11
 491 98 491 98 403.5 150 c 0
 316 202 316 202 274 282 c 0
221 461 m 0,13,14
 221 610 221 610 333 716.5 c 0
 445 823 445 823 597 823 c 0,15,16
 749 823 749 823 861 716.5 c 0
 973 610 973 610 973 461 c 0,17,18
 973 312 973 312 861 205.5 c 0
 749 99 749 99 597 99 c 0,19,20
 445 99 445 99 333 205.5 c 0
 221 312 221 312 221 461 c 0,13,14
552.96 765.952 m 0,21,22
 466.659555556 765.952 466.659555556 765.952 365.505515483 737.50242623 c 0
 264.35147541 709.052852459 264.35147541 709.052852459 182.272 671.744 c 1,23,-1
 282.624 1456.13 l 1,24,-1
 954.368 1456.13 l 1,25,-1
 954.368 1314.82 l 1,26,-1
 409.6 1314.82 l 1,27,-1
 354.304 868.352 l 1,28,29
 392.609268722 888.213991189 392.609268722 888.213991189 439.931301028 894.666995595 c 0
 487.253333333 901.12 487.253333333 901.12 559.104 901.12 c 0,30,31
 657.49721576 901.12 657.49721576 901.12 745.327494293 865.815434032 c 0
 833.157772827 830.510868063 833.157772827 830.510868063 897.907130707 768.137081593 c 0
 962.656488587 705.763295123 962.656488587 705.763295123 1000.49824429 614.743715282 c 0
 1038.34 523.72413544 1038.34 523.72413544 1038.34 417.792 c 0,32,33
 1038.34 354.875094342 1038.34 354.875094342 1018.5908992 291.034873693 c 0
 998.841798405 227.194653043 998.841798405 227.194653043 959.586668797 169.568655107 c 0
 920.33153919 111.942657171 920.33153919 111.942657171 867.069491203 67.0985248928 c 0
 813.807443215 22.2543926144 813.807443215 22.2543926144 741.218540797 -4.2326536928 c 0
 668.62963838 -30.7197 668.62963838 -30.7197 587.776 -30.7197 c 0,34,35
 503.146634078 -30.7197 503.146634078 -30.7197 424.360936508 -2.05424089568 c 0
 345.575238938 26.6112182086 345.575238938 26.6112182086 284.823063492 75.7827846457 c 0
 224.070888045 124.954351083 224.070888045 124.954351083 179.752936508 190.457959104 c 0
 135.434984971 255.961567126 135.434984971 255.961567126 114.688 329.729 c 1,36,-1
 270.336 358.4 l 1,37,38
 326.837674223 192.218605226 326.837674223 192.218605226 457.887932505 135.864168087 c 0
 517.334543098 110.796883421 517.334543098 110.796883421 587.776 110.592 c 0,39,40
 639.765730429 110.592 639.765730429 110.592 685.943196304 125.739603782 c 0
 732.120662178 140.887207564 732.120662178 140.887207564 767.809123696 168.828332218 c 0
 803.497585215 196.769456873 803.497585215 196.769456873 829.467036304 234.791507782 c 0
 855.436487393 272.813558691 855.436487393 272.813558691 869.062243696 320.150956218 c 0
 882.688 367.488353745 882.688 367.488353745 882.688 419.84 c 0,41,42
 882.688 490.983384615 882.688 490.983384615 855.227290043 555.697230769 c 0
 827.766580087 620.411076923 827.766580087 620.411076923 782.468709957 666.158769231 c 0
 737.170839827 711.906461538 737.170839827 711.906461538 676.923290043 738.929230769 c 0
 616.67574026 765.952 616.67574026 765.952 552.96 765.952 c 0,21,22
EndSplineSet
Fore
SplineSet
895 663.5 m 128,-1,1
 843 719 843 719 742 719 c 128,-1,2
 641 719 641 719 571 660 c 1,3,-1
 333 750 l 1,4,-1
 601 1456 l 1,5,-1
 1284 1456 l 1,6,-1
 1234 1217 l 1,7,-1
 765 1217 l 1,8,-1
 648 926 l 1,9,10
 691 948 691 948 800 948 c 0,11,12
 987 948 987 948 1101.5 846.5 c 128,-1,13
 1216 745 1216 745 1216 574 c 0,14,15
 1216 369.923076923 1216 369.923076923 1082 205 c 0,16,17
 991 93 991 93 863 33.5 c 128,-1,18
 735 -26 735 -26 618.5 -26 c 128,-1,19
 502 -26 502 -26 428 0.5 c 128,-1,20
 354 27 354 27 308 68.5 c 128,-1,21
 262 110 262 110 230 163.5 c 0,22,23
 172 260.46875 172 260.46875 172 366 c 1,24,-1
 447 412 l 1,25,26
 444.831238779 357.780969479 444.831238779 357.780969479 488 292 c 0,27,28
 509 260 509 260 550 238 c 128,-1,29
 591 216 591 216 644 216 c 0,30,31
 754 216 754 216 836 286 c 0,32,33
 947 380.756097561 947 380.756097561 947 522 c 0,34,0
 947 608 947 608 895 663.5 c 128,-1,1
EndSplineSet
EndChar

StartChar: six
Encoding: 54 54 22
Width: 1177
Flags: HW
HStem: -28 236<512.119 763.902> 660 242<660 839.589> 1436 20G<841.489 1143>
VStem: 191 272<258.156 525.628> 895 276<342.039 604.478>
LayerCount: 2
Back
SplineSet
387 429 m 4,0,1
 387 526 387 526 442.5 593 c 0
 498 660 498 660 591 660 c 0,2,3
 682 660 682 660 735 592.5 c 0
 788 525 788 525 788 433 c 0,4,5
 788 335 788 335 731.5 271.5 c 0
 675 208 675 208 589 208 c 0,6,7
 496 208 496 208 441.5 274.5 c 0
 387 341 387 341 387 429 c 4,0,1
677 886 m 4,8,9
 675 888 675 888 632 895 c 0
 589 902 589 902 585 902 c 0,10,11
 374 902 374 902 246 769.5 c 0
 118 637 118 637 118 429 c 0,12,13
 118 315 118 315 175 211.5 c 0
 232 108 232 108 342.5 40 c 0
 453 -28 453 -28 591 -28 c 0,14,15
 693 -28 693 -28 781.5 10.5 c 0
 870 49 870 49 929 113 c 0
 988 177 988 177 1022 260 c 0
 1056 343 1056 343 1056 431 c 0,16,17
 1056 640.275991339 1056 640.275991339 958.134240846 852.549100004 c 0
 953.06052192 863.554114407 953.06052192 863.554114407 924 924 c 0
EndSplineSet
Fore
SplineSet
797.5 275.5 m 0,0,1
 895 365.040816327 895 365.040816327 895 483 c 0,2,3
 895 560 895 560 849 610 c 128,-1,4
 803 660 803 660 717.5 660 c 128,-1,5
 632 660 632 660 560 591.5 c 0,6,7
 463 499.215277778 463 499.215277778 463 379 c 0,8,9
 463 303 463 303 509.5 255.5 c 128,-1,10
 556 208 556 208 640 208 c 128,-1,11
 724 208 724 208 797.5 275.5 c 0,0,1
727 897 m 1,12,13
 734 902 734 902 782 902 c 0,14,15
 963 902 963 902 1067 803.5 c 128,-1,16
 1171 705 1171 705 1171 542 c 0,17,18
 1171 298.039735099 1171 298.039735099 958.5 116.5 c 0,19,20
 883 52 883 52 782.5 12 c 128,-1,21
 682 -28 682 -28 578 -28 c 0,22,23
 401 -28 401 -28 296 78.5 c 128,-1,24
 191 185 191 185 191 340 c 0,25,26
 191 453.792207792 191 453.792207792 243 565.896103896 c 128,-1,27
 295 678 295 678 324.5 723 c 128,-1,28
 354 768 354 768 407.5 839.5 c 128,-1,29
 461 911 461 911 470 924 c 2,30,-1
 856 1456 l 1,31,-1
 1143 1456 l 1,32,-1
 727 897 l 1,12,13
EndSplineSet
EndChar

StartChar: seven
Encoding: 55 55 23
Width: 1177
Flags: HW
HStem: 0 21G<98 436.354> 1202 254<409 958>
LayerCount: 2
Back
SplineSet
1069.06 1456.13 m 1,0,-1
 514.048 0 l 1,1,-1
 331.776 0 l 1,2,-1
 847.872 1306.62 l 1,3,-1
 100.352 1306.62 l 1,4,-1
 100.352 1456.13 l 1,5,-1
 1069.06 1456.13 l 1,0,-1
EndSplineSet
Fore
SplineSet
1467 1456 m 1,0,-1
 422 0 l 1,1,-1
 98 0 l 1,2,-1
 958 1202 l 1,3,-1
 355 1202 l 1,4,-1
 409 1456 l 1,5,-1
 1467 1456 l 1,0,-1
EndSplineSet
EndChar

StartChar: eight
Encoding: 56 56 24
Width: 1177
Flags: HW
HStem: -28 221<488.782 791.58> 676 247<654.198 866> 1270 219<708.238 990.587>
VStem: 148 274<257.148 524.344> 351 269<954.277 1180.67> 941 272<337.358 605.473> 1023 274<1005.33 1235.98>
LayerCount: 2
Back
SplineSet
571.392 110.592 m 0,0,1
 662.008759596 110.592 662.008759596 110.592 737.747523232 148.669928259 c 0
 813.486286869 186.747856518 813.486286869 186.747856518 858.327143434 256.151405074 c 0
 903.168 325.554953631 903.168 325.554953631 903.168 411.648 c 0,2,3
 903.168 498.179637397 903.168 498.179637397 856.74010887 570.496909349 c 0
 810.312217739 642.814181302 810.312217739 642.814181302 735.238557797 682.879090651 c 0
 660.164897855 722.944 660.164897855 722.944 575.488 722.944 c 0,4,5
 486.554087619 722.944 486.554087619 722.944 412.283855238 682.191768116 c 0
 338.013622857 641.439536232 338.013622857 641.439536232 294.958811429 569.818898551 c 0
 251.904 498.19826087 251.904 498.19826087 251.904 411.648 c 0,6,7
 251.904 270.826663547 251.904 270.826663547 356.911541143 184.356045432 c 0
 447.164253468 110.970080425 447.164253468 110.970080425 571.392 110.592 c 0,0,1
317.44 1107.97 m 0,8,9
 317.44 995.976430939 317.44 995.976430939 391.056297146 926.02021547 c 0
 464.672594292 856.064 464.672594292 856.064 575.488 856.064 c 0,10,11
 685.688616954 856.064 685.688616954 856.064 758.588308477 924.914104167 c 0
 831.488 993.764208333 831.488 993.764208333 831.488 1107.97 c 0,12,13
 831.488 1227.57489057 831.488 1227.57489057 749.956958085 1297.22170148 c 0
 680.55307162 1355.41885606 680.55307162 1355.41885606 573.44 1355.78 c 0,14,15
 513.259074048 1355.78 513.259074048 1355.78 463.793845675 1335.01486096 c 0
 414.328617301 1314.24972192 414.328617301 1314.24972192 382.894154325 1279.38873279 c 0
 351.459691349 1244.52774366 351.459691349 1244.52774366 334.449845675 1200.35579846 c 0
 317.44 1156.18385326 317.44 1156.18385326 317.44 1107.97 c 0,8,9
573.44 1497.09 m 0,16,17
 760.395851852 1497.09 760.395851852 1497.09 874.789925926 1387.95077739 c 0
 989.184 1278.81155477 989.184 1278.81155477 989.184 1107.97 c 0,18,19
 989.184 1072.69173747 989.184 1072.69173747 983.527762977 1039.91468765 c 0
 977.871525954 1007.13763784 977.871525954 1007.13763784 970.240237023 982.58349594 c 0
 962.608948093 958.029354044 962.608948093 958.029354044 948.343762977 932.841836091 c 0
 934.078577861 907.654318138 934.078577861 907.654318138 923.584237023 892.21490219 c 0
 913.089896186 876.775486242 913.089896186 876.775486242 894.535762977 857.257453278 c 0
 875.981629768 837.739420315 875.981629768 837.739420315 866.944237023 829.49468344 c 0
 857.906844279 821.249946566 857.906844279 821.249946566 839.383762977 805.481351716 c 0
 820.860681675 789.712756866 820.860681675 789.712756866 817.152 786.432 c 1,20,21
 821.088639635 783.427722384 821.088639635 783.427722384 829.605015749 776.99072868 c 0
 846.628721473 764.123578956 846.628721473 764.123578956 856.204905145 756.656099974 c 0
 865.781088817 749.188620992 865.781088817 749.188620992 884.774643926 733.805951309 c 0
 903.768199035 718.423281626 903.768199035 718.423281626 915.863113653 706.609865952 c 0
 927.958028271 694.796450278 927.958028271 694.796450278 946.048854922 676.821734117 c 0
 964.139681573 658.847017955 964.139681573 658.847017955 976.14543869 642.372185275 c 0
 988.151195808 625.897352595 988.151195808 625.897352595 1002.73140556 605.01510964 c 0
 1017.3116153 584.132866685 1017.3116153 584.132866685 1026.62032647 562.681136684 c 0
 1035.92903765 541.229406682 1035.92903765 541.229406682 1044.39074204 517.124156619 c 0
 1052.85244644 493.018906557 1052.85244644 493.018906557 1056.85622322 466.274798919 c 0
 1060.86 439.530691282 1060.86 439.530691282 1060.86 411.648 c 0,22,23
 1060.86 315.043867217 1060.86 315.043867217 1021.16016993 231.483358078 c 0
 981.460339864 147.922848939 981.460339864 147.922848939 914.514455068 90.9808387972 c 0
 847.568570272 34.0388286557 847.568570272 34.0388286557 758.378919932 1.65956432784 c 0
 669.189269592 -30.7197 669.189269592 -30.7197 571.392 -30.7197 c 0,24,25
 371.522273588 -30.7197 371.522273588 -30.7197 232.865136794 94.399785503 c 0
 94.208 219.519271006 94.208 219.519271006 94.208 411.648 c 0,26,27
 94.208 619.844682927 94.208 619.844682927 329.728 786.432 c 1,28,29
 323.910980822 791.686081838 323.910980822 791.686081838 311.308788579 802.684063738 c 0
 289.407010576 821.797830087 289.407010576 821.797830087 277.369281218 833.263298888 c 0
 265.33155186 844.728767689 265.33155186 844.728767689 244.305511535 867.40693515 c 0
 223.279471211 890.085102611 223.279471211 890.085102611 211.044743806 911.970829789 c 0
 198.810016402 933.856556967 198.810016402 933.856556967 185.483188579 963.597082157 c 0
 172.156360756 993.337607346 172.156360756 993.337607346 165.950180378 1029.82246671 c 0
 159.744 1066.30732608 159.744 1066.30732608 159.744 1107.97 c 0,30,31
 159.744 1189.61233804 159.744 1189.61233804 189.557084803 1261.12690009 c 0
 219.370169606 1332.64146214 219.370169606 1332.64146214 272.586915197 1384.79231866 c 0
 325.803660789 1436.94317518 325.803660789 1436.94317518 403.701084803 1467.01658759 c 0
 481.598508817 1497.09 481.598508817 1497.09 573.44 1497.09 c 0,16,17
EndSplineSet
Fore
SplineSet
478 243.5 m 128,-1,1
 534 193 534 193 639 193 c 128,-1,2
 744 193 744 193 828.5 260 c 128,-1,3
 913 327 913 327 936 433 c 0,4,5
 941 454 941 454 941 482 c 0,6,7
 941 568 941 568 881.5 622 c 128,-1,8
 822 676 822 676 718 676 c 128,-1,9
 614 676 614 676 532.5 608.5 c 128,-1,10
 451 541 451 541 428 433 c 0,11,12
 422 403 422 403 422 377 c 0,13,0
 422 294 422 294 478 243.5 c 128,-1,1
701.5 1221 m 0,14,15
 620 1153.88235294 620 1153.88235294 620 1048 c 0,16,17
 620 923 620 923 786 923 c 0,18,19
 875 923 875 923 937.5 965.5 c 128,-1,20
 1000 1008 1000 1008 1019 1095 c 0,21,22
 1023 1115 1023 1115 1023 1138 c 0,23,24
 1023 1199 1023 1199 982 1234.5 c 128,-1,25
 941 1270 941 1270 851 1270 c 128,-1,26
 761 1270 761 1270 701.5 1221 c 0,14,15
545 1381 m 128,-1,28
 694 1489 694 1489 889 1489 c 128,-1,29
 1084 1489 1084 1489 1190.5 1403 c 128,-1,30
 1297 1317 1297 1317 1297 1176 c 0,31,32
 1297 1071.84482759 1297 1071.84482759 1257.5 1004.42241379 c 128,-1,33
 1218 937 1218 937 1177.5 901.5 c 0,34,35
 1112.59940645 844.611825407 1112.59940645 844.611825407 1076.29970323 824.305912704 c 128,-1,36
 1040 804 1040 804 1037 802 c 1,37,38
 1105 783 1105 783 1159 701 c 128,-1,39
 1213 619 1213 619 1213 513 c 0,40,41
 1213 474 1213 474 1204 433 c 0,42,43
 1173 285 1173 285 1078.5 179 c 0,44,45
 893.95754717 -28 893.95754717 -28 580 -28 c 0,46,47
 375 -28 375 -28 261.5 67.5 c 128,-1,48
 148 163 148 163 148 325 c 0,49,50
 148 518.574162679 148 518.574162679 291.5 671 c 0,51,52
 396 782 396 782 483 802 c 1,53,54
 351 883.714285714 351 883.714285714 351 1031 c 0,55,56
 351 1063 351 1063 358 1095 c 0,57,27
 396 1273 396 1273 545 1381 c 128,-1,28
EndSplineSet
EndChar

StartChar: nine
Encoding: 57 57 25
Width: 1177
Flags: HW
HStem: 0 21G<340 641.511> 554 242<643.911 823> 1248 236<719.098 970.894>
VStem: 313 275<851.522 1113.96> 1020 273<930.372 1197.84>
LayerCount: 2
Back
SplineSet
282.624 1052.67 m 0,0,1
 282.624 1004.60602621 282.624 1004.60602621 297.078024609 959.350521276 c 0
 311.532049218 914.095016343 311.532049218 914.095016343 338.899703391 876.688214724 c 0
 366.267357565 839.281413105 366.267357565 839.281413105 403.213576609 811.108985276 c 0
 440.159795653 782.936557448 440.159795653 782.936557448 487.797495391 767.276278724 c 0
 535.43519513 751.616 535.43519513 751.616 587.776 751.616 c 0,2,3
 673.591690834 751.616 673.591690834 751.616 742.349922709 794.911295238 c 0
 811.108154583 838.206590476 811.108154583 838.206590476 846.898077291 905.612704762 c 0
 882.688 973.018819048 882.688 973.018819048 882.688 1048.58 c 0,4,5
 882.688 1131.46223803 882.688 1131.46223803 841.827055122 1199.17555951 c 0
 800.966110244 1266.88888098 800.966110244 1266.88888098 733.085278211 1304.16444049 c 0
 665.204446178 1341.44 665.204446178 1341.44 585.729 1341.44 c 0,6,7
 518.966417136 1341.44 518.966417136 1341.44 461.001387231 1316.22473719 c 0
 403.036357326 1291.00947438 403.036357326 1291.00947438 364.663159644 1250.01291906 c 0
 326.289961962 1209.01636373 326.289961962 1209.01636373 304.456980981 1157.43879969 c 0
 282.624 1105.86123565 282.624 1105.86123565 282.624 1052.67 c 0,0,1
724.992 632.832 m 1,8,9
 684.797305263 616.388715789 684.797305263 616.388715789 656.583795489 609.250357895 c 0
 628.370285714 602.112 628.370285714 602.112 587.776 602.112 c 0,10,11
 465.308181895 602.112 465.308181895 602.112 360.892378807 661.202691429 c 0
 256.476575719 720.293382857 256.476575719 720.293382857 194.79828786 824.279308571 c 0
 133.12 928.265234286 133.12 928.265234286 133.12 1052.67 c 0,12,13
 133.12 1114.80609231 133.12 1114.80609231 153.512749892 1177.56262154 c 0
 173.905499785 1240.31915077 173.905499785 1240.31915077 214.029522108 1296.41809846 c 0
 254.15354443 1352.51704615 254.15354443 1352.51704615 308.374317892 1396.12390154 c 0
 362.595091355 1439.73075692 362.595091355 1439.73075692 435.737810108 1465.33537846 c 0
 508.88052886 1490.94 508.88052886 1490.94 589.824 1490.94 c 0,14,15
 667.443324868 1490.94 667.443324868 1490.94 737.741633608 1466.1223732 c 0
 808.039942349 1441.3047464 808.039942349 1441.3047464 860.877102392 1398.3342668 c 0
 913.714262434 1355.36378719 913.714262434 1355.36378719 952.829697608 1299.5305332 c 0
 991.945132783 1243.69727921 991.945132783 1243.69727921 1012.06756639 1179.6408268 c 0
 1032.19 1115.58437439 1032.19 1115.58437439 1032.19 1050.62 c 0,16,17
 1032.19 1001.78457001 1032.19 1001.78457001 1022.50644027 950.646285778 c 0
 1012.82288055 899.508001547 1012.82288055 899.508001547 999.634226393 859.952880889 c 0
 986.445572238 820.39776023 986.445572238 820.39776023 965.371884718 774.975211704 c 0
 944.298197199 729.552663178 944.298197199 729.552663178 929.244670837 702.713029037 c 0
 914.191144475 675.873394895 914.191144475 675.873394895 892.535995829 638.897470963 c 0
 870.880847184 601.921547031 870.880847184 601.921547031 864.256 589.824 c 2,18,-1
 509.952 -55.2959 l 1,19,-1
 382.976 20.4805 l 1,20,-1
 724.992 632.832 l 1,8,9
EndSplineSet
Fore
SplineSet
685.5 1180.5 m 0,0,1
 588 1090.95918367 588 1090.95918367 588 973 c 0,2,3
 588 896 588 896 634 846 c 128,-1,4
 680 796 680 796 765.5 796 c 128,-1,5
 851 796 851 796 923 864.5 c 0,6,7
 1020 956.784722222 1020 956.784722222 1020 1077 c 0,8,9
 1020 1153 1020 1153 973.5 1200.5 c 128,-1,10
 927 1248 927 1248 843 1248 c 128,-1,11
 759 1248 759 1248 685.5 1180.5 c 0,0,1
757 559 m 1,12,13
 750 554 750 554 702 554 c 0,14,15
 521 554 521 554 417 652.5 c 128,-1,16
 313 751 313 751 313 914 c 0,17,18
 313 1158.81456954 313 1158.81456954 524.5 1339.5 c 0,19,20
 600 1404 600 1404 700.5 1444 c 128,-1,21
 801 1484 801 1484 905 1484 c 0,22,23
 1082 1484 1082 1484 1187.5 1377.5 c 128,-1,24
 1293 1271 1293 1271 1293 1116 c 0,25,26
 1293 1001.85714286 1293 1001.85714286 1241 890.428571429 c 128,-1,27
 1189 779 1189 779 1159 733.5 c 128,-1,28
 1129 688 1129 688 1076 617 c 128,-1,29
 1023 546 1023 546 1013 532 c 2,30,-1
 627 0 l 1,31,-1
 340 0 l 1,32,-1
 757 559 l 1,12,13
EndSplineSet
EndChar

StartChar: colon
Encoding: 58 58 26
Width: 440
Flags: HW
HStem: -33 328<171.75 340.647> 695 328<326.203 495.647>
VStem: 92 486
LayerCount: 2
Fore
SplineSet
88 97 m 0,0,1
 88 184.230769231 88 184.230769231 155.5 239.615384615 c 128,-1,2
 223 295 223 295 286.5 295 c 128,-1,3
 350 295 350 295 387 258.5 c 128,-1,4
 424 222 424 222 424 166 c 0,5,6
 424 77.7692307692 424 77.7692307692 356.5 22.3846153846 c 128,-1,7
 289 -33 289 -33 226 -33 c 128,-1,8
 163 -33 163 -33 125.5 4 c 128,-1,9
 88 41 88 41 88 97 c 0,0,1
243 825 m 0,10,11
 243 912.103448276 243 912.103448276 310 967.551724138 c 128,-1,12
 377 1023 377 1023 440.5 1023 c 128,-1,13
 504 1023 504 1023 541 986.5 c 128,-1,14
 578 950 578 950 578 894 c 0,15,16
 578 804.948717949 578 804.948717949 511 749.974358974 c 128,-1,17
 444 695 444 695 381 695 c 128,-1,18
 318 695 318 695 280.5 732 c 128,-1,19
 243 769 243 769 243 825 c 0,10,11
EndSplineSet
EndChar

StartChar: semicolon
Encoding: 59 59 27
Width: 440
Flags: HW
HStem: 696 328<326.75 495.647>
LayerCount: 2
Fore
SplineSet
243 826 m 0,0,1
 243 913.230769231 243 913.230769231 310.5 968.615384615 c 128,-1,2
 378 1024 378 1024 441.5 1024 c 128,-1,3
 505 1024 505 1024 542 987.5 c 128,-1,4
 579 951 579 951 579 895 c 0,5,6
 579 806.769230769 579 806.769230769 511.5 751.384615385 c 128,-1,7
 444 696 444 696 381 696 c 128,-1,8
 318 696 318 696 280.5 733 c 128,-1,9
 243 770 243 770 243 826 c 0,0,1
390 260 m 128,-1,11
 424 222 424 222 424 164.208955224 c 128,-1,12
 424 106.417910448 424 106.417910448 383 34.2089552239 c 128,-1,13
 342 -38 342 -38 301.5 -83 c 0,14,15
 222.537735849 -170.735849057 222.537735849 -170.735849057 169 -205 c 1,16,-1
 105 -162 l 1,17,18
 120 -143 120 -143 145 -102.5 c 0,19,20
 176 -52.28 176 -52.28 176 -29 c 1,21,22
 139 -20 139 -20 114.5 10.5 c 128,-1,23
 90 41 90 41 90 79 c 128,-1,24
 90 117 90 117 95 137 c 0,25,26
 108 197 108 197 166.5 247.5 c 128,-1,27
 225 298 225 298 290.5 298 c 128,-1,10
 356 298 356 298 390 260 c 128,-1,11
EndSplineSet
EndChar

StartChar: less
Encoding: 60 60 28
Width: 864
Flags: HW
LayerCount: 2
Back
SplineSet
581.632 22.5283 m 1,0,-1
 73.7275 634.88 l 1,1,-1
 581.632 1234.94 l 1,2,-1
 780.288 1234.94 l 1,3,-1
 270.336 632.832 l 1,4,-1
 780.288 22.5283 l 1,5,-1
 581.632 22.5283 l 1,0,-1
EndSplineSet
Fore
SplineSet
468 24 m 1,0,-1
 180 636 l 1,1,-1
 726 1237 l 1,2,-1
 1058 1237 l 1,3,-1
 511 633 l 1,4,-1
 798 24 l 1,5,-1
 468 24 l 1,0,-1
EndSplineSet
EndChar

StartChar: equal
Encoding: 61 61 29
Width: 907
Flags: HW
HStem: 309 240<172 922> 676 239<249 1000>
LayerCount: 2
Back
SplineSet
55.2959 499.712 m 1,0,-1
 856.064 499.712 l 1,1,-1
 856.064 358.4 l 1,2,-1
 55.2959 358.4 l 1,3,-1
 55.2959 499.712 l 1,0,-1
55.2959 866.304 m 1,4,-1
 856.064 866.304 l 1,5,-1
 856.064 724.992 l 1,6,-1
 55.2959 724.992 l 1,7,-1
 55.2959 866.304 l 1,4,-1
EndSplineSet
Fore
SplineSet
172 549 m 1,0,-1
 973 549 l 1,1,-1
 922 309 l 1,2,-1
 121 309 l 1,3,-1
 172 549 l 1,0,-1
249 915 m 1,4,-1
 1050 915 l 1,5,-1
 1000 676 l 1,6,-1
 199 676 l 1,7,-1
 249 915 l 1,4,-1
EndSplineSet
EndChar

StartChar: greater
Encoding: 62 62 30
Width: 864
Flags: HW
LayerCount: 2
Back
SplineSet
280.576 20.4805 m 1,0,-1
 81.9199 20.4805 l 1,1,-1
 589.824 632.832 l 1,2,-1
 81.9199 1234.94 l 1,3,-1
 280.576 1234.94 l 1,4,-1
 786.432 634.88 l 1,5,-1
 280.576 20.4805 l 1,0,-1
EndSplineSet
Fore
SplineSet
397 20 m 1,0,-1
 59 20 l 1,1,-1
 611 632 l 1,2,-1
 318 1235 l 1,3,-1
 657 1235 l 1,4,-1
 942 636 l 1,5,-1
 397 20 l 1,0,-1
EndSplineSet
EndChar

StartChar: question
Encoding: 63 63 31
Width: 1034
Flags: HW
HStem: -33 328<450.75 619.647> 1253 244<641.348 907.766>
VStem: 939 287<1004.33 1219.23>
LayerCount: 2
Back
SplineSet
264.745 1093.14 m 0,0,1
 264.745 1173.09874893 264.745 1173.09874893 336.309762606 1231.32937446 c 0
 407.874525212 1289.56 407.874525212 1289.56 508.14 1289.56 c 0,2,3
 536.490521995 1289.56 536.490521995 1289.56 563.879543985 1284.28050768 c 0
 591.268565976 1279.00101536 591.268565976 1279.00101536 615.195237356 1269.13955063 c 0
 639.121908735 1259.2780859 639.121908735 1259.2780859 660.294844277 1245.684531 c 0
 681.467779819 1232.0909761 681.467779819 1232.0909761 698.088216947 1214.94444859 c 0
 714.708654076 1197.79792108 714.708654076 1197.79792108 726.736313665 1178.5012657 c 0
 738.763973253 1159.20461031 738.763973253 1159.20461031 745.148986627 1137.38398212 c 0
 751.534 1115.56335392 751.534 1115.56335392 751.534 1093.14 c 0,4,5
 751.534 1054.06831908 751.534 1054.06831908 732.248621615 1018.48595943 c 0
 712.96324323 982.903599783 712.96324323 982.903599783 680.368347135 957.170696821 c 0
 647.77345104 931.437793858 647.77345104 931.437793858 602.702309115 916.212396929 c 0
 557.63116719 900.987 557.63116719 900.987 508.14 900.987 c 0,6,7
 407.375170166 900.987 407.375170166 900.987 336.060085083 957.288031513 c 0
 264.745 1013.58906303 264.745 1013.58906303 264.745 1093.14 c 0,0,1
51.2402 1093.14 m 0,8,9
 51.2402 1202.11835857 51.2402 1202.11835857 111.83589995 1294.58875631 c 0
 172.431599901 1387.05915405 172.431599901 1387.05915405 276.705966716 1440.79457703 c 0
 380.980333532 1494.53 380.980333532 1494.53 503.869 1494.53 c 0,10,11
 577.577552415 1494.53 577.577552415 1494.53 646.651504052 1474.26341235 c 0
 715.725455689 1453.9968247 715.725455689 1453.9968247 771.363735948 1416.84562765 c 0
 827.002016207 1379.69443059 827.002016207 1379.69443059 868.895984052 1330.35477235 c 0
 910.789951896 1281.01511411 910.789951896 1281.01511411 933.643975948 1219.76018765 c 0
 956.498 1158.50526118 956.498 1158.50526118 956.498 1093.14 c 0,12,13
 956.498 984.163061185 956.498 984.163061185 895.902279391 891.69334863 c 0
 835.306558781 799.223636074 835.306558781 799.223636074 731.032053943 745.488318037 c 0
 626.757549104 691.753 626.757549104 691.753 503.869 691.753 c 0,14,15
 380.980456129 691.753 380.980456129 691.753 276.705997366 745.488320017 c 0
 172.431538602 799.223640034 172.431538602 799.223640034 111.835869301 891.69334665 c 0
 51.2402 984.163053266 51.2402 984.163053266 51.2402 1093.14 c 0,8,9
EndSplineSet
Fore
SplineSet
367 97 m 0,0,1
 367 184.230769231 367 184.230769231 434.5 239.615384615 c 128,-1,2
 502 295 502 295 565.5 295 c 128,-1,3
 629 295 629 295 666 258.5 c 128,-1,4
 703 222 703 222 703 166 c 0,5,6
 703 77.7692307692 703 77.7692307692 635.5 22.3846153846 c 128,-1,7
 568 -33 568 -33 505 -33 c 128,-1,8
 442 -33 442 -33 404.5 4 c 128,-1,9
 367 41 367 41 367 97 c 0,0,1
752 530 m 2,10,-1
 724 399 l 1,11,-1
 456 399 l 1,12,-1
 497 594 l 2,13,14
 522.321646341 715.182164634 522.321646341 715.182164634 659 807.5 c 0,15,16
 716 846 716 846 773 884.5 c 0,17,18
 909.774794694 976.882975363 909.774794694 976.882975363 935 1094 c 0,19,20
 939 1111 939 1111 939 1130 c 0,21,22
 939 1193 939 1193 890 1223 c 128,-1,23
 841 1253 841 1253 766 1253 c 128,-1,24
 691 1253 691 1253 628.5 1200.5 c 128,-1,25
 566 1148 566 1148 542 1069 c 1,26,-1
 283 1110 l 1,27,28
 338 1279 338 1279 482.5 1388 c 128,-1,29
 627 1497 627 1497 818 1497 c 0,30,31
 1056.65068493 1497 1056.65068493 1497 1168.5 1355 c 0,32,33
 1226 1282 1226 1282 1226 1181 c 0,34,35
 1226 1073.4 1226 1073.4 1180.5 985.2 c 128,-1,36
 1135 897 1135 897 1096 855 c 128,-1,37
 1057 813 1057 813 1013 778 c 128,-1,38
 969 743 969 743 926.5 715 c 128,-1,39
 884 687 884 687 848 660 c 0,40,41
 766.5 598.875 766.5 598.875 752 530 c 2,10,-1
EndSplineSet
EndChar

StartChar: at
Encoding: 64 64 32
Width: 1737
Flags: HW
HStem: -33 166<691.157 1118.38> 346 203<883.564 1112.23> 373 219<1424.28 1553.14> 905 189<934.331 1172.23> 1323 172<928.988 1367.2>
VStem: 217 204<398.357 824.563> 619 223<590.234 812.518> 1207 217<649.217 867.662> 1627 211<678.087 1074.34>
LayerCount: 2
Back
SplineSet
1165.31 212.992 m 1,0,-1
 1243.14 110.592 l 1,1,2
 1042.79409621 -34.8164 1042.79409621 -34.8164 794.624 -34.8164 c 0,3,4
 536.971131827 -34.8164 536.971131827 -34.8164 333.279112146 119.654676538 c 0
 145.820339361 261.815171995 145.820339361 261.815171995 70.8476303826 484.547435259 c 0
 30.8876740897 604.310250108 30.8876740897 604.310250108 30.7197 731.136 c 0,5,6
 30.7197 886.642466156 30.7197 886.642466156 90.9382845175 1028.02830686 c 0
 151.156869035 1169.41414756 151.156869035 1169.41414756 253.221312358 1271.74450564 c 0
 355.28575568 1374.07486372 355.28575568 1374.07486372 496.890490767 1434.55743186 c 0
 638.495225855 1495.04 638.495225855 1495.04 794.624 1495.04 c 0,7,8
 950.03718039 1495.04 950.03718039 1495.04 1091.50179048 1434.54177113 c 0
 1232.96640057 1374.04354226 1232.96640057 1374.04354226 1335.24992827 1271.76016637 c 0
 1437.53345596 1169.47679049 1437.53345596 1169.47679049 1498.03172798 1028.01264613 c 0
 1558.53 886.548501772 1558.53 886.548501772 1558.53 731.136 c 0,9,10
 1558.53 698.754102714 1558.53 698.754102714 1551.90810722 667.14986448 c 0
 1545.28621445 635.545626245 1545.28621445 635.545626245 1533.36320137 607.82613552 c 0
 1521.44018829 580.106644796 1521.44018829 580.106644796 1504.61931816 554.63786448 c 0
 1487.79844803 529.169084164 1487.79844803 529.169084164 1467.66648262 508.37013552 c 0
 1447.53451721 487.571186877 1447.53451721 487.571186877 1424.21099785 470.54186448 c 0
 1400.88747849 453.512542082 1400.88747849 453.512542082 1376.24288887 441.93813552 c 0
 1351.59829926 430.363728959 1351.59829926 430.363728959 1325.46845879 424.07786448 c 0
 1299.33861832 417.792 1299.33861832 417.792 1273.86 417.792 c 0,11,12
 1219.27809143 417.792 1219.27809143 417.792 1159.29415701 446.162416094 c 0
 1099.31022259 474.532832188 1099.31022259 474.532832188 1058.82 518.145 c 1,13,14
 1014.02882619 457.911896333 1014.02882619 457.911896333 944.050483252 423.515948167 c 0
 874.07214031 389.12 874.07214031 389.12 794.624 389.12 c 0,15,16
 701.964770975 389.12 701.964770975 389.12 623.14985941 434.983473923 c 0
 544.334947846 480.846947846 544.334947846 480.846947846 498.471473923 559.66185941 c 0
 452.608 638.476770975 452.608 638.476770975 452.608 731.136 c 0,17,18
 452.608 822.831496599 452.608 822.831496599 498.452922839 901.173540816 c 0
 544.297845678 979.515585034 544.297845678 979.515585034 623.168410494 1025.30779252 c 0
 702.03897531 1071.1 702.03897531 1071.1 794.624 1071.1 c 0,19,20
 886.126376554 1071.1 886.126376554 1071.1 961.201427472 1023.26325275 c 0
 1036.27647839 975.426505491 1036.27647839 975.426505491 1077.24323919 897.756747255 c 0
 1118.21 820.086989019 1118.21 820.086989019 1118.21 731.136 c 0,21,22
 1118.21 688.143659626 1118.21 688.143659626 1138.12592593 645.635914907 c 0
 1158.04185185 603.128170187 1158.04185185 603.128170187 1193.18074074 574.972085093 c 0
 1228.31962963 546.816 1228.31962963 546.816 1267.71 546.816 c 0,23,24
 1332.03244186 546.816 1332.03244186 546.816 1380.76622093 600.549460874 c 0
 1429.5 654.282921748 1429.5 654.282921748 1429.5 731.136 c 0,25,26
 1429.5 856.958476143 1429.5 856.958476143 1380.19215771 973.80035019 c 0
 1330.88431541 1090.64222424 1330.88431541 1090.64222424 1246.96840479 1177.36183731 c 0
 1163.05249418 1264.08145038 1163.05249418 1264.08145038 1044.51378271 1316.07072519 c 0
 925.975071234 1368.06 925.975071234 1368.06 794.624 1368.06 c 0,27,28
 663.168450386 1368.06 663.168450386 1368.06 544.394741731 1315.98766597 c 0
 425.621033076 1263.91533195 425.621033076 1263.91533195 341.269258269 1176.86889653 c 0
 256.917483462 1089.82246111 256.917483462 1089.82246111 207.306741731 972.053290973 c 0
 157.696 854.284120838 157.696 854.284120838 157.696 727.04 c 0,29,30
 157.696 600.577552157 157.696 600.577552157 207.29757059 483.850956609 c 0
 256.899141181 367.124361062 256.899141181 367.124361062 341.27842941 281.045174641 c 0
 425.657717639 194.965988219 425.657717639 194.965988219 544.38557059 143.563094109 c 0
 663.113423542 92.1602 663.113423542 92.1602 794.624 92.1602 c 0,31,32
 887.098128367 92.1602 887.098128367 92.1602 988.845241807 126.343802322 c 0
 1090.59235525 160.527404644 1090.59235525 160.527404644 1165.31 212.992 c 1,0,-1
581.632 731.136 m 0,33,34
 581.632 639.002947368 581.632 639.002947368 644.322791946 577.549473684 c 0
 707.013583893 516.096 707.013583893 516.096 794.624 516.096 c 0,35,36
 884.203921569 516.096 884.203921569 516.096 938.741960784 578.367044776 c 0
 993.28 640.638089552 993.28 640.638089552 993.28 731.136 c 0,37,38
 993.28 785.308052288 993.28 785.308052288 965.21656181 835.303346405 c 0
 937.15312362 885.298640523 937.15312362 885.298640523 890.954104857 915.737320261 c 0
 844.755086093 946.176 844.755086093 946.176 794.624 946.176 c 0,39,40
 710.460631579 946.176 710.460631579 946.176 646.046315789 882.598233766 c 0
 581.632 819.020467532 581.632 819.020467532 581.632 731.136 c 0,33,34
EndSplineSet
Fore
SplineSet
1424 811 m 1,0,-1
 1412 703 l 1,1,2
 1412 657 1412 657 1429.5 624.5 c 128,-1,3
 1447 592 1447 592 1482.5 592 c 128,-1,4
 1518 592 1518 592 1559 641 c 0,5,6
 1627 722.268292683 1627 722.268292683 1627 876 c 0,7,8
 1627 1069 1627 1069 1496.5 1196 c 128,-1,9
 1366 1323 1366 1323 1156 1323 c 0,10,11
 995 1323 995 1323 841 1243.5 c 128,-1,12
 687 1164 687 1164 577.5 1027 c 0,13,14
 421 831.196347032 421 831.196347032 421 616.098173516 c 128,-1,15
 421 401 421 401 556 267 c 128,-1,16
 691 133 691 133 903 133 c 0,17,18
 1001 133 1001 133 1105.5 171 c 128,-1,19
 1210 209 1210 209 1279 260 c 1,20,-1
 1360 113 l 1,21,22
 1240 39 1240 39 1125.5 3 c 128,-1,23
 1011 -33 1011 -33 868 -33 c 128,-1,24
 725 -33 725 -33 603.5 12.5 c 128,-1,25
 482 58 482 58 397.5 137.5 c 128,-1,26
 313 217 313 217 265 329.5 c 128,-1,27
 217 442 217 442 217 547.5 c 0,28,29
 217 865.958188153 217 865.958188153 422.5 1118 c 0,30,31
 566 1294 566 1294 770.5 1394.5 c 128,-1,32
 975 1495 975 1495 1193 1495 c 0,33,34
 1480 1495 1480 1495 1659 1330.5 c 128,-1,35
 1838 1166 1838 1166 1838 910 c 0,36,37
 1838 649.305084746 1838 649.305084746 1670 487 c 0,38,39
 1552 373 1552 373 1434 373 c 0,40,41
 1378 373 1378 373 1329.5 405.5 c 128,-1,42
 1281 438 1281 438 1259 500 c 1,43,44
 1141 346 1141 346 949 346 c 0,45,46
 804 346 804 346 711.5 433.5 c 128,-1,47
 619 521 619 521 619 654 c 0,48,49
 619 849.752650177 619 849.752650177 800.5 987 c 0,50,51
 942 1094 942 1094 1096.5 1094 c 128,-1,52
 1251 1094 1251 1094 1337.5 1012.5 c 128,-1,53
 1424 931 1424 931 1424 811 c 1,0,-1
927.5 857.5 m 0,54,55
 842 794.534883721 842 794.534883721 842 692 c 0,56,57
 842 629 842 629 884.5 589 c 128,-1,58
 927 549 927 549 998 549 c 128,-1,59
 1069 549 1069 549 1127 605.5 c 128,-1,60
 1185 662 1185 662 1203 745 c 0,61,62
 1207 767 1207 767 1207 778 c 0,63,64
 1207 835 1207 835 1166.5 870 c 128,-1,65
 1126 905 1126 905 1059 905 c 128,-1,66
 992 905 992 905 927.5 857.5 c 0,54,55
EndSplineSet
EndChar

StartChar: m
Encoding: 109 109 33
Width: 1575
Flags: HW
HStem: 0 21G<119 381.267 666 928.267 1212 1474.25> 868 234<647 981.5 1195 1483> 1053 20G<342.75 605>
VStem: 1352 280<552.972 852.368>
LayerCount: 2
Back
SplineSet
346 862 m 4,0,1
 364 900 364 900 392.5 939 c 0
 421 978 421 978 458.5 1016 c 0
 496 1054 496 1054 543 1078 c 0
 590 1102 590 1102 636 1102 c 0,2,3
 924 1102 924 1102 924 539 c 2,4,-1
 924 0 l 1,5,-1
 666 0 l 1,6,-1
 666 539 l 2,7,8
 666 695 666 695 630.5 781.5 c 0
 595 868 595 868 522 868 c 0,9,10
 449 868 449 868 413.5 781.5 c 0
 378 695 378 695 378 539 c 2,11,-1
 378 0 l 1
EndSplineSet
Fore
SplineSet
924 0 m 1,0,-1
 666 0 l 1,1,-1
 781 539 l 2,2,3
 806 655 806 655 806 729 c 0,4,5
 806 868 806 868 705 868 c 0,6,7
 623 868 623 868 575 786 c 128,-1,8
 527 704 527 704 492 539 c 2,9,-1
 377 0 l 1,10,-1
 119 0 l 1,11,-1
 347 1073 l 1,12,-1
 605 1073 l 1,13,-1
 571 915 l 1,14,15
 626 985 626 985 709.5 1043.5 c 128,-1,16
 793 1102 793 1102 880 1102 c 0,17,18
 1006.09375 1102 1006.09375 1102 1052 989 c 0,19,20
 1075 932.384615385 1075 932.384615385 1075 862 c 1,21,22
 1161.10248802 985.335996348 1161.10248802 985.335996348 1285 1059.5 c 0,23,24
 1356 1102 1356 1102 1416 1102 c 0,25,26
 1518 1102 1518 1102 1575 1033.5 c 128,-1,27
 1632 965 1632 965 1632 835 c 0,28,29
 1632 763 1632 763 1612 668 c 2,30,-1
 1470 0 l 1,31,-1
 1212 0 l 1,32,-1
 1327 539 l 2,33,34
 1352 655 1352 655 1352 729 c 0,35,36
 1352 868 1352 868 1252 868 c 0,37,38
 1171 868 1171 868 1122.5 785.5 c 128,-1,39
 1074 703 1074 703 1039 539 c 2,40,-1
 924 0 l 1,0,-1
EndSplineSet
EndChar

StartChar: n
Encoding: 110 110 34
Width: 1121
Flags: HW
HStem: 0 21G<119 381.254 756 1018.25> 867 235<753.921 993.5> 1054 20G<342.754 605>
VStem: 893 278<530.461 843.055>
LayerCount: 2
Back
SplineSet
270.336 0 m 9,0,-1
 118.784 0 l 1,1,-1
 118.784 1073.15 l 1,2,-1
 270.336 1073.15 l 1,3,-1
 270.336 921.6 l 1,4,5
 273.874299037 925.554569512 273.874299037 925.554569512 281.022147194 933.591439901 c 0
 308.237933274 964.192222187 308.237933274 964.192222187 323.562084274 980.339157749 c 0
 338.886235274 996.48609331 338.886235274 996.48609331 368.852010373 1022.25506716 c 0
 398.817785471 1048.02404101 398.817785471 1048.02404101 424.257553334 1061.28016248 c 0
 449.697321197 1074.53628395 449.697321197 1074.53628395 486.585007262 1085.10814198 c 0
 523.472693326 1095.68 523.472693326 1095.68 563.2 1095.68 c 0,6,7
 638.000083478 1095.68 638.000083478 1095.68 696.865658435 1070.99135556 c 0
 755.731233391 1046.30271111 755.731233391 1046.30271111 794.389637565 1003.73094844 c 0
 833.048041739 961.15918577 833.048041739 961.15918577 858.346362435 900.335611557 c 0
 883.64468313 839.512037345 883.64468313 839.512037345 894.430341565 771.143684443 c 0
 905.216 702.77533154 905.216 702.77533154 905.216 622.592 c 2,8,-1
 905.216 0 l 1,9,-1
 753.664 0 l 1,10,-1
 753.664 618.496 l 2,11,12
 753.664 705.690498246 753.664 705.690498246 732.163313916 782.630624561 c 0
 710.662627832 859.570750877 710.662627832 859.570750877 668.668686084 909.017375439 c 0
 626.674744337 958.464 626.674744337 958.464 573.44 958.464 c 0,13,14
 535.395222069 958.464 535.395222069 958.464 493.277042759 944.158583467 c 0
 451.158863448 929.853166933 451.158863448 929.853166933 411.775117241 902.482056533 c 0
 372.391371034 875.110946133 372.391371034 875.110946133 340.578162759 839.300983467 c 0
 308.764954483 803.4910208 308.764954483 803.4910208 289.550477241 756.336776533 c 0
 270.336 709.182532267 270.336 709.182532267 270.336 659.456 c 2,15,-1
 270.336 0 l 9,0,-1
EndSplineSet
Fore
SplineSet
377 0 m 9,0,-1
 119 0 l 1,1,-1
 347 1074 l 1,2,-1
 605 1074 l 1,3,-1
 571 912 l 1,4,5
 633 994 633 994 732 1048 c 128,-1,6
 831 1102 831 1102 930.5 1102 c 128,-1,7
 1030 1102 1030 1102 1100.5 1021 c 128,-1,8
 1171 940 1171 940 1171 798 c 0,9,10
 1171 738 1171 738 1156 668 c 2,11,-1
 1014 0 l 1,12,-1
 756 0 l 1,13,-1
 870 537 l 2,14,15
 893 643 893 643 893 722 c 128,-1,16
 893 801 893 801 859 834 c 128,-1,17
 825 867 825 867 775 867 c 128,-1,18
 725 867 725 867 696 859 c 128,-1,19
 667 851 667 851 636 829 c 128,-1,20
 605 807 605 807 579.5 771 c 0,21,22
 524.410714286 693.226890756 524.410714286 693.226890756 491 536 c 2,23,-1
 377 0 l 9,0,-1
EndSplineSet
EndChar

StartChar: o
Encoding: 111 111 35
Width: 1105
Flags: HMW
LayerCount: 2
Back
SplineSet
92.1602 536.576 m 0,0,1
 92.1602 631.239715412 92.1602 631.239715412 109.634793023 715.541942426 c 0
 127.109386047 799.844169441 127.109386047 799.844169441 162.028619777 868.986553574 c 0
 196.947853507 938.128937706 196.947853507 938.128937706 246.342780223 988.301686426 c 0
 295.73770694 1038.47443515 295.73770694 1038.47443515 362.634206977 1066.05221757 c 0
 429.530707013 1093.63 429.530707013 1093.63 507.904 1093.63 c 0,2,3
 605.552598503 1093.63 605.552598503 1093.63 684.818766417 1051.00367862 c 0
 764.084934331 1008.37735725 764.084934331 1008.37735725 815.981233583 933.313633876 c 0
 867.877532834 858.249910505 867.877532834 858.249910505 895.762766417 756.733053624 c 0
 923.648 655.216196743 923.648 655.216196743 923.648 536.576 c 0,4,5
 923.648 285.179900863 923.648 285.179900863 810.593246413 128.581368983 c 1
 696.19158716 -28.1013449363 696.19158716 -28.1013449363 507.904 -28.6719 c 0,6,7
 410.421453926 -28.6719 410.421453926 -28.6719 331.016940238 15.215181427 c 0
 251.61242655 59.1022628539 251.61242655 59.1022628539 199.799191012 135.760952948 c 0
 147.985955475 212.419643042 147.985955475 212.419643042 120.073077738 315.119112677 c 0
 92.1602 417.818582312 92.1602 417.818582312 92.1602 536.576 c 0,0,1
245.76 536.576 m 0,8,9
 245.76 503.499591372 245.76 503.499591372 248.778693004 470.03781088 c 0
 251.797386008 436.576030389 251.797386008 436.576030389 258.113948971 403.017003934 c 0
 264.430511934 369.457977479 264.430511934 369.457977479 273.635625789 337.684757383 c 0
 282.840739643 305.911537286 282.840739643 305.911537286 295.781416735 276.327555375 c 0
 308.722093827 246.743573464 308.722093827 246.743573464 324.383324005 221.10888907 c 0
 340.044554184 195.474204676 340.044554184 195.474204676 359.879040878 174.315242617 c 0
 379.713527572 153.156280559 379.713527572 153.156280559 402.100569547 138.110107177 c 0
 424.487611523 123.063933795 424.487611523 123.063933795 451.485603292 114.779966897 c 0
 478.483595062 106.496 478.483595062 106.496 507.904 106.496 c 0,10,11
 563.539382857 106.496 563.539382857 106.496 608.853430857 132.528027279 c 0
 654.167478857 158.560054557 654.167478857 158.560054557 683.582025143 201.082980721 c 0
 712.996571429 243.605906885 712.996571429 243.605906885 732.978614857 300.431259279 c 0
 752.960658286 357.256611672 752.960658286 357.256611672 761.504329143 416.172132721 c 0
 770.048 475.08765377 770.048 475.08765377 770.048 536.576 c 0,12,13
 770.048 612.882731707 770.048 612.882731707 753.959280423 685.869788618 c 0
 737.870560847 758.856845528 737.870560847 758.856845528 707.032719577 820.818211382 c 0
 676.194878307 882.779577236 676.194878307 882.779577236 624.423280423 920.621788618 c 0
 572.65168254 958.464 572.65168254 958.464 507.904 958.464 c 0,14,15
 443.15631746 958.464 443.15631746 958.464 391.384719577 920.621788618 c 0
 339.613121693 882.779577236 339.613121693 882.779577236 308.775280423 820.818211382 c 0
 277.937439153 758.856845528 277.937439153 758.856845528 261.848719577 685.869788618 c 0
 245.76 612.882731707 245.76 612.882731707 245.76 536.576 c 0,8,9
EndSplineSet
Fore
SplineSet
458 537 m 0,0,1
 441 454 441 454 441 398 c 0,2,3
 441 206 441 206 610 206 c 0,4,5
 832 206 832 206 902 537 c 0,6,7
 919 620 919 620 919 674 c 0,8,9
 919 866 919 866 750 866 c 0,10,11
 527 866 527 866 458 537 c 0,0,1
206 537 m 0,12,13
 262 797 262 797 418 948.5 c 128,-1,14
 574 1100 574 1100 799 1100 c 0,15,16
 981 1100 981 1100 1076 999.5 c 128,-1,17
 1171 899 1171 899 1171 718 c 0,18,19
 1171 634 1171 634 1150 537 c 0,20,21
 1094 276 1094 276 939 123.5 c 128,-1,22
 784 -29 784 -29 559 -29 c 0,23,24
 377 -29 377 -29 281 71.5 c 128,-1,25
 185 172 185 172 185 354 c 0,26,27
 185 438 185 438 206 537 c 0,12,13
EndSplineSet
EndChar

StartChar: p
Encoding: 112 112 36
Width: 1132
Flags: HW
HStem: -426 21G<28 290.254> -28 234<529.771 748.519> 866 234<749.45 1018> 1053 20G<342.744 605>
VStem: 932 268<455.571 811.238>
LayerCount: 2
Back
SplineSet
270.336 -425.984 m 17,0,-1
 118.784 -425.984 l 1,1,-1
 118.784 1073.15 l 1,2,-1
 270.336 1073.15 l 1,3,-1
 270.336 899.072 l 1,4,5
 289.627644479 931.454403232 289.627644479 931.454403232 307.670869494 956.445212404 c 0
 325.71409451 981.436021576 325.71409451 981.436021576 351.899818506 1008.0273316 c 0
 378.085542501 1034.61864162 378.085542501 1034.61864162 405.942101494 1051.9289884 c 0
 433.798660488 1069.23933519 433.798660488 1069.23933519 471.306410506 1080.4096676 c 0
 508.814160523 1091.58 508.814160523 1091.58 550.912 1091.58 c 0,6,7
 624.35242036 1091.58 624.35242036 1091.58 686.146452545 1061.38945412 c 0
 747.94048473 1031.19890824 747.94048473 1031.19890824 791.198827455 979.084113882 c 0
 834.45717018 926.969319529 834.45717018 926.969319529 864.732052545 856.657166118 c 0
 895.00693491 786.345012706 895.00693491 786.345012706 909.327467455 706.522065882 c 0
 923.648 626.699119059 923.648 626.699119059 923.648 540.672 c 0,8,9
 923.648 187.506005345 923.648 187.506005345 754.932456426 49.7251286682 c 0
 658.076975576 -28.3308357763 658.076975576 -28.3308357763 512 -28.6719 c 0,10,11
 478.56326566 -28.6719 478.56326566 -28.6719 447.031230991 -19.1245239736 c 0
 415.499196322 -9.57714794722 415.499196322 -9.57714794722 392.433820341 4.37670941904 c 0
 369.368444359 18.3305667853 369.368444359 18.3305667853 348.106263709 37.6701234399 c 0
 326.844083058 57.0096800944 326.844083058 57.0096800944 313.857494012 72.9219738077 c 0
 300.870904965 88.8342675209 300.870904965 88.8342675209 289.591977759 106.215388287 c 0
 278.313050554 123.596509054 278.313050554 123.596509054 275.118647869 129.716622597 c 0
 271.924245184 135.836736141 271.924245184 135.836736141 270.336 139.264 c 0
 270.336 -425.984 l 17,0,-1
770.048 536.576 m 0,14,15
 770.048 653.369401401 770.048 653.369401401 744.656989307 748.55835035 c 0
 719.265978615 843.747299299 719.265978615 843.747299299 671.193677359 900.08164965 c 0
 623.121376104 956.416 623.121376104 956.416 561.152 956.416 c 0,16,17
 508.49536 956.416 508.49536 956.416 456.247893333 926.50194402 c 0
 404.000426667 896.587888041 404.000426667 896.587888041 361.544106667 843.86605598 c 0
 319.087786667 791.144223919 319.087786667 791.144223919 292.663893333 710.43794402 c 0
 266.24 629.731664122 266.24 629.731664122 266.24 536.576 c 0,18,19
 266.24 489.149118571 266.24 489.149118571 271.312823848 445.298140898 c 0
 276.385647696 401.447163226 276.385647696 401.447163226 285.566188497 364.951340583 c 0
 294.746729298 328.455517941 294.746729298 328.455517941 307.581246345 295.886848717 c 0
 320.415763391 263.318179494 320.415763391 263.318179494 335.909343504 237.486517538 c 0
 351.402923617 211.654855582 351.402923617 211.654855582 369.133619459 190.166223203 c 0
 386.8643153 168.677590824 386.8643153 168.677590824 405.805420322 153.307817949 c 0
 424.746525344 137.938045075 424.746525344 137.938045075 444.507885577 127.327177935 c 0
 464.269245809 116.716310796 464.269245809 116.716310796 483.792361337 111.606155398 c 0
 503.315476864 106.496 503.315476864 106.496 522.24 106.496 c 0,20,21
 635.950545455 106.496 635.950545455 106.496 702.999272727 219.963076923 c 0
 770.048 333.430153846 770.048 333.430153846 770.048 536.576 c 0,14,15
EndSplineSet
Fore
SplineSet
286 -426 m 17,0,-1
 28 -426 l 1,1,-1
 347 1073 l 1,2,-1
 605 1073 l 1,3,-1
 572 917 l 1,4,5
 641 999 641 999 736 1049.5 c 128,-1,6
 831 1100 831 1100 918 1100 c 0,7,8
 1061 1100 1061 1100 1130.5 1003.5 c 128,-1,9
 1200 907 1200 907 1200 743 c 0,10,11
 1200 525.806818182 1200 525.806818182 1107 315.5 c 0,12,13
 1011.24833668 98.970670446 1011.24833668 98.970670446 856.5 16.5 c 0,14,15
 773 -28 773 -28 682.5 -28 c 128,-1,16
 592 -28 592 -28 518.5 23.5 c 128,-1,17
 445 75 445 75 410 157 c 1,18,-1
 286 -426 l 17,0,-1
866.5 391.5 m 0,19,20
 932 519.567164179 932 519.567164179 932 642.78358209 c 128,-1,21
 932 766 932 766 886.5 816 c 128,-1,22
 841 866 841 866 788.5 866 c 128,-1,23
 736 866 736 866 695.5 849.5 c 128,-1,24
 655 833 655 833 613.5 797.5 c 0,25,26
 521.353863748 718.6761967 521.353863748 718.6761967 483 537 c 0,27,28
 469 471 469 471 469 414 c 0,29,30
 469 306 469 306 517.5 256 c 128,-1,31
 566 206 566 206 635 206 c 0,32,33
 709.923076923 206 709.923076923 206 793 287 c 0,34,35
 833 326 833 326 866.5 391.5 c 0,19,20
EndSplineSet
EndChar

StartChar: q
Encoding: 113 113 37
Width: 1132
Flags: HW
HStem: -28 234<347 612.695> 866 234<611.018 837.483> 1053 20G<983.769 1246>
VStem: 164 271<268.455 613.987> 720 265<-307.5 18.1094>
LayerCount: 2
Back
SplineSet
233.472 536.576 m 0,0,1
 233.472 334.161387283 233.472 334.161387283 302.328839161 220.328693642 c 0
 371.185678322 106.496 371.185678322 106.496 485.376 106.496 c 0,2,3
 519.96749621 106.496 519.96749621 106.496 555.266657026 122.90743987 c 0
 590.565817843 139.31887974 590.565817843 139.31887974 624.135582974 174.52769613 c 0
 657.705348105 209.73651252 657.705348105 209.73651252 683.717217026 259.15678387 c 0
 709.729085948 308.57705522 709.729085948 308.57705522 725.552542974 380.57288013 c 0
 741.376 452.568705041 741.376 452.568705041 741.376 536.576 c 0,4,5
 741.376 599.344804523 741.376 599.344804523 729.200927241 657.100939712 c 0
 717.025854482 714.8570749 717.025854482 714.8570749 695.866031092 760.285726955 c 0
 674.706207703 805.71437901 674.706207703 805.71437901 646.143455019 843.089680452 c 0
 617.580702335 880.464981895 617.580702335 880.464981895 584.819142203 905.08691214 c 0
 552.057582072 929.708842386 552.057582072 929.708842386 516.66431613 943.062421193 c 0
 481.271050188 956.416 481.271050188 956.416 446.464 956.416 c 0,6,7
 384.386082752 956.416 384.386082752 956.416 335.371187355 900.194937198 c 0
 286.356291957 843.973874396 286.356291957 843.973874396 259.914145979 748.445062802 c 0
 233.472 652.916251208 233.472 652.916251208 233.472 536.576 c 0,0,1
888.832 -198.656 m 2,8,9
 888.832 -259.996641584 888.832 -259.996641584 915.141 -286.670320792 c 0
 941.45 -313.344 941.45 -313.344 1007.62 -313.344 c 1,10,-1
 1007.62 -448.512 l 1,11,12
 942.461553697 -448.512 942.461553697 -448.512 893.43019645 -435.043550656 c 0
 844.398839202 -421.575101312 844.398839202 -421.575101312 808.93999105 -392.860449344 c 0
 773.481142899 -364.145797377 773.481142899 -364.145797377 755.38057145 -317.027550656 c 0
 737.28 -269.909303935 737.28 -269.909303935 737.28 -204.8 c 2,13,14
 737.28 139.264 l 1,15,16
 734.104376096 132.439513227 734.104376096 132.439513227 727.884135012 121.113541453 c 0
 721.663893928 109.78756968 721.663893928 109.78756968 699.391640988 80.8356881466 c 0
 677.119388048 51.8838066135 677.119388048 51.8838066135 651.469159012 29.7564118534 c 0
 625.818929976 7.62901709323 625.818929976 7.62901709323 583.655064988 -10.5214414534 c 0
 541.4912 -28.6719 541.4912 -28.6719 495.616 -28.6719 c 0,17,18
 401.786340887 -28.6719 401.786340887 -28.6719 328.880296011 3.89673791025 c 0
 255.974251135 36.4653758205 255.974251135 36.4653758205 210.595580789 89.8526644898 c 0
 165.216910443 143.239953159 165.216910443 143.239953159 136.007739211 218.65815551 c 0
 106.798567978 294.076357861 106.798567978 294.076357861 95.3831839891 372.44384209 c 0
 83.9678 450.811326318 83.9678 450.811326318 83.9678 540.672 c 0,19,20
 83.9678 612.074072611 83.9678 612.074072611 94.2357130433 679.687940594 c 0
 104.503626087 747.301808578 104.503626087 747.301808578 124.473286957 809.036059406 c 0
 144.442947827 870.770310233 144.442947827 870.770310233 176.023057488 922.184607261 c 0
 207.603167149 973.598904289 207.603167149 973.598904289 247.960198068 1011.48272607 c 0
 288.317228987 1049.36654786 288.317228987 1049.36654786 341.778401932 1070.47327393 c 0
 395.239574878 1091.58 395.239574878 1091.58 456.704 1091.58 c 0,21,22
 487.08323353 1091.58 487.08323353 1091.58 514.903792948 1085.73609464 c 0
 542.724352367 1079.89218928 542.724352367 1079.89218928 565.072883437 1070.48446513 c 0
 587.421414506 1061.07674097 587.421414506 1061.07674097 608.932667584 1045.88802467 c 0
 630.443920661 1030.69930837 630.443920661 1030.69930837 646.742107926 1015.48266921 c 0
 663.040295191 1000.26603004 663.040295191 1000.26603004 680.320096155 979.099779772 c 0
 697.599897119 957.933529503 697.599897119 957.933529503 709.925594807 940.275252298 c 0
 722.251292495 922.616975092 722.251292495 922.616975092 737.28 899.072 c 1,23,-1
 737.28 1073.15 l 1,24,-1
 888.832 1073.15 l 1,25,-1
 888.832 -198.656 l 2,8,9
EndSplineSet
Fore
SplineSet
730 -141 m 2,0,-1
 793 157 l 1,1,2
 723 75 723 75 628 23.5 c 128,-1,3
 533 -28 533 -28 447 -28 c 0,4,5
 303 -28 303 -28 233.5 68 c 128,-1,6
 164 164 164 164 164 326 c 0,7,8
 164 422 164 422 192.5 556 c 128,-1,9
 221 690 221 690 286 815 c 128,-1,10
 351 940 351 940 455.5 1020 c 128,-1,11
 560 1100 560 1100 687 1100 c 0,12,13
 774 1100 774 1100 847 1049.5 c 128,-1,14
 920 999 920 999 955 917 c 1,15,-1
 988 1073 l 1,16,-1
 1246 1073 l 1,17,-1
 989 -137 l 2,18,19
 985 -159 985 -159 985 -175 c 0,20,21
 985 -211 985 -211 1080 -211 c 1,22,-1
 1030 -449 l 1,23,24
 876 -449 876 -449 798 -396.5 c 128,-1,25
 720 -344 720 -344 720 -231 c 0,26,27
 720 -188 720 -188 730 -141 c 2,0,-1
448 537 m 0,28,29
 435 478 435 478 435 425 c 0,30,31
 435 321 435 321 481 263.5 c 128,-1,32
 527 206 527 206 578 206 c 128,-1,33
 629 206 629 206 669.5 222.5 c 128,-1,34
 710 239 710 239 751.5 275 c 0,35,36
 844.061438965 355.294260307 844.061438965 355.294260307 882 537 c 0,37,38
 896 601 896 601 896 659 c 0,39,40
 896 767 896 767 847 816.5 c 128,-1,41
 798 866 798 866 721.5 866 c 128,-1,42
 645 866 645 866 564.5 785.5 c 128,-1,43
 484 705 484 705 448 537 c 0,28,29
EndSplineSet
EndChar

StartChar: r
Encoding: 114 114 38
Width: 858
Flags: HW
HStem: 0 21G<122 384.268> 868 234<736.929 930.351> 1053 20G<345.75 608>
LayerCount: 2
Back
SplineSet
638.976 907.264 m 1,0,1
 627.348645161 914.663225806 627.348645161 914.663225806 603.827624567 924.132473118 c 0
 580.306603973 933.60172043 580.306603973 933.60172043 553.292375433 940.912860215 c 0
 526.278146893 948.224 526.278146893 948.224 509.952 948.224 c 0,2,3
 467.950998102 948.224 467.950998102 948.224 423.559833017 921.144863309 c 0
 379.168667932 894.065726619 379.168667932 894.065726619 346.072166983 853.863136691 c 0
 312.975666034 813.660546763 312.975666034 813.660546763 291.655833017 765.816863309 c 0
 270.336 717.973179856 270.336 717.973179856 270.336 677.888 c 2,4,-1
 270.336 0 l 1,5,-1
 118.784 0 l 1,6,-1
 118.784 1073.15 l 1,7,-1
 270.336 1073.15 l 1,8,-1
 270.336 913.408 l 1,9,10
 311.261093822 985.817009525 311.261093822 985.817009525 376.180393316 1035.62850476 c 0
 441.09969281 1085.44 441.09969281 1085.44 499.712 1085.44 c 0,11,12
 546.341944917 1085.44 546.341944917 1085.44 607.200250963 1069.18170093 c 0
 668.058557009 1052.92340187 668.058557009 1052.92340187 704.512 1030.14 c 1,13,-1
 638.976 907.264 l 1,0,1
EndSplineSet
Fore
SplineSet
908 807 m 1,0,1
 814 868 814 868 761.5 868 c 128,-1,2
 709 868 709 868 662 839 c 128,-1,3
 615 810 615 810 583 761.5 c 0,4,5
 523.284297521 670.99338843 523.284297521 670.99338843 498 553 c 2,6,-1
 380 0 l 1,7,-1
 122 0 l 1,8,-1
 350 1073 l 1,9,-1
 608 1073 l 1,10,-1
 574 912 l 1,11,12
 634 992 634 992 718.5 1047 c 128,-1,13
 803 1102 803 1102 858 1102 c 0,14,15
 966.756097561 1102 966.756097561 1102 1047 1008 c 1,16,-1
 908 807 l 1,0,1
EndSplineSet
EndChar

StartChar: s
Encoding: 115 115 39
Width: 958
Flags: HW
HStem: -29 230<409.989 675.406> 870 230<559.284 780.509>
VStem: 284 252<701.594 842.59> 702 252<229.754 381.511>
LayerCount: 2
Back
SplineSet
458.752 491.52 m 0,0,1
 284.963229904 548.335917102 284.963229904 548.335917102 210.303975771 606.415784339 c 0
 110.592 683.984980308 110.592 683.984980308 110.592 798.72 c 0,2,3
 110.592 934.86142562 110.592 934.86142562 208.150945323 1016.29571281 c 0
 305.709890645 1097.73 305.709890645 1097.73 458.752 1097.73 c 0,4,5
 533.959767343 1097.73 533.959767343 1097.73 598.508641171 1077.67598715 c 0
 663.057515 1057.62197429 663.057515 1057.62197429 706.355358829 1024.56670035 c 0
 749.653202657 991.511426413 749.653202657 991.511426413 777.004641171 951.914612147 c 0
 804.356079685 912.31779788 804.356079685 912.31779788 813.056 870.4 c 1,6,-1
 671.744 841.729 l 1,7,8
 664.820670152 863.128075845 664.820670152 863.128075845 653.214117807 881.081168481 c 0
 641.607565462 899.034261116 641.607565462 899.034261116 623.673306193 914.295119519 c 0
 605.739046923 929.555977923 605.739046923 929.555977923 582.599413807 940.129200481 c 0
 559.459780691 950.702423039 559.459780691 950.702423039 528.482362193 956.631711519 c 0
 497.504943695 962.561 497.504943695 962.561 460.8 962.561 c 0,9,10
 357.131857692 962.561 357.131857692 962.561 310.661928846 920.699284091 c 0
 264.192 878.837568182 264.192 878.837568182 264.192 804.864 c 0,11,12
 264.192 784.410963934 264.192 784.410963934 270.308389653 766.203498589 c 0
 276.424779306 747.996033244 276.424779306 747.996033244 284.967610347 734.672501411 c 0
 293.510441389 721.348969578 293.510441389 721.348969578 309.020389653 708.595498589 c 0
 324.530337917 695.8420276 324.530337917 695.8420276 336.711610347 687.984501411 c 0
 348.892882778 680.126975221 348.892882778 680.126975221 369.332389653 671.051498589 c 0
 389.771896528 661.976021957 389.771896528 661.976021957 401.127610347 657.808501411 c 0
 412.483324167 653.640980865 412.483324167 653.640980865 433.388389653 646.467498589 c 0
 454.293455139 639.294016313 454.293455139 639.294016313 460.8 636.928 c 0,13,14
 489.696476727 626.420207679 489.696476727 626.420207679 508.159365152 619.377615912 c 0
 526.622253576 612.335024145 526.622253576 612.335024145 556.771217848 600.115669088 c 0
 586.920182121 587.896314031 586.920182121 587.896314031 607.359507152 577.438265912 c 0
 627.798832182 566.980217793 627.798832182 566.980217793 655.441409848 552.096549088 c 0
 683.083987515 537.212880383 683.083987515 537.212880383 702.087993152 522.222955912 c 0
 721.091998788 507.233031441 721.091998788 507.233031441 742.816433848 488.568629088 c 0
 764.540868909 469.904226735 764.540868909 469.904226735 778.697799152 449.266005912 c 0
 792.854729394 428.627785089 792.854729394 428.627785089 805.249265848 405.066229088 c 0
 817.643802303 381.504673087 817.643802303 381.504673087 823.541901152 354.101735912 c 0
 829.44 326.698798737 829.44 326.698798737 829.44 296.96 c 0,15,16
 829.44 142.583717717 829.44 142.583717717 728.279567038 56.9559088583 c 0
 627.119134076 -28.6719 627.119134076 -28.6719 462.848 -28.6719 c 0,17,18
 308.077675425 -28.6719 308.077675425 -28.6719 212.994895913 36.7948032814 c 0
 117.912116401 102.261506563 117.912116401 102.261506563 86.0156 217.088 c 1,19,-1
 227.328 243.712 l 1,20,21
 261.132197232 111.56831991 261.132197232 111.56831991 445.350056251 106.671785 c 0
 452.482611566 106.508150516 452.482611566 106.508150516 458.752 106.496 c 0,22,23
 563.781632 106.496 563.781632 106.496 619.810816 155.132444444 c 0
 675.84 203.768888889 675.84 203.768888889 675.84 296.96 c 0,24,25
 675.84 334.383659574 675.84 334.383659574 657.682574713 365.98012717 c 0
 639.525149425 397.576594766 639.525149425 397.576594766 606.445425287 420.89987283 c 0
 573.365701149 444.223150893 573.365701149 444.223150893 538.386574713 460.57212717 c 0
 503.407448276 476.921103448 503.407448276 476.921103448 458.752 491.52 c 0,0,1
EndSplineSet
Fore
SplineSet
1045 816 m 1,0,-1
 1044 801 l 1,1,-1
 795 758 l 1,2,-1
 795 769 l 2,3,4
 795 828 795 828 766.5 849 c 128,-1,5
 738 870 738 870 680.5 870 c 128,-1,6
 623 870 623 870 586 852 c 128,-1,7
 549 834 549 834 538 783 c 0,8,9
 536 771 536 771 536 754.5 c 128,-1,10
 536 738 536 738 558.5 717.5 c 128,-1,11
 581 697 581 697 611 684.5 c 128,-1,12
 641 672 641 672 696.5 649 c 128,-1,13
 752 626 752 626 813.5 593 c 0,14,15
 954 517.609756098 954 517.609756098 954 367 c 0,16,17
 954 165.464944649 954 165.464944649 779.5 56 c 0,18,19
 644 -29 644 -29 480.5 -29 c 128,-1,20
 317 -29 317 -29 229 57 c 128,-1,21
 141 143 141 143 140 290 c 1,22,-1
 380 329 l 1,23,-1
 380 324 l 2,24,25
 380 266 380 266 422 233.5 c 128,-1,26
 464 201 464 201 512.5 201 c 128,-1,27
 561 201 561 201 585.5 204 c 128,-1,28
 610 207 610 207 635.5 216 c 0,29,30
 687.898734177 234.493670886 687.898734177 234.493670886 700 295 c 0,31,32
 702 307 702 307 702 324 c 128,-1,33
 702 341 702 341 676.5 366 c 128,-1,34
 651 391 651 391 618 406.5 c 128,-1,35
 585 422 585 422 532 446.5 c 128,-1,36
 479 471 479 471 419.5 506.5 c 128,-1,37
 360 542 360 542 322 588 c 128,-1,38
 284 634 284 634 284 693.5 c 0,39,40
 284 916.276595745 284 916.276595745 441.5 1021.5 c 0,41,42
 559 1100 559 1100 728 1100 c 0,43,44
 884.585365854 1100 884.585365854 1100 968 1010 c 0,45,46
 1045 926.921052632 1045 926.921052632 1045 816 c 1,0,-1
EndSplineSet
EndChar

StartChar: t
Encoding: 116 116 40
Width: 706
Flags: HW
HStem: -15 21G<463 622.24> 844 229<300 392 699 804>
VStem: 262 269<119 440.828>
LayerCount: 2
Back
SplineSet
253.952 937.984 m 1,0,-1
 112.64 937.984 l 1,1,-1
 112.64 1073.15 l 1,2,-1
 253.952 1073.15 l 1,3,-1
 253.952 1323.01 l 1,4,-1
 405.504 1323.01 l 1,5,-1
 405.504 1073.15 l 1,6,-1
 602.112 1073.15 l 1,7,-1
 602.112 937.984 l 1,8,-1
 405.504 937.984 l 1,9,-1
 405.504 215.04 l 2,10,11
 405.504 98.3037 405.504 98.3037 522.24 98.3037 c 2,12,-1
 591.872 98.3037 l 1,13,-1
 591.872 -28.6719 l 1,14,-1
 522.24 -28.6719 l 2,15,16
 373.102703917 -28.6719 373.102703917 -28.6719 313.527351958 28.3292263117 c 0
 253.952 85.3303526235 253.952 85.3303526235 253.952 210.944 c 2,17,-1
 253.952 937.984 l 1,0,-1
EndSplineSet
Fore
SplineSet
392 844 m 1,0,-1
 251 844 l 1,1,-1
 300 1073 l 1,2,-1
 441 1073 l 1,3,-1
 494 1323 l 1,4,-1
 752 1323 l 1,5,-1
 699 1073 l 1,6,-1
 853 1073 l 1,7,-1
 804 844 l 1,8,-1
 650 844 l 1,9,-1
 534 297 l 2,10,11
 531 282 531 282 531 270 c 0,12,13
 531 202 531 202 625 202 c 2,14,-1
 664 202 l 1,15,-1
 618 -15 l 1,16,-1
 579 -15 l 2,17,18
 408 -15 408 -15 335 34 c 128,-1,19
 262 83 262 83 262 187 c 0,20,21
 262 230 262 230 275 293 c 2,22,-1
 392 844 l 1,0,-1
EndSplineSet
EndChar

StartChar: u
Encoding: 117 117 41
Width: 1112
Flags: HW
HStem: -29 235<350 598.113> 0 21G<745 1007.25> 1053 20G<331.762 594 967.746 1231>
VStem: 192 269<238.576 602.688>
LayerCount: 2
Back
SplineSet
743.424 1073.15 m 9,0,-1
 894.976 1073.15 l 1,1,-1
 894.976 0 l 1,2,-1
 743.424 0 l 1,3,-1
 743.424 139.264 l 1,4,5
 689.028882191 56.2400126085 689.028882191 56.2400126085 637.403346428 21.0333321692 c 0
 573.52647501 -22.5283 573.52647501 -22.5283 491.521 -22.5283 c 0,6,7
 293.336600824 -22.5283 293.336600824 -22.5283 189.630134247 138.062207411 c 0
 108.814364473 264.346211308 108.814364473 264.346211308 108.544 450.56 c 2,8,-1
 108.544 1073.15 l 1,9,-1
 260.096 1073.15 l 1,10,-1
 260.096 454.656 l 2,11,12
 260.096 370.642488889 260.096 370.642488889 292.068660194 291.316622222 c 0
 324.041320388 211.990755556 324.041320388 211.990755556 375.579339806 163.339377778 c 0
 427.117359223 114.688 427.117359223 114.688 481.28 114.688 c 0,13,14
 512.760565657 114.688 512.760565657 114.688 544.760619529 124.996130091 c 0
 576.760673401 135.304260183 576.760673401 135.304260183 605.703380471 153.873203242 c 0
 634.646087542 172.442146301 634.646087542 172.442146301 659.941656566 199.786056017 c 0
 685.237225589 227.129965733 685.237225589 227.129965733 703.703973064 259.610684724 c 0
 722.170720539 292.091403714 722.170720539 292.091403714 732.797360269 331.919981943 c 0
 743.424 371.748560172 743.424 371.748560172 743.424 413.696 c 2,15,-1
 743.424 1073.15 l 9,0,-1
EndSplineSet
Fore
SplineSet
1003 0 m 1,0,-1
 745 0 l 1,1,-1
 779 161 l 1,2,3
 717 80 717 80 619 25.5 c 128,-1,4
 521 -29 521 -29 416.5 -29 c 128,-1,5
 312 -29 312 -29 252 51 c 128,-1,6
 192 131 192 131 192 261.5 c 128,-1,7
 192 392 192 392 222 535 c 2,8,-1
 336 1073 l 1,9,-1
 594 1073 l 1,10,-1
 480 536 l 2,11,12
 461 445 461 445 461 381 c 0,13,14
 461 206 461 206 590 206 c 0,15,16
 660.820895522 206 660.820895522 206 731.5 267.5 c 0,17,18
 815.473441109 340.567799406 815.473441109 340.567799406 858 537 c 2,19,-1
 972 1073 l 1,20,-1
 1231 1073 l 1,21,-1
 1003 0 l 1,0,-1
EndSplineSet
EndChar

StartChar: v
Encoding: 118 118 42
Width: 1060
Flags: HW
HStem: 0 21G<408.931 634.568> 1053 20G<300 571.991 934.117 1191>
VStem: 300 271<934.419 1073>
LayerCount: 2
Back
SplineSet
436.224 0 m 1,0,-1
 71.6797 1073.15 l 1,1,-1
 231.424 1073.15 l 1,2,-1
 512 194.56 l 1,3,-1
 798.72 1073.15 l 1,4,-1
 956.416 1073.15 l 1,5,-1
 587.776 0 l 1,6,-1
 436.224 0 l 1,0,-1
EndSplineSet
Fore
SplineSet
411 0 m 1,0,-1
 300 1073 l 1,1,-1
 571 1073 l 1,2,-1
 605 387 l 1,3,-1
 944 1073 l 1,4,-1
 1191 1073 l 1,5,-1
 624 0 l 1,6,-1
 411 0 l 1,0,-1
EndSplineSet
EndChar

StartChar: w
Encoding: 119 119 43
Width: 1449
Flags: HW
HStem: 0 21G<370.378 581.524 851 1080.12> 1053 20G<285 540.777 830.887 1071 1360.66 1613>
VStem: 285 255<896.189 1073> 851 219<407 664>
LayerCount: 2
Back
SplineSet
688.128 829.44 m 1,0,-1
 460.8 0 l 1,1,-1
 344.064 0 l 1,2,-1
 57.3438 1073.15 l 1,3,-1
 206.848 1073.15 l 1,4,-1
 403.456 282.624 l 1,5,-1
 616.448 1064.96 l 1,6,-1
 759.808 1064.96 l 1,7,-1
 972.8 282.624 l 1,8,-1
 1169.41 1073.15 l 1,9,-1
 1318.91 1073.15 l 1,10,-1
 1032.19 0 l 1,11,-1
 909.312 0 l 1,12,-1
 688.128 829.44 l 1,0,-1
EndSplineSet
Fore
SplineSet
856 664 m 1,0,-1
 573 0 l 1,1,-1
 372 0 l 1,2,-1
 285 1073 l 1,3,-1
 540 1073 l 1,4,-1
 566 404 l 1,5,-1
 839 1077 l 1,6,-1
 1071 1077 l 1,7,-1
 1059 407 l 1,8,-1
 1370 1073 l 1,9,-1
 1613 1073 l 1,10,-1
 1070 0 l 1,11,-1
 851 0 l 1,12,-1
 856 664 l 1,0,-1
EndSplineSet
EndChar

StartChar: x
Encoding: 120 120 44
Width: 1054
Flags: HW
HStem: 0 21G<27 349.582 706.896 1021> 1053 20G<273 570.273 924.424 1254>
LayerCount: 2
Back
SplineSet
860.16 0 m 1,0,-1
 690.176 0 l 1,1,-1
 448.512 440.32 l 1,2,-1
 219.136 0 l 1,3,-1
 43.0078 0 l 1,4,-1
 356.352 538.624 l 1,5,-1
 45.0557 1073.15 l 1,6,-1
 215.04 1073.15 l 1,7,-1
 448.512 638.976 l 1,8,-1
 681.984 1073.15 l 1,9,-1
 851.968 1073.15 l 1,10,-1
 540.672 542.72 l 1,11,-1
 860.16 0 l 1,0,-1
EndSplineSet
Fore
SplineSet
1021 0 m 1,0,-1
 714 0 l 1,1,-1
 595 335 l 1,2,-1
 334 0 l 1,3,-1
 27 0 l 1,4,-1
 482 536 l 1,5,-1
 273 1073 l 1,6,-1
 563 1073 l 1,7,-1
 683 743 l 1,8,-1
 940 1073 l 1,9,-1
 1254 1073 l 1,10,-1
 796 545 l 1,11,-1
 1021 0 l 1,0,-1
EndSplineSet
EndChar

StartChar: y
Encoding: 121 121 45
Width: 1106
Flags: HW
HStem: -465 232<361.268 637.64> -29 235<350 598.113> 1053 20G<331.762 594 967.746 1231>
VStem: 192 269<238.576 602.688>
LayerCount: 2
Back
SplineSet
283.376 -183.838 m 1,0,1
 315.172679077 -242.789077708 315.172679077 -242.789077708 374.239956776 -278.066538854 c 0
 433.307234475 -313.344 433.307234475 -313.344 501.76 -313.344 c 0,2,3
 549.78000773 -313.344 549.78000773 -313.344 592.419334622 -296.167483101 c 0
 635.058661513 -278.990966201 635.058661513 -278.990966201 669.244665378 -245.656460649 c 0
 703.430669243 -212.321955097 703.430669243 -212.321955097 723.427334622 -157.415320601 c 0
 743.424 -102.508686104 743.424 -102.508686104 743.424 -32.7676 c 2,4,-1
 743.424 145.408 l 1,5,6
 650.511035475 -15.5115163516 650.511035475 -15.5115163516 491.521 -16.3838 c 0,7,8
 293.336740025 -16.3838 293.336740025 -16.3838 189.630305856 144.206162334 c 0
 108.814364961 270.490046597 108.814364961 270.490046597 108.544 456.704 c 2,9,-1
 108.544 1073.15 l 1,10,-1
 260.096 1073.15 l 1,11,-1
 260.096 460.8 l 2,12,13
 260.096 376.786488889 260.096 376.786488889 292.068660194 297.460622222 c 0
 324.041320388 218.134755556 324.041320388 218.134755556 375.579339806 169.483377778 c 0
 427.117359223 120.832 427.117359223 120.832 481.28 120.832 c 0,14,15
 528.677052632 120.832 528.677052632 120.832 575.771508772 143.713071325 c 0
 622.865964912 166.594142649 622.865964912 166.594142649 660.004491228 205.470928675 c 0
 697.143017544 244.347714702 697.143017544 244.347714702 720.283508772 300.897071325 c 0
 743.424 357.446427948 743.424 357.446427948 743.424 419.84 c 2,16,-1
 743.424 1073.15 l 1,17,-1
 894.976 1073.15 l 1,18,-1
 894.976 425.984 l 1,19,-1
 894.976 -18.4316 l 2,20,21
 894.976 -117.598985071 894.976 -117.598985071 863.404550311 -200.047703762 c 0
 831.833100622 -282.496422453 831.833100622 -282.496422453 778.419449689 -336.112077488 c 0
 725.005798756 -389.727732524 725.005798756 -389.727732524 655.724550311 -419.119866262 c 0
 586.443301866 -448.512 586.443301866 -448.512 509.952 -448.512 c 0,22,23
 383.480822978 -448.512 383.480822978 -448.512 296.018160501 -391.969734258 c 0
 208.555498024 -335.427468515 208.555498024 -335.427468515 160.556 -247.556 c 1,24,-1
 283.376 -183.838 l 1,0,1
EndSplineSet
Fore
SplineSet
997 -29 m 2,0,1
 975 -135 975 -135 886.5 -237 c 128,-1,2
 798 -339 798 -339 679.5 -402 c 128,-1,3
 561 -465 561 -465 434 -465 c 128,-1,4
 307 -465 307 -465 212.5 -395.5 c 128,-1,5
 118 -326 118 -326 92 -224 c 1,6,-1
 320 -112 l 1,7,8
 327 -167 327 -167 373.5 -200 c 128,-1,9
 420 -233 420 -233 501.5 -233 c 128,-1,10
 583 -233 583 -233 649 -186 c 128,-1,11
 715 -139 715 -139 732 -59 c 2,12,-1
 779 161 l 1,13,14
 717 80 717 80 619 25.5 c 128,-1,15
 521 -29 521 -29 416.5 -29 c 128,-1,16
 312 -29 312 -29 252 51 c 128,-1,17
 192 131 192 131 192 261.5 c 128,-1,18
 192 392 192 392 222 535 c 2,19,-1
 336 1073 l 1,20,-1
 594 1073 l 1,21,-1
 480 536 l 2,22,23
 461 445 461 445 461 381 c 0,24,25
 461 206 461 206 590 206 c 0,26,27
 660.820895522 206 660.820895522 206 731.5 267.5 c 0,28,29
 815.473441109 340.567799406 815.473441109 340.567799406 858 537 c 2,30,-1
 972 1073 l 1,31,-1
 1231 1073 l 1,32,-1
 997 -29 l 2,0,1
EndSplineSet
EndChar

StartChar: z
Encoding: 122 122 46
Width: 1005
Flags: HW
HStem: 0 240<534 889> 834 239<343 679>
LayerCount: 2
Back
SplineSet
331.776 141.312 m 1,0,-1
 866.304 141.312 l 1,1,-1
 866.304 0 l 1,2,-1
 79.8721 0 l 1,3,-1
 624.64 931.84 l 1,4,-1
 100.352 931.84 l 1,5,-1
 100.352 1073.15 l 1,6,-1
 876.544 1073.15 l 1,7,-1
 331.776 141.312 l 1,0,-1
EndSplineSet
Fore
SplineSet
534 240 m 1,0,-1
 940 240 l 1,1,-1
 889 0 l 1,2,-1
 66 0 l 1,3,-1
 679 834 l 1,4,-1
 292 834 l 1,5,-1
 343 1073 l 1,6,-1
 1149 1073 l 1,7,-1
 534 240 l 1,0,-1
EndSplineSet
EndChar

StartChar: Ograve
Encoding: 210 210 47
Width: 1347
Flags: HW
HStem: -29 240<615.557 921.717> 1245 240<818.472 1124.18>
VStem: 231 283<320.75 807.326> 1225 282<645.695 1136.37>
LayerCount: 2
Fore
SplineSet
1160 579 m 0,0,1
 1225 761 1225 761 1225 917 c 0,2,3
 1225 1245 1225 1245 980 1245 c 0,4,5
 773 1245 773 1245 643 1015 c 0,6,7
 572.991974318 891.13964687 572.991974318 891.13964687 543.495987159 753.569823435 c 128,-1,8
 514 616 514 616 514 500.5 c 128,-1,9
 514 385 514 385 572.5 298 c 128,-1,10
 631 211 631 211 760 211 c 0,11,12
 967.510948905 211 967.510948905 211 1096.5 440.5 c 0,13,14
 1135 509 1135 509 1160 579 c 0,0,1
231 509 m 0,15,16
 231 849.270072993 231 849.270072993 429.5 1140.5 c 0,17,18
 575.326517364 1354.44985394 575.326517364 1354.44985394 785 1438.5 c 0,19,20
 901 1485 901 1485 1017.5 1485 c 128,-1,21
 1134 1485 1134 1485 1216.5 1455.5 c 128,-1,22
 1299 1426 1299 1426 1352.5 1376 c 128,-1,23
 1406 1326 1406 1326 1441.5 1256.5 c 0,24,25
 1507 1128.26760563 1507 1128.26760563 1507 948 c 0,26,27
 1507 736.084337349 1507 736.084337349 1418.5 517.5 c 0,28,29
 1327.77880789 293.429585745 1327.77880789 293.429585745 1155.5 139.5 c 0,30,31
 1071 64 1071 64 955 17.5 c 128,-1,32
 839 -29 839 -29 722 -29 c 128,-1,33
 605 -29 605 -29 522.5 0.5 c 128,-1,34
 440 30 440 30 386.5 80.5 c 128,-1,35
 333 131 333 131 297 201 c 0,36,37
 231 329.333333333 231 329.333333333 231 509 c 0,15,16
1140 1928 m 2,38,-1
 878 2141 l 1,39,40
 865 2154 865 2154 865 2169.5 c 128,-1,41
 865 2185 865 2185 868 2200.5 c 0,42,43
 881.183486239 2268.6146789 881.183486239 2268.6146789 957 2316 c 0,44,45
 996.428571429 2340 996.428571429 2340 1018.21428571 2340 c 128,-1,46
 1040 2340 1040 2340 1050 2330 c 2,47,-1
 1281 2083 l 2,48,49
 1285 2079 1285 2079 1285 2071.5 c 0,50,51
 1285 2041.42857143 1285 2041.42857143 1271.5 2017.21428571 c 0,52,53
 1250.65422171 1979.82423894 1250.65422171 1979.82423894 1216.32711086 1954.91211947 c 0,54,55
 1172.35450291 1923 1172.35450291 1923 1158.67725145 1923 c 128,-1,56
 1145 1923 1145 1923 1140 1928 c 2,38,-1
EndSplineSet
EndChar

StartChar: Oacute
Encoding: 211 211 48
Width: 1347
Flags: HW
HStem: -29 240<615.557 921.717> 1245 240<818.472 1124.18>
VStem: 231 283<320.75 807.326> 1225 282<645.695 1136.37>
LayerCount: 2
Fore
SplineSet
1036 1533 m 2,0,-1
 774 1746 l 2,1,2
 762 1756.5 762 1756.5 762 1774.75 c 0,3,4
 762 1811.625 762 1811.625 776 1839.8125 c 0,5,6
 814.760688163 1917.85299269 814.760688163 1917.85299269 901 1942 c 0,7,8
 911 1945 911 1945 923.5 1945 c 128,-1,9
 936 1945 936 1945 946 1935 c 2,10,-1
 1177 1688 l 2,11,12
 1181 1684 1181 1684 1181 1676.5 c 0,13,14
 1181 1646.42857143 1181 1646.42857143 1167.5 1622.21428571 c 0,15,16
 1146.65422171 1584.82423894 1146.65422171 1584.82423894 1112.32711086 1559.91211947 c 0,17,18
 1068.35450291 1528 1068.35450291 1528 1054.67725145 1528 c 128,-1,19
 1041 1528 1041 1528 1036 1533 c 2,0,-1
1160 579 m 0,20,21
 1225 761 1225 761 1225 917 c 0,22,23
 1225 1245 1225 1245 980 1245 c 0,24,25
 773 1245 773 1245 643 1015 c 0,26,27
 572.991974318 891.13964687 572.991974318 891.13964687 543.495987159 753.569823435 c 128,-1,28
 514 616 514 616 514 500.5 c 128,-1,29
 514 385 514 385 572.5 298 c 128,-1,30
 631 211 631 211 760 211 c 0,31,32
 967.510948905 211 967.510948905 211 1096.5 440.5 c 0,33,34
 1135 509 1135 509 1160 579 c 0,20,21
231 509 m 0,35,36
 231 849.270072993 231 849.270072993 429.5 1140.5 c 0,37,38
 575.326517364 1354.44985394 575.326517364 1354.44985394 785 1438.5 c 0,39,40
 901 1485 901 1485 1017.5 1485 c 128,-1,41
 1134 1485 1134 1485 1216.5 1455.5 c 128,-1,42
 1299 1426 1299 1426 1352.5 1376 c 128,-1,43
 1406 1326 1406 1326 1441.5 1256.5 c 0,44,45
 1507 1128.26760563 1507 1128.26760563 1507 948 c 0,46,47
 1507 736.084337349 1507 736.084337349 1418.5 517.5 c 0,48,49
 1327.77880789 293.429585745 1327.77880789 293.429585745 1155.5 139.5 c 0,50,51
 1071 64 1071 64 955 17.5 c 128,-1,52
 839 -29 839 -29 722 -29 c 128,-1,53
 605 -29 605 -29 522.5 0.5 c 128,-1,54
 440 30 440 30 386.5 80.5 c 128,-1,55
 333 131 333 131 297 201 c 0,56,57
 231 329.333333333 231 329.333333333 231 509 c 0,35,36
EndSplineSet
EndChar

StartChar: Ocircumflex
Encoding: 212 212 49
Width: 1347
Flags: HW
HStem: -29 240<615.557 921.717> 1245 240<818.472 1124.18>
VStem: 231 283<320.75 807.326> 1225 282<645.695 1136.37>
LayerCount: 2
Fore
SplineSet
1045 1533 m 2,0,1
 1037 1528 1037 1528 1033 1528 c 0,2,3
 999.294117647 1528 999.294117647 1528 965 1581 c 0,4,5
 957 1594 957 1594 954.5 1620.5 c 0,6,7
 949.405345212 1674.50334076 949.405345212 1674.50334076 971 1688 c 1,8,-1
 1305 1935 l 2,9,10
 1318 1945 1318 1945 1331 1945 c 0,11,12
 1385.71428571 1945 1385.71428571 1945 1421 1888 c 0,13,14
 1434 1867 1434 1867 1434 1842.5 c 0,15,16
 1434 1771.2 1434 1771.2 1398 1746 c 1,17,-1
 1045 1533 l 2,0,1
1160 579 m 0,18,19
 1225 761 1225 761 1225 917 c 0,20,21
 1225 1245 1225 1245 980 1245 c 0,22,23
 773 1245 773 1245 643 1015 c 0,24,25
 572.991974318 891.13964687 572.991974318 891.13964687 543.495987159 753.569823435 c 128,-1,26
 514 616 514 616 514 500.5 c 128,-1,27
 514 385 514 385 572.5 298 c 128,-1,28
 631 211 631 211 760 211 c 0,29,30
 967.510948905 211 967.510948905 211 1096.5 440.5 c 0,31,32
 1135 509 1135 509 1160 579 c 0,18,19
231 509 m 0,33,34
 231 849.270072993 231 849.270072993 429.5 1140.5 c 0,35,36
 575.326517364 1354.44985394 575.326517364 1354.44985394 785 1438.5 c 0,37,38
 901 1485 901 1485 1017.5 1485 c 128,-1,39
 1134 1485 1134 1485 1216.5 1455.5 c 128,-1,40
 1299 1426 1299 1426 1352.5 1376 c 128,-1,41
 1406 1326 1406 1326 1441.5 1256.5 c 0,42,43
 1507 1128.26760563 1507 1128.26760563 1507 948 c 0,44,45
 1507 736.084337349 1507 736.084337349 1418.5 517.5 c 0,46,47
 1327.77880789 293.429585745 1327.77880789 293.429585745 1155.5 139.5 c 0,48,49
 1071 64 1071 64 955 17.5 c 128,-1,50
 839 -29 839 -29 722 -29 c 128,-1,51
 605 -29 605 -29 522.5 0.5 c 128,-1,52
 440 30 440 30 386.5 80.5 c 128,-1,53
 333 131 333 131 297 201 c 0,54,55
 231 329.333333333 231 329.333333333 231 509 c 0,33,34
EndSplineSet
EndChar

StartChar: Otilde
Encoding: 213 213 50
Width: 1347
Flags: HW
HStem: -29 240<615.557 921.717> 1245 240<818.472 1124.18> 1548 247<1152.58 1319.53> 1700 247<880.198 1025.25>
VStem: 231 283<320.75 807.326> 1225 282<645.695 1136.37>
LayerCount: 2
Fore
SplineSet
1160 579 m 0,0,1
 1225 761 1225 761 1225 917 c 0,2,3
 1225 1245 1225 1245 980 1245 c 0,4,5
 773 1245 773 1245 643 1015 c 0,6,7
 572.991974318 891.13964687 572.991974318 891.13964687 543.495987159 753.569823435 c 128,-1,8
 514 616 514 616 514 500.5 c 128,-1,9
 514 385 514 385 572.5 298 c 128,-1,10
 631 211 631 211 760 211 c 0,11,12
 967.510948905 211 967.510948905 211 1096.5 440.5 c 0,13,14
 1135 509 1135 509 1160 579 c 0,0,1
231 509 m 0,15,16
 231 849.270072993 231 849.270072993 429.5 1140.5 c 0,17,18
 575.326517364 1354.44985394 575.326517364 1354.44985394 785 1438.5 c 0,19,20
 901 1485 901 1485 1017.5 1485 c 128,-1,21
 1134 1485 1134 1485 1216.5 1455.5 c 128,-1,22
 1299 1426 1299 1426 1352.5 1376 c 128,-1,23
 1406 1326 1406 1326 1441.5 1256.5 c 0,24,25
 1507 1128.26760563 1507 1128.26760563 1507 948 c 0,26,27
 1507 736.084337349 1507 736.084337349 1418.5 517.5 c 0,28,29
 1327.77880789 293.429585745 1327.77880789 293.429585745 1155.5 139.5 c 0,30,31
 1071 64 1071 64 955 17.5 c 128,-1,32
 839 -29 839 -29 722 -29 c 128,-1,33
 605 -29 605 -29 522.5 0.5 c 128,-1,34
 440 30 440 30 386.5 80.5 c 128,-1,35
 333 131 333 131 297 201 c 0,36,37
 231 329.333333333 231 329.333333333 231 509 c 0,15,16
797 1844 m 17,38,39
 805 1849 805 1849 830 1868 c 128,-1,40
 855 1887 855 1887 870.5 1897 c 128,-1,41
 886 1907 886 1907 910 1920.5 c 0,42,43
 957.111111111 1947 957.111111111 1947 993.055555556 1947 c 128,-1,44
 1029 1947 1029 1947 1054.5 1931.5 c 128,-1,45
 1080 1916 1080 1916 1101 1893.5 c 128,-1,46
 1122 1871 1122 1871 1143 1848.5 c 0,47,48
 1192.93333333 1795 1192.93333333 1795 1246 1795 c 0,49,50
 1280 1795 1280 1795 1302 1806 c 128,-1,51
 1324 1817 1324 1817 1331.5 1820.5 c 128,-1,52
 1339 1824 1339 1824 1353 1833.5 c 128,-1,53
 1367 1843 1367 1843 1373 1846.5 c 128,-1,54
 1379 1850 1379 1850 1393.5 1861 c 128,-1,55
 1408 1872 1408 1872 1411.5 1874.5 c 0,56,57
 1436 1892 1436 1892 1446 1902 c 1,58,-1
 1391 1642 l 1,59,60
 1385 1638 1385 1638 1355 1616.5 c 128,-1,61
 1325 1595 1325 1595 1306 1583.5 c 0,62,63
 1247.34782609 1548 1247.34782609 1548 1200.67391304 1548 c 128,-1,64
 1154 1548 1154 1548 1117.5 1572 c 128,-1,65
 1081 1596 1081 1596 1057 1624 c 128,-1,66
 1033 1652 1033 1652 1003 1676 c 128,-1,67
 973 1700 973 1700 946 1700 c 128,-1,68
 919 1700 919 1700 891 1690 c 128,-1,69
 863 1680 863 1680 845.5 1669.5 c 128,-1,70
 828 1659 828 1659 795.5 1636.5 c 128,-1,71
 763 1614 763 1614 746 1603 c 1,72,-1
 797 1844 l 17,38,39
EndSplineSet
EndChar

StartChar: Odieresis
Encoding: 214 214 51
Width: 1347
Flags: HW
HStem: -29 240<615.557 921.717> 1245 240<818.472 1124.18> 1574 328<758.002 930.998 1229 1402>
VStem: 231 283<320.75 807.326> 676 336<1654.02 1821.6> 1147 336<1654.02 1821.6> 1225 282<645.695 1136.37>
LayerCount: 2
Fore
SplineSet
1160 579 m 0,0,1
 1225 761 1225 761 1225 917 c 0,2,3
 1225 1245 1225 1245 980 1245 c 0,4,5
 773 1245 773 1245 643 1015 c 0,6,7
 572.991974318 891.13964687 572.991974318 891.13964687 543.495987159 753.569823435 c 128,-1,8
 514 616 514 616 514 500.5 c 128,-1,9
 514 385 514 385 572.5 298 c 128,-1,10
 631 211 631 211 760 211 c 0,11,12
 967.510948905 211 967.510948905 211 1096.5 440.5 c 0,13,14
 1135 509 1135 509 1160 579 c 0,0,1
231 509 m 0,15,16
 231 849.270072993 231 849.270072993 429.5 1140.5 c 0,17,18
 575.326517364 1354.44985394 575.326517364 1354.44985394 785 1438.5 c 0,19,20
 901 1485 901 1485 1017.5 1485 c 128,-1,21
 1134 1485 1134 1485 1216.5 1455.5 c 128,-1,22
 1299 1426 1299 1426 1352.5 1376 c 128,-1,23
 1406 1326 1406 1326 1441.5 1256.5 c 0,24,25
 1507 1128.26760563 1507 1128.26760563 1507 948 c 0,26,27
 1507 736.084337349 1507 736.084337349 1418.5 517.5 c 0,28,29
 1327.77880789 293.429585745 1327.77880789 293.429585745 1155.5 139.5 c 0,30,31
 1071 64 1071 64 955 17.5 c 128,-1,32
 839 -29 839 -29 722 -29 c 128,-1,33
 605 -29 605 -29 522.5 0.5 c 128,-1,34
 440 30 440 30 386.5 80.5 c 128,-1,35
 333 131 333 131 297 201 c 0,36,37
 231 329.333333333 231 329.333333333 231 509 c 0,15,16
676 1703 m 0,38,39
 676 1791.60344828 676 1791.60344828 743.75 1846.80172414 c 128,-1,40
 811.5 1902 811.5 1902 879.75 1902 c 128,-1,41
 948 1902 948 1902 980 1861 c 128,-1,42
 1012 1820 1012 1820 1012 1787 c 0,43,44
 1012 1683.33333333 1012 1683.33333333 944.75 1628.66666667 c 128,-1,45
 877.5 1574 877.5 1574 809.75 1574 c 128,-1,46
 742 1574 742 1574 709 1616.5 c 128,-1,47
 676 1659 676 1659 676 1703 c 0,38,39
1147 1703 m 0,48,49
 1147 1791.60344828 1147 1791.60344828 1214.75 1846.80172414 c 128,-1,50
 1282.5 1902 1282.5 1902 1350.25 1902 c 128,-1,51
 1418 1902 1418 1902 1450.5 1861 c 128,-1,52
 1483 1820 1483 1820 1483 1787 c 0,53,54
 1483 1683.33333333 1483 1683.33333333 1415.75 1628.66666667 c 128,-1,55
 1348.5 1574 1348.5 1574 1280.75 1574 c 128,-1,56
 1213 1574 1213 1574 1180 1616.5 c 128,-1,57
 1147 1659 1147 1659 1147 1703 c 0,48,49
EndSplineSet
EndChar

StartChar: multiply
Encoding: 215 215 52
Width: 833
Flags: HW
LayerCount: 2
Fore
SplineSet
159 458 m 1,0,-1
 387 647 l 1,1,-1
 216 859 l 1,2,-1
 421 1030 l 1,3,-1
 591 818 l 1,4,-1
 835 1023 l 1,5,-1
 971 854 l 1,6,-1
 725 649 l 1,7,-1
 887 448 l 1,8,-1
 683 277 l 1,9,-1
 522 479 l 1,10,-1
 294 289 l 1,11,-1
 159 458 l 1,0,-1
EndSplineSet
EndChar

StartChar: Oslash
Encoding: 216 216 53
Width: 1425
Flags: HW
HStem: -29 242<684.855 914.701> 1249 240<819.139 1047.31>
VStem: 236 284<426.918 820.848> 1227 284<660.87 1065.28>
LayerCount: 2
Back
SplineSet
533.795 -28.6719 m 5,0,-1
 247.128 -28.6719 l 1,1,-1
 901.745 1515.5 l 1,2,-1
 1169.41 1515.52 l 1,3,-1
 533.795 -28.6719 l 5,0,-1
1046.53 753.664 m 0,4,5
 1046.53 825.995499893 1046.53 825.995499893 1037.03200921 892.815657487 c 0
 1027.53401841 959.63581508 1027.53401841 959.63581508 1003.53581479 1025.89946251 c 0
 979.537611176 1092.16310995 979.537611176 1092.16310995 942.993545206 1140.62061749 c 0
 906.449479237 1189.07812503 906.449479237 1189.07812503 847.748230794 1219.17906251 c 0
 789.046982351 1249.28 789.046982351 1249.28 714.752 1249.28 c 0,6,7
 641.011055563 1249.28 641.011055563 1249.28 582.504525945 1219.20435907 c 0
 523.997996328 1189.12871815 523.997996328 1189.12871815 487.355442055 1140.59532093 c 0
 450.712887781 1092.06192371 450.712887781 1092.06192371 426.530637945 1025.92475907 c 0
 402.348388109 959.787594435 402.348388109 959.787594435 392.662194055 892.790360927 c 0
 382.976 825.79312742 382.976 825.79312742 382.976 753.664 c 0,8,9
 382.976 689.179551633 382.976 689.179551633 390.13229578 627.633277386 c 0
 397.28859156 566.087003138 397.28859156 566.087003138 412.41295422 504.067597614 c 0
 427.53731688 442.048192091 427.53731688 442.048192091 453.92179578 390.490805163 c 0
 480.306274679 338.933418236 480.306274679 338.933418236 515.77695422 298.594042059 c 0
 551.247633761 258.254665882 551.247633761 258.254665882 602.28129578 235.623332941 c 0
 653.314957799 212.992 653.314957799 212.992 714.752 212.992 c 0,10,11
 761.54960668 212.992 761.54960668 212.992 802.329137084 225.988044954 c 0
 843.108667488 238.984089908 843.108667488 238.984089908 874.530206666 262.87450778 c 0
 905.951745843 286.764925652 905.951745843 286.764925652 931.997887084 318.870916048 c 0
 958.044028326 350.976906444 958.044028326 350.976906444 976.594831666 390.880898405 c 0
 995.145635006 430.784890367 995.145635006 430.784890367 1008.88238708 474.011709017 c 0
 1022.61913916 517.238527666 1022.61913916 517.238527666 1030.72320667 565.16697653 c 0
 1038.82727417 613.095425394 1038.82727417 613.095425394 1042.67863708 659.45395511 c 0
 1046.53 705.812484827 1046.53 705.812484827 1046.53 753.664 c 0,4,5
100.352 753.664 m 0,12,13
 100.352 824.345877551 100.352 824.345877551 110.529150833 895.464262391 c 0
 120.706301667 966.58264723 120.706301667 966.58264723 143.554207767 1039.56035569 c 0
 166.402113867 1112.53806414 166.402113867 1112.53806414 200.091833049 1177.77246064 c 0
 233.781552231 1243.00685714 233.781552231 1243.00685714 283.988493481 1300.39023324 c 0
 334.195434732 1357.77360933 334.195434732 1357.77360933 395.696731008 1399.33588921 c 0
 457.198027285 1440.8981691 457.198027285 1440.8981691 539.063012432 1464.89908455 c 0
 620.927997579 1488.9 620.927997579 1488.9 714.752 1488.9 c 0,14,15
 809.005217848 1488.9 809.005217848 1488.9 891.094592741 1464.89287988 c 0
 973.183967634 1440.88575975 973.183967634 1440.88575975 1034.71620026 1399.34209389 c 0
 1096.24843289 1357.79842802 1096.24843289 1357.79842802 1146.38653443 1300.38402856 c 0
 1196.52463597 1242.96962911 1196.52463597 1242.96962911 1230.06583292 1177.77866531 c 0
 1263.60702986 1112.58770152 1263.60702986 1112.58770152 1286.31110586 1039.55415101 c 0
 1309.01518187 966.520600505 1309.01518187 966.520600505 1319.08259093 895.470467063 c 0
 1329.15 824.420333622 1329.15 824.420333622 1329.15 753.664 c 0,16,17
 1329.15 503.320180631 1329.15 503.320180631 1229.14232563 302.469290494 c 0
 1105.11724183 53.3829215045 1105.11724183 53.3829215045 869.808978964 -9.22897714633 c 0
 796.138944241 -28.5439246379 796.138944241 -28.5439246379 714.752 -28.6719 c 0,18,19
 420.387242263 -28.6719 420.387242263 -28.6719 253.092588061 213.926670062 c 0
 126.798713654 397.06888393 126.798713654 397.06888393 104.300724001 661.496350065 c 0
 100.394131688 708.385657639 100.394131688 708.385657639 100.352 753.664 c 0,12,13
EndSplineSet
Fore
SplineSet
344 135 m 1,0,1
 236 272.454545455 236 272.454545455 236 537 c 0,2,3
 236 736.724137931 236 736.724137931 322.5 948.5 c 0,4,5
 417.400301925 1180.84211851 417.400301925 1180.84211851 589 1327.5 c 0,6,7
 777.965986395 1489 777.965986395 1489 1037 1489 c 0,8,9
 1137 1489 1137 1489 1193 1466 c 1,10,-1
 1206 1493 l 1,11,-1
 1478 1493 l 1,12,-1
 1387 1348 l 1,13,14
 1511 1209 1511 1209 1511 966 c 0,15,16
 1511 637.777777778 1511 637.777777778 1323.5 347.5 c 0,17,18
 1256 243 1256 243 1171.5 161 c 128,-1,19
 1087 79 1087 79 966 25 c 128,-1,20
 845 -29 845 -29 734 -29 c 128,-1,21
 623 -29 623 -29 544 -6 c 1,22,-1
 526 -29 l 1,23,-1
 242 -29 l 1,24,-1
 344 135 l 1,0,1
684 223 m 1,25,26
 692 222 692 222 704 219 c 0,27,28
 728 213 728 213 781 213 c 128,-1,29
 834 213 834 213 902 248.5 c 128,-1,30
 970 284 970 284 1018 338.5 c 128,-1,31
 1066 393 1066 393 1105 464.5 c 0,32,33
 1173.16157205 589.462882096 1173.16157205 589.462882096 1200.08078603 716.231441048 c 128,-1,34
 1227 843 1227 843 1227 920.5 c 128,-1,35
 1227 998 1227 998 1212 1067 c 1,36,-1
 684 223 l 1,25,26
1048 1241 m 1,37,-1
 986 1249 l 1,38,39
 766.556338028 1249 766.556338028 1249 637.5 1011 c 0,40,41
 520 794.311688312 520 794.311688312 520 545 c 0,42,43
 520 469 520 469 531 426 c 1,44,-1
 1048 1241 l 1,37,-1
EndSplineSet
EndChar

StartChar: Ucircumflex
Encoding: 219 219 54
Width: 1298
Flags: HW
HStem: -35 240<555.472 824.074> 1436 20G<419.77 692 1196.77 1469>
VStem: 218 273<274.975 694.75>
LayerCount: 2
Fore
SplineSet
630 -35 m 0,0,1
 428 -35 428 -35 323 79.5 c 128,-1,2
 218 194 218 194 218 393 c 0,3,4
 218 485 218 485 240 586 c 2,5,-1
 424 1456 l 1,6,-1
 692 1456 l 1,7,-1
 508 586 l 2,8,9
 491 504 491 504 491 420 c 128,-1,10
 491 336 491 336 536 270.5 c 128,-1,11
 581 205 581 205 681 205 c 0,12,13
 839.069306931 205 839.069306931 205 937.5 373.5 c 0,14,15
 991.850767085 466.541143654 991.850767085 466.541143654 1017 586 c 2,16,-1
 1201 1456 l 1,17,-1
 1469 1456 l 1,18,-1
 1285 586 l 2,19,20
 1226 306 1226 306 1053 135.5 c 128,-1,21
 880 -35 880 -35 630 -35 c 0,0,1
1392 1566 m 1,22,-1
 1121 1566 l 1,23,-1
 1023 1727 l 1,24,-1
 866 1569 l 1,25,-1
 589 1569 l 1,26,-1
 945 1910 l 1,27,-1
 1181 1910 l 1,28,-1
 1392 1566 l 1,22,-1
EndSplineSet
EndChar

StartChar: Udieresis
Encoding: 220 220 55
Width: 1298
Flags: HW
HStem: -35 240<555.472 824.074> 1436 20G<419.77 692 1196.77 1469> 1537 328<696.002 868.998 1167 1340>
VStem: 218 273<274.975 694.75> 615 336<1617.17 1784.98> 1086 336<1617.17 1784.98>
LayerCount: 2
Fore
SplineSet
630 -35 m 0,0,1
 428 -35 428 -35 323 79.5 c 128,-1,2
 218 194 218 194 218 393 c 0,3,4
 218 485 218 485 240 586 c 2,5,-1
 424 1456 l 1,6,-1
 692 1456 l 1,7,-1
 508 586 l 2,8,9
 491 504 491 504 491 420 c 128,-1,10
 491 336 491 336 536 270.5 c 128,-1,11
 581 205 581 205 681 205 c 0,12,13
 839.069306931 205 839.069306931 205 937.5 373.5 c 0,14,15
 991.850767085 466.541143654 991.850767085 466.541143654 1017 586 c 2,16,-1
 1201 1456 l 1,17,-1
 1469 1456 l 1,18,-1
 1285 586 l 2,19,20
 1226 306 1226 306 1053 135.5 c 128,-1,21
 880 -35 880 -35 630 -35 c 0,0,1
615 1666 m 0,22,23
 615 1755.66666667 615 1755.66666667 682.25 1810.33333333 c 128,-1,24
 749.5 1865 749.5 1865 817.75 1865 c 128,-1,25
 886 1865 886 1865 918.5 1823 c 128,-1,26
 951 1781 951 1781 951 1749 c 0,27,28
 951 1647.39655172 951 1647.39655172 883.25 1592.19827586 c 128,-1,29
 815.5 1537 815.5 1537 747.75 1537 c 128,-1,30
 680 1537 680 1537 647.5 1579 c 128,-1,31
 615 1621 615 1621 615 1666 c 0,22,23
1086 1666 m 0,32,33
 1086 1755.66666667 1086 1755.66666667 1153.25 1810.33333333 c 128,-1,34
 1220.5 1865 1220.5 1865 1288.25 1865 c 128,-1,35
 1356 1865 1356 1865 1389 1823 c 128,-1,36
 1422 1781 1422 1781 1422 1749 c 0,37,38
 1422 1647.39655172 1422 1647.39655172 1354.25 1592.19827586 c 128,-1,39
 1286.5 1537 1286.5 1537 1218.75 1537 c 128,-1,40
 1151 1537 1151 1537 1118.5 1579 c 128,-1,41
 1086 1621 1086 1621 1086 1666 c 0,32,33
EndSplineSet
EndChar

StartChar: Yacute
Encoding: 221 221 56
Width: 1179
Flags: HW
HStem: 0 21G<530 802.261> 1435 20G<376 722.526 1212.97 1568> 1435 20G<376 722.526 1212.97 1568>
LayerCount: 2
Fore
SplineSet
376 1455 m 1,0,-1
 716 1455 l 1,1,-1
 871 980 l 1,2,-1
 1228 1455 l 1,3,-1
 1568 1455 l 1,4,-1
 945 690 l 1,5,-1
 798 0 l 1,6,-1
 530 0 l 1,7,-1
 677 690 l 1,8,-1
 376 1455 l 1,0,-1
1023 1895 m 0,9,10
 987.371991247 1895 987.371991247 1895 957.595959596 1946.15656566 c 0,11,12
 931.557040998 1990.8926025 931.557040998 1990.8926025 952 2042 c 0,13,14
 955 2050 955 2050 963 2055 c 2,15,-1
 1297 2302 l 2,16,17
 1310 2312 1310 2312 1323 2312 c 0,18,19
 1377.71428571 2312 1377.71428571 2312 1413 2255 c 0,20,21
 1426 2235 1426 2235 1426 2209.5 c 0,22,23
 1426 2140 1426 2140 1390 2113 c 1,24,-1
 1037 1900 l 2,25,26
 1029 1895 1029 1895 1023 1895 c 0,9,10
EndSplineSet
EndChar

StartChar: Thorn
Encoding: 222 222 57
Width: 1384
Flags: HW
HStem: 0 21G<135 407.251> 287 239<515 790.835> 961 238<658 880.188> 1436 20G<439.755 712>
VStem: 969 274<663.697 881.687>
LayerCount: 2
Back
SplineSet
292.454 477.103 m 1,0,1
 364.205491003 477.103 364.205491003 477.103 428.781889841 482.227787717 c 0
 493.358288679 487.352575434 493.358288679 487.352575434 559.234276826 498.868087283 c 0
 625.110264972 510.383599133 625.110264972 510.383599133 677.7476491 531.314037717 c 0
 730.385033228 552.244476301 730.385033228 552.244476301 772.068758307 581.382087283 c 0
 813.752483386 610.519698266 813.752483386 610.519698266 836.546741693 653.527287717 c 0
 859.341 696.534877168 859.341 696.534877168 859.341 749.731 c 0,2,3
 859.341 798.28868771 859.341 798.28868771 838.955469411 837.781150118 c 0
 818.569938822 877.273612525 818.569938822 877.273612525 785.827483942 903.821371748 c 0
 753.085029061 930.369130971 753.085029061 930.369130971 704.802373201 950.250526211 c 0
 656.519717341 970.131921451 656.519717341 970.131921451 608.171239044 981.193371748 c 0
 559.822760747 992.254822045 559.822760747 992.254822045 500.283026262 998.933709884 c 0
 440.743291778 1005.61259772 440.743291778 1005.61259772 393.428836711 1007.59629886 c 0
 346.114381645 1009.58 346.114381645 1009.58 292.454 1009.58 c 1,4,-1
 292.454 477.103 l 1,0,1
135.168 1456.13 m 1,5,-1
 292.454 1456.13 l 1,6,-1
 292.454 1150.16 l 1,7,8
 376.221067059 1150.16 376.221067059 1150.16 450.849539359 1144.74018962 c 0
 525.478011659 1139.32037924 525.478011659 1139.32037924 599.710763848 1126.18237306 c 0
 673.943516037 1113.04436688 673.943516037 1113.04436688 735.104909621 1092.59017796 c 0
 796.266303205 1072.13598904 796.266303205 1072.13598904 849.390845481 1040.46253633 c 0
 902.515387756 1008.78908361 902.515387756 1008.78908361 938.88303207 968.010055511 c 0
 975.250676384 927.231027415 975.250676384 927.231027415 995.940338192 871.731667521 c 0
 1016.63 816.232307626 1016.63 816.232307626 1016.63 749.731 c 0,9,10
 1016.63 677.965549495 1016.63 677.965549495 995.48900442 618.986766394 c 0
 974.34800884 560.007983293 974.34800884 560.007983293 937.881473714 517.730819612 c 0
 901.414938588 475.453655931 901.414938588 475.453655931 847.263097714 443.253017123 c 0
 793.111256841 411.052378314 793.111256841 411.052378314 732.538698204 391.065962469 c 0
 671.966139567 371.079546625 671.966139567 371.079546625 596.800689551 358.577996714 c 0
 521.635239536 346.076446804 521.635239536 346.076446804 448.953893539 341.301723402 c 0
 376.272547543 336.527 376.272547543 336.527 292.454 336.527 c 1,11,-1
 292.454 0 l 1,12,-1
 135.168 0 l 1,13,-1
 135.168 1456.13 l 1,5,-1
EndSplineSet
Fore
SplineSet
515 526 m 1,0,1
 915.753846154 526 915.753846154 526 964 750 c 0,2,3
 969 773 969 773 969 790 c 0,4,5
 969 961 969 961 607 961 c 1,6,-1
 515 526 l 1,0,1
444 1456 m 1,7,-1
 712 1456 l 1,8,-1
 658 1199 l 1,9,10
 1243 1199 1243 1199 1243 853 c 0,11,12
 1243 713.756097561 1243 713.756097561 1170 582 c 0,13,14
 1098.95724566 453.776492169 1098.95724566 453.776492169 945 374.5 c 0,15,16
 775.072463768 287 775.072463768 287 464 287 c 1,17,-1
 403 0 l 1,18,-1
 135 0 l 1,19,-1
 444 1456 l 1,7,-1
EndSplineSet
EndChar

StartChar: germandbls
Encoding: 223 223 58
Width: 1261
Flags: HW
HStem: -29 224<535.092 861.12> 0 21G<62 340> 649 195<714 881.813> 1294 234<739.056 1048.73>
VStem: 996 256<313.904 552.197> 1085 258<990.395 1258.6>
LayerCount: 2
Back
SplineSet
164.188 1151.75 m 1,0,1
 198.879575449 1228.56829057 198.879575449 1228.56829057 241.414688409 1286.14429843 c 0
 283.949801369 1343.72030629 283.949801369 1343.72030629 341.496264716 1388.26070157 c 0
 399.042728063 1432.80109686 399.042728063 1432.80109686 475.280594659 1455.76054843 c 0
 551.518461255 1478.72 551.518461255 1478.72 645.018 1478.72 c 0,2,3
 738.639669141 1478.72 738.639669141 1478.72 820.773814494 1450.91824889 c 0
 902.907959848 1423.11649778 902.907959848 1423.11649778 963.975123006 1372.34206361 c 0
 1025.04228616 1321.56762944 1025.04228616 1321.56762944 1059.05593949 1244.26012389 c 0
 1093.06959282 1166.95261834 1093.06959282 1166.95261834 1089.99 1073.71 c 1,4,5
 1089.99 1018.15020222 1089.99 1018.15020222 1067.90575106 968.425954513 c 0
 1045.82150213 918.701706805 1045.82150213 918.701706805 1012.09080094 883.683597487 c 0
 978.360099742 848.66548817 978.360099742 848.66548817 933.945559064 819.818082513 c 0
 889.531018387 790.970676855 889.531018387 790.970676855 849.273488936 774.059165487 c 0
 809.015959484 757.147654119 809.015959484 757.147654119 769.475 746.742 c 1,6,7
 799.750639921 739.453360955 799.750639921 739.453360955 834.198378807 725.253297725 c 0
 868.646117692 711.053234495 868.646117692 711.053234495 907.39203786 689.565785608 c 0
 946.137958027 668.078336722 946.137958027 668.078336722 981.063563992 638.121575503 c 0
 1015.98916996 608.164814284 1015.98916996 608.164814284 1044.52333416 573.077896719 c 0
 1073.05749835 537.990979155 1073.05749835 537.990979155 1089.95874918 492.629186614 c 0
 1106.86 447.267394073 1106.86 447.267394073 1106.86 398.685 c 0,8,9
 1106.86 296.440196873 1106.86 296.440196873 1068.80156128 214.668371354 c 0
 1030.74312256 132.896545835 1030.74312256 132.896545835 962.863532472 79.7966380211 c 0
 894.983942389 26.6967302077 894.983942389 26.6967302077 802.702748778 -1.41773489614 c 0
 710.421555167 -29.5322 710.421555167 -29.5322 600.72 -29.5322 c 0,10,11
 554.265067558 -29.5322 554.265067558 -29.5322 511.946858817 -16.7993665046 c 0
 469.628650077 -4.06653300929 469.628650077 -4.06653300929 415.089 23.2041 c 1,12,-1
 505.795 145.552 l 1,13,14
 516.029401018 141.713682673 516.029401018 141.713682673 530.450691242 134.759874196 c 0
 544.871981465 127.806065718 544.871981465 127.806065718 555.101730633 122.722844554 c 0
 565.331479802 117.639623391 565.331479802 117.639623391 577.913284992 113.664811696 c 0
 590.495090182 109.69 590.495090182 109.69 600.72 109.69 c 0,15,16
 643.258667665 109.69 643.258667665 109.69 682.387259477 115.010524543 c 0
 721.51585129 120.331049087 721.51585129 120.331049087 757.603513117 131.620259713 c 0
 793.691174944 142.90947034 793.691174944 142.90947034 824.296017495 159.610495389 c 0
 854.900860045 176.311520438 854.900860045 176.311520438 880.001023321 199.98385155 c 0
 905.101186598 223.656182662 905.101186598 223.656182662 922.67185423 252.770862736 c 0
 940.242521862 281.885542809 940.242521862 281.885542809 949.844760931 318.974148926 c 0
 959.447 356.062755043 959.447 356.062755043 959.447 398.685 c 0,17,18
 959.447 470.897643215 959.447 470.897643215 896.011133567 536.799910804 c 0
 832.575267134 602.702178392 832.575267134 602.702178392 735.876199766 640.971089196 c 0
 639.177132398 679.24 639.177132398 679.24 541.655 679.24 c 2,19,-1
 505.795 679.24 l 2,20,21
 479.88805451 678.800547047 479.88805451 678.800547047 463.605 672.911 c 1,22,-1
 463.605 824.791 l 1,23,24
 478.372 820.572 478.372 820.572 499.466 820.572 c 2,25,-1
 541.655 820.572 l 2,26,27
 606.788911188 820.572 606.788911188 820.572 676.22885499 838.602589785 c 0
 745.668798792 856.633179571 745.668798792 856.633179571 804.956285635 888.172097715 c 0
 864.243772479 919.711015859 864.243772479 919.711015859 902.35288624 968.730714785 c 0
 940.462 1017.75041371 940.462 1017.75041371 940.462 1073.71 c 0,28,29
 940.462 1209.11981681 940.462 1209.11981681 862.998833514 1275.35990841 c 0
 785.535667028 1341.6 785.535667028 1341.6 645.018 1341.6 c 0,30,31
 585.14680378 1341.6 585.14680378 1341.6 535.43907799 1329.5805339 c 0
 485.7313522 1317.56106779 485.7313522 1317.56106779 449.71781801 1296.9192261 c 0
 413.70428382 1276.27738442 413.70428382 1276.27738442 385.14594199 1245.7115739 c 0
 356.587600161 1215.14576338 356.587600161 1215.14576338 337.90076201 1181.1566661 c 0
 319.213923859 1147.16756883 319.213923859 1147.16756883 305.274 1105.35 c 0,32,33
 281.168006738 1035.22164822 281.168006738 1035.22164822 266.755336125 887.062348691 c 0
 252.342665511 738.903049159 252.342665511 738.903049159 248.275570125 596.765682559 c 0
 244.208474739 454.628315958 244.208474739 454.628315958 239.464898625 271.302411191 c 0
 234.72132251 87.9765064246 234.72132251 87.9765064246 229.335 0 c 1,34,-1
 81.9199 0 l 1,35,36
 91.6865846398 111.338371447 91.6865846398 111.338371447 97.4794534771 306.703685542 c 0
 103.272322314 502.068999637 103.272322314 502.068999637 106.407023085 655.002283208 c 0
 109.541723856 807.935566779 109.541723856 807.935566779 123.781306602 952.586123042 c 0
 138.020889348 1097.2366793 138.020889348 1097.2366793 164.188 1151.75 c 1,0,1
EndSplineSet
Fore
SplineSet
561 226 m 1,0,1
 588.9 195 588.9 195 634 195 c 0,2,3
 774 195 774 195 871.5 244 c 128,-1,4
 969 293 969 293 992 399 c 0,5,6
 996 418 996 418 996 439 c 0,7,8
 996 530 996 530 912 589.5 c 128,-1,9
 828 649 828 649 679 649 c 1,10,-1
 649 649.5 l 2,11,12
 650.285714286 650.142857143 650.285714286 650.142857143 651.142857143 653.571428571 c 128,-1,13
 652 657 652 657 653.5 661 c 128,-1,14
 655 665 655 665 656.5 669 c 0,15,16
 659.5 677 659.5 677 668 694 c 1,17,-1
 714 844 l 1,18,19
 824.29787234 844 824.29787234 844 903.14893617 878 c 128,-1,20
 982 912 982 912 1022 959.5 c 0,21,22
 1085 1034.3125 1085 1034.3125 1085 1151 c 0,23,24
 1085 1294 1085 1294 920 1294 c 0,25,26
 727 1294 727 1294 621 1140 c 0,27,28
 583 1085 583 1085 520.5 834 c 128,-1,29
 458 583 458 583 395 324.5 c 128,-1,30
 332 66 332 66 295 0 c 1,31,-1
 62 0 l 1,32,33
 119.978484779 91.3600366217 119.978484779 91.3600366217 230 620 c 0,34,35
 271 817 271 817 325.5 1007 c 128,-1,36
 380 1197 380 1197 427 1260 c 0,37,38
 623 1528 623 1528 970 1528 c 0,39,40
 1146 1528 1146 1528 1244.5 1434.5 c 128,-1,41
 1343 1341 1343 1341 1343 1185 c 0,42,43
 1343 1136 1343 1136 1330 1073 c 0,44,45
 1302 943 1302 943 1234 866.5 c 128,-1,46
 1166 790 1166 790 1096 767 c 1,47,48
 1147 756 1147 756 1199.5 675 c 128,-1,49
 1252 594 1252 594 1252 484 c 0,50,51
 1252 442 1252 442 1243 399 c 0,52,53
 1213 258 1213 258 1123.5 160.5 c 0,54,55
 949.548717949 -29 949.548717949 -29 612 -29 c 0,56,57
 459 -29 459 -29 420 23 c 1,58,-1
 561 226 l 1,0,1
EndSplineSet
EndChar

StartChar: acircumflex
Encoding: 226 226 59
Width: 1036
Flags: HW
HStem: -29 220<359.837 620.32> 0 21G<721 982.262> 524 217<498.931 761.483> 897 205<474.369 812.039> 1462 20G<704.12 973.267>
VStem: 156 249<233.538 432.566> 867 257<578.891 843.578>
LayerCount: 2
Fore
SplineSet
764 485.5 m 128,-1,1
 722 524 722 524 640 524 c 128,-1,2
 558 524 558 524 490 473.5 c 0,3,4
 405 410.375 405 410.375 405 327 c 0,5,6
 405 269 405 269 451.5 230 c 128,-1,7
 498 191 498 191 581 191 c 128,-1,8
 664 191 664 191 726.5 239.5 c 0,9,10
 806 301.192 806 301.192 806 389 c 0,11,0
 806 447 806 447 764 485.5 c 128,-1,1
663 897 m 0,12,13
 565.941176471 897 565.941176471 897 435 844 c 1,14,-1
 367 1008 l 1,15,16
 419 1044 419 1044 522.5 1073 c 128,-1,17
 626 1102 626 1102 701 1102 c 128,-1,18
 776 1102 776 1102 836 1090.5 c 128,-1,19
 896 1079 896 1079 950 1052.5 c 128,-1,20
 1004 1026 1004 1026 1042 986 c 0,21,22
 1124 899.684210526 1124 899.684210526 1124 750 c 0,23,24
 1124 689 1124 689 1107 609 c 2,25,-1
 978 0 l 1,26,-1
 721 0 l 1,27,-1
 750 136 l 1,28,29
 715 72 715 72 631 21.5 c 128,-1,30
 547 -29 547 -29 432.5 -29 c 128,-1,31
 318 -29 318 -29 237 54 c 128,-1,32
 156 137 156 137 156 268 c 0,33,34
 156 314 156 314 166 358 c 0,35,36
 201 522 201 522 329.5 631.5 c 128,-1,37
 458 741 458 741 608 741 c 0,38,39
 707 741 707 741 770.5 690.5 c 128,-1,40
 834 640 834 640 841 576 c 1,41,-1
 859 658 l 2,42,43
 867 693 867 693 867 729 c 0,44,45
 867 897 867 897 663 897 c 0,12,13
1172 1138 m 1,46,-1
 901 1138 l 1,47,-1
 803 1299 l 1,48,-1
 646 1141 l 1,49,-1
 369 1141 l 1,50,-1
 725 1482 l 1,51,-1
 961 1482 l 1,52,-1
 1172 1138 l 1,46,-1
EndSplineSet
EndChar

StartChar: atilde
Encoding: 227 227 60
Width: 1036
Flags: HW
HStem: -29 220<359.837 620.32> 0 21G<721 982.262> 524 217<498.931 761.483> 897 205<474.369 812.039> 1143 247<913.224 1080.17> 1295 247<641.198 786.246>
VStem: 156 249<233.538 432.566> 867 257<578.891 843.578>
LayerCount: 2
Fore
SplineSet
764 485.5 m 128,-1,1
 722 524 722 524 640 524 c 128,-1,2
 558 524 558 524 490 473.5 c 0,3,4
 405 410.375 405 410.375 405 327 c 0,5,6
 405 269 405 269 451.5 230 c 128,-1,7
 498 191 498 191 581 191 c 128,-1,8
 664 191 664 191 726.5 239.5 c 0,9,10
 806 301.192 806 301.192 806 389 c 0,11,0
 806 447 806 447 764 485.5 c 128,-1,1
663 897 m 0,12,13
 565.941176471 897 565.941176471 897 435 844 c 1,14,-1
 367 1008 l 1,15,16
 419 1044 419 1044 522.5 1073 c 128,-1,17
 626 1102 626 1102 701 1102 c 128,-1,18
 776 1102 776 1102 836 1090.5 c 128,-1,19
 896 1079 896 1079 950 1052.5 c 128,-1,20
 1004 1026 1004 1026 1042 986 c 0,21,22
 1124 899.684210526 1124 899.684210526 1124 750 c 0,23,24
 1124 689 1124 689 1107 609 c 2,25,-1
 978 0 l 1,26,-1
 721 0 l 1,27,-1
 750 136 l 1,28,29
 715 72 715 72 631 21.5 c 128,-1,30
 547 -29 547 -29 432.5 -29 c 128,-1,31
 318 -29 318 -29 237 54 c 128,-1,32
 156 137 156 137 156 268 c 0,33,34
 156 314 156 314 166 358 c 0,35,36
 201 522 201 522 329.5 631.5 c 128,-1,37
 458 741 458 741 608 741 c 0,38,39
 707 741 707 741 770.5 690.5 c 128,-1,40
 834 640 834 640 841 576 c 1,41,-1
 859 658 l 2,42,43
 867 693 867 693 867 729 c 0,44,45
 867 897 867 897 663 897 c 0,12,13
558 1439 m 17,46,47
 566 1444 566 1444 591 1463 c 128,-1,48
 616 1482 616 1482 631.5 1492 c 128,-1,49
 647 1502 647 1502 671 1515.5 c 0,50,51
 718.111111111 1542 718.111111111 1542 757.055555556 1542 c 128,-1,52
 796 1542 796 1542 828 1518 c 128,-1,53
 860 1494 860 1494 882.5 1466 c 0,54,55
 943.571428571 1390 943.571428571 1390 1006 1390 c 0,56,57
 1038 1390 1038 1390 1081 1411.5 c 128,-1,58
 1124 1433 1124 1433 1143.5 1448 c 128,-1,59
 1163 1463 1163 1463 1207 1497 c 1,60,-1
 1152 1237 l 1,61,62
 1146 1233 1146 1233 1116 1211.5 c 128,-1,63
 1086 1190 1086 1190 1067 1178.5 c 0,64,65
 1008.34782609 1143 1008.34782609 1143 965.173913043 1143 c 128,-1,66
 922 1143 922 1143 892.5 1158.5 c 128,-1,67
 863 1174 863 1174 840.5 1196.5 c 128,-1,68
 818 1219 818 1219 797 1241.5 c 0,69,70
 747.066666667 1295 747.066666667 1295 713.533333333 1295 c 128,-1,71
 680 1295 680 1295 652 1285 c 128,-1,72
 624 1275 624 1275 606.5 1264.5 c 128,-1,73
 589 1254 589 1254 556.5 1231.5 c 128,-1,74
 524 1209 524 1209 507 1198 c 1,75,-1
 558 1439 l 17,46,47
EndSplineSet
EndChar

StartChar: adieresis
Encoding: 228 228 61
Width: 1036
Flags: HW
HStem: -29 220<359.837 620.32> 0 21G<721 982.262> 524 217<498.931 761.483> 897 205<474.369 812.039> 1167 328<518.002 691.998 989.002 1163>
VStem: 156 249<233.538 432.566> 437 336<1247.17 1414.6> 867 257<578.891 843.578> 908 336<1247.17 1414.6>
LayerCount: 2
Fore
SplineSet
764 485.5 m 128,-1,1
 722 524 722 524 640 524 c 128,-1,2
 558 524 558 524 490 473.5 c 0,3,4
 405 410.375 405 410.375 405 327 c 0,5,6
 405 269 405 269 451.5 230 c 128,-1,7
 498 191 498 191 581 191 c 128,-1,8
 664 191 664 191 726.5 239.5 c 0,9,10
 806 301.192 806 301.192 806 389 c 0,11,0
 806 447 806 447 764 485.5 c 128,-1,1
663 897 m 0,12,13
 565.941176471 897 565.941176471 897 435 844 c 1,14,-1
 367 1008 l 1,15,16
 419 1044 419 1044 522.5 1073 c 128,-1,17
 626 1102 626 1102 701 1102 c 128,-1,18
 776 1102 776 1102 836 1090.5 c 128,-1,19
 896 1079 896 1079 950 1052.5 c 128,-1,20
 1004 1026 1004 1026 1042 986 c 0,21,22
 1124 899.684210526 1124 899.684210526 1124 750 c 0,23,24
 1124 689 1124 689 1107 609 c 2,25,-1
 978 0 l 1,26,-1
 721 0 l 1,27,-1
 750 136 l 1,28,29
 715 72 715 72 631 21.5 c 128,-1,30
 547 -29 547 -29 432.5 -29 c 128,-1,31
 318 -29 318 -29 237 54 c 128,-1,32
 156 137 156 137 156 268 c 0,33,34
 156 314 156 314 166 358 c 0,35,36
 201 522 201 522 329.5 631.5 c 128,-1,37
 458 741 458 741 608 741 c 0,38,39
 707 741 707 741 770.5 690.5 c 128,-1,40
 834 640 834 640 841 576 c 1,41,-1
 859 658 l 2,42,43
 867 693 867 693 867 729 c 0,44,45
 867 897 867 897 663 897 c 0,12,13
437 1296 m 0,46,47
 437 1384.60344828 437 1384.60344828 504.75 1439.80172414 c 128,-1,48
 572.5 1495 572.5 1495 640.25 1495 c 128,-1,49
 708 1495 708 1495 740.5 1453.5 c 128,-1,50
 773 1412 773 1412 773 1379.5 c 0,51,52
 773 1277.39655172 773 1277.39655172 705.25 1222.19827586 c 128,-1,53
 637.5 1167 637.5 1167 569.75 1167 c 128,-1,54
 502 1167 502 1167 469.5 1208.5 c 128,-1,55
 437 1250 437 1250 437 1296 c 0,46,47
908 1296 m 0,56,57
 908 1384.60344828 908 1384.60344828 975.75 1439.80172414 c 128,-1,58
 1043.5 1495 1043.5 1495 1111.75 1495 c 128,-1,59
 1180 1495 1180 1495 1212 1454 c 128,-1,60
 1244 1413 1244 1413 1244 1380 c 0,61,62
 1244 1277.39655172 1244 1277.39655172 1176.25 1222.19827586 c 128,-1,63
 1108.5 1167 1108.5 1167 1040.75 1167 c 128,-1,64
 973 1167 973 1167 940.5 1208.5 c 128,-1,65
 908 1250 908 1250 908 1296 c 0,56,57
EndSplineSet
EndChar

StartChar: aring
Encoding: 229 229 62
Width: 1036
Flags: HW
HStem: -29 220<359.837 620.32> 0 21G<721 982.262> 524 217<498.931 761.483> 897 205<474.369 812.039> 1114 162<715.618 917.938> 1576 162<759.716 962.052>
VStem: 156 249<233.538 432.566> 514 176<1298.44 1505.56> 867 257<578.891 843.578> 987 176<1346.22 1550.99>
LayerCount: 2
Fore
SplineSet
764 485.5 m 128,-1,1
 722 524 722 524 640 524 c 128,-1,2
 558 524 558 524 490 473.5 c 0,3,4
 405 410.375 405 410.375 405 327 c 0,5,6
 405 269 405 269 451.5 230 c 128,-1,7
 498 191 498 191 581 191 c 128,-1,8
 664 191 664 191 726.5 239.5 c 0,9,10
 806 301.192 806 301.192 806 389 c 0,11,0
 806 447 806 447 764 485.5 c 128,-1,1
663 897 m 0,12,13
 565.941176471 897 565.941176471 897 435 844 c 1,14,-1
 367 1008 l 1,15,16
 419 1044 419 1044 522.5 1073 c 128,-1,17
 626 1102 626 1102 701 1102 c 128,-1,18
 776 1102 776 1102 836 1090.5 c 128,-1,19
 896 1079 896 1079 950 1052.5 c 128,-1,20
 1004 1026 1004 1026 1042 986 c 0,21,22
 1124 899.684210526 1124 899.684210526 1124 750 c 0,23,24
 1124 689 1124 689 1107 609 c 2,25,-1
 978 0 l 1,26,-1
 721 0 l 1,27,-1
 750 136 l 1,28,29
 715 72 715 72 631 21.5 c 128,-1,30
 547 -29 547 -29 432.5 -29 c 128,-1,31
 318 -29 318 -29 237 54 c 128,-1,32
 156 137 156 137 156 268 c 0,33,34
 156 314 156 314 166 358 c 0,35,36
 201 522 201 522 329.5 631.5 c 128,-1,37
 458 741 458 741 608 741 c 0,38,39
 707 741 707 741 770.5 690.5 c 128,-1,40
 834 640 834 640 841 576 c 1,41,-1
 859 658 l 2,42,43
 867 693 867 693 867 729 c 0,44,45
 867 897 867 897 663 897 c 0,12,13
955 1543 m 128,-1,47
 923 1576 923 1576 866.5 1576 c 128,-1,48
 810 1576 810 1576 750 1524.23529412 c 128,-1,49
 690 1472.47058824 690 1472.47058824 690 1407.23529412 c 128,-1,50
 690 1342 690 1342 722.5 1309 c 128,-1,51
 755 1276 755 1276 811.5 1276 c 128,-1,52
 868 1276 868 1276 918.5 1319.5 c 0,53,54
 987 1378.5049505 987 1378.5049505 987 1459 c 0,55,46
 987 1510 987 1510 955 1543 c 128,-1,47
521 1426 m 0,56,57
 549 1556 549 1556 661 1647 c 128,-1,58
 773 1738 773 1738 896 1738 c 128,-1,59
 1019 1738 1019 1738 1091 1668 c 128,-1,60
 1163 1598 1163 1598 1163 1491 c 0,61,62
 1163 1324.56502242 1163 1324.56502242 1016.5 1205 c 0,63,64
 905 1114 905 1114 782 1114 c 128,-1,65
 659 1114 659 1114 586.5 1184.5 c 128,-1,66
 514 1255 514 1255 514 1362 c 0,67,68
 514 1395 514 1395 521 1426 c 0,56,57
EndSplineSet
EndChar

StartChar: ae
Encoding: 230 230 63
Width: 1764
Flags: HW
HStem: -29 220<359.837 620.32 1142.07 1378.49> 0 21G<721 982> 469 182<1131 1547> 524 217<498.931 762.807> 868 230<1252.88 1495.44> 897 205<474.369 816.432>
VStem: 156 249<233.538 432.566> 806 277<272.991 466.472> 1547 241<651.68 819.151>
LayerCount: 2
Back
SplineSet
208 294 m 0,0,1
 156 294 156 294 133 260 c 0
 110 226 110 226 110 173 c 0,2,3
 110 120 110 120 133 86 c 0
 156 52 156 52 208 52 c 0,4,5
 253 52 253 52 279.5 87 c 0
 306 122 306 122 306 173 c 0,6,7
 306 224 306 224 279.5 259 c 0
 253 294 253 294 208 294 c 0,0,1
347.172 444.129 m 1,8,9
 375.402368606 490.449013879 375.402368606 490.449013879 405.184564017 512.22450694 c 0
 434.966759428 534 434.966759428 534 484 534 c 0,10,11
 577 534 577 534 622 459.5 c 0
 667 385 667 385 667 262 c 0,12,13
 667 256.66575 667 256.66575 666.2345 245.64625 c 0
 665.469 234.62675 665.469 234.62675 665.469 229 c 1,14,-1
 377.297 229 l 1,15,16
 377.297 211.327318687 377.297 211.327318687 379.116015444 192.203914836 c 0
 380.935030889 173.080510985 380.935030889 173.080510985 387.654552556 146.732085164 c 0
 394.374074223 120.383659343 394.374074223 120.383659343 405.242447444 100.427914836 c 0
 416.110820666 80.4721703283 416.110820666 80.4721703283 436.580984556 66.2360851641 c 0
 457.051148445 52 457.051148445 52 484 52 c 0,17,18
 500.621525082 52 500.621525082 52 512.174627129 55.7979927081 c 0
 523.727729176 59.5959854162 523.727729176 59.5959854162 533.762700996 71.6423713544 c 0
 543.797672817 83.6887572925 543.797672817 83.6887572925 547.915783379 90.4931458331 c 0
 552.033893941 97.2975343737 552.033893941 97.2975343737 563.422 118.484 c 1,19,-1
 628.344 91.6094 l 1,20,21
 600.628842235 37.984474439 600.628842235 37.984474439 568.747074636 11.9922372195 c 0
 536.865307036 -14 536.865307036 -14 484 -14 c 0,22,23
 456 -14 456 -14 435 -8 c 0
 414 -2 414 -2 397.5 14 c 0
 381 30 381 30 372 42 c 0
 363 54 363 54 346 80 c 1,24,25
 344 77 344 77 338.5 66.5 c 0
 333 56 333 56 330.5 52.5 c 0
 328 49 328 49 322.5 40 c 0
 317 31 317 31 313.5 27 c 0
 310 23 310 23 303 16 c 0
 296 9 296 9 290 5.5 c 0
 284 2 284 2 274.5 -2.5 c 0
 265 -7 265 -7 255.5 -9 c 0
 246 -11 246 -11 234 -12.5 c 0
 222 -14 222 -14 208 -14 c 0,26,27
 128 -14 128 -14 82 39 c 0
 36 92 36 92 36 173 c 0,28,29
 36 252 36 252 85 306 c 0
 134 360 134 360 208 360 c 0,30,31
 237 360 237 360 257.5 352.5 c 0
 278 345 278 345 287 335.5 c 0
 296 326 296 326 308 309 c 1,32,33
 308.428949353 312.788818217 308.428949353 312.788818217 307.492382518 323.345751451 c 0
 306.555815682 333.902684685 306.555815682 333.902684685 307.264 337.988 c 0,34,35
 307.264 395.924485411 307.264 395.924485411 283.90132235 430.962242705 c 0
 260.538644699 466 260.538644699 466 210 466 c 0,36,37
 158 466 158 466 120 428 c 1,38,-1
 82 478 l 1,39,40
 85 480 85 480 93 487 c 0
 101 494 101 494 104 496.5 c 0
 107 499 107 499 114.5 504.5 c 0
 122 510 122 510 126.5 512 c 0
 131 514 131 514 139 518.5 c 0
 147 523 147 523 153.5 524.5 c 0
 160 526 160 526 169 528 c 0
 178 530 178 530 188.5 531 c 0
 199 532 199 532 210 532 c 0,41,42
 241.176410316 532 241.176410316 532 266.237058035 521.803664706 c 0
 291.297705755 511.607329412 291.297705755 511.607329412 310.488275298 492.697335294 c 0
 329.678844842 473.787341177 329.678844842 473.787341177 347.172 444.129 c 1,8,9
377.364 295 m 1,43,-1
 591.344 295 l 1,44,45
 587.657585831 331.777422535 587.657585831 331.777422535 581.599348567 359.252507922 c 0
 575.541111303 386.72759331 575.541111303 386.72759331 563.968385808 413.221179578 c 0
 552.395660313 439.714765845 552.395660313 439.714765845 532.185567317 453.857382922 c 0
 511.975474321 468 511.975474321 468 484 468 c 0,46,47
 455.511224177 468 455.511224177 468 434.079377352 451.79652661 c 0
 412.647530527 435.59305322 412.647530527 435.59305322 401.034310148 408.82847339 c 0
 389.421089769 382.063893561 389.421089769 382.063893561 383.727252352 353.67152661 c 0
 378.033414935 325.279159659 378.033414935 325.279159659 377.364 295 c 1,43,-1
EndSplineSet
Fore
SplineSet
764 485.5 m 128,-1,1
 722 524 722 524 640 524 c 128,-1,2
 558 524 558 524 490 473.5 c 0,3,4
 405 410.375 405 410.375 405 327 c 0,5,6
 405 269 405 269 451.5 230 c 128,-1,7
 498 191 498 191 581 191 c 128,-1,8
 664 191 664 191 726.5 239.5 c 0,9,10
 806 301.192 806 301.192 806 389 c 0,11,0
 806 447 806 447 764 485.5 c 128,-1,1
663 897 m 0,12,13
 565.941176471 897 565.941176471 897 435 844 c 1,14,-1
 367 1008 l 1,15,16
 419 1044 419 1044 522.5 1073 c 128,-1,17
 626 1102 626 1102 706 1102 c 0,18,19
 970 1102 970 1102 1070 949 c 1,20,21
 1238 1098 1238 1098 1417 1098 c 128,-1,22
 1596 1098 1596 1098 1692 987 c 128,-1,23
 1788 876 1788 876 1788 694 c 0,24,25
 1788 620 1788 620 1770 537 c 2,26,-1
 1756 469 l 1,27,-1
 1092 469 l 1,28,29
 1083 421 1083 421 1083 375 c 128,-1,30
 1083 329 1083 329 1099.5 290.5 c 128,-1,31
 1116 252 1116 252 1143.5 234 c 0,32,33
 1193.91666667 201 1193.91666667 201 1251 201 c 0,34,35
 1350 201 1350 201 1419 267 c 1,36,-1
 1626 169 l 1,37,38
 1544 75 1544 75 1426 23 c 128,-1,39
 1308 -29 1308 -29 1193.5 -29 c 128,-1,40
 1079 -29 1079 -29 985 35 c 1,41,-1
 978 0 l 1,42,-1
 721 0 l 1,43,-1
 750 136 l 1,44,45
 715 72 715 72 631 21.5 c 128,-1,46
 547 -29 547 -29 432.5 -29 c 128,-1,47
 318 -29 318 -29 237 54 c 128,-1,48
 156 137 156 137 156 268 c 0,49,50
 156 314 156 314 166 358 c 0,51,52
 201 522 201 522 329.5 631.5 c 128,-1,53
 458 741 458 741 608 741 c 0,54,55
 706 741 706 741 770.5 690.5 c 128,-1,56
 835 640 835 640 842 577 c 1,57,58
 842 578.5 842 578.5 847 601.25 c 0,59,60
 867 692.25 867 692.25 867 729 c 0,61,62
 867 897 867 897 663 897 c 0,12,13
1131 651 m 1,63,-1
 1544 651 l 1,64,65
 1547 671 1547 671 1547 689 c 0,66,67
 1547 767 1547 767 1505 817.5 c 128,-1,68
 1463 868 1463 868 1378.5 868 c 128,-1,69
 1294 868 1294 868 1225 803.5 c 128,-1,70
 1156 739 1156 739 1131 651 c 1,63,-1
EndSplineSet
EndChar

StartChar: egrave
Encoding: 232 232 64
Width: 1093
Flags: HW
HStem: -29 230<500.223 763.021> 469 182<501 916.999> 868 230<625.562 865.442>
VStem: 187 266<250.719 467.353> 917 241<651.68 819.151>
LayerCount: 2
Fore
SplineSet
820 1185 m 2,0,-1
 558 1398 l 2,1,2
 546 1408.5 546 1408.5 546 1426.75 c 0,3,4
 546 1463.625 546 1463.625 560 1491.8125 c 0,5,6
 598.760688163 1569.85299269 598.760688163 1569.85299269 685 1594 c 0,7,8
 696 1597 696 1597 708 1597 c 128,-1,9
 720 1597 720 1597 730 1587 c 2,10,-1
 961 1340 l 2,11,12
 965 1336 965 1336 965 1328.5 c 0,13,14
 965 1298.42857143 965 1298.42857143 951.5 1274.21428571 c 0,15,16
 930.654221712 1236.82423894 930.654221712 1236.82423894 896.327110856 1211.91211947 c 0,17,18
 852.354502905 1180 852.354502905 1180 838.677251453 1180 c 128,-1,19
 825 1180 825 1180 820 1185 c 2,0,-1
501 651 m 1,20,-1
 914 651 l 1,21,22
 917 671 917 671 917 689 c 0,23,24
 917 767 917 767 875 817.5 c 128,-1,25
 833 868 833 868 748.5 868 c 128,-1,26
 664 868 664 868 595 803.5 c 128,-1,27
 526 739 526 739 501 651 c 1,20,-1
621 201 m 0,28,29
 720 201 720 201 789 267 c 1,30,-1
 996 169 l 1,31,32
 914 75 914 75 796 23 c 128,-1,33
 678 -29 678 -29 572 -29 c 0,34,35
 402 -29 402 -29 294.5 89 c 128,-1,36
 187 207 187 207 187 396 c 0,37,38
 187 626.027173913 187 626.027173913 328 824.5 c 0,39,40
 420 954 420 954 545 1026 c 128,-1,41
 670 1098 670 1098 818 1098 c 128,-1,42
 966 1098 966 1098 1062 987 c 128,-1,43
 1158 876 1158 876 1158 694 c 0,44,45
 1158 620 1158 620 1140 537 c 2,46,-1
 1126 469 l 1,47,-1
 462 469 l 1,48,49
 453 421 453 421 453 375 c 128,-1,50
 453 329 453 329 469.5 290.5 c 128,-1,51
 486 252 486 252 513.5 234 c 0,52,53
 563.916666667 201 563.916666667 201 621 201 c 0,28,29
EndSplineSet
EndChar

StartChar: eacute
Encoding: 233 233 65
Width: 1093
Flags: HW
HStem: -29 230<500.223 763.021> 469 182<501 916.999> 868 230<625.562 865.442>
VStem: 187 266<250.719 467.353> 917 241<651.68 819.151>
LayerCount: 2
Fore
SplineSet
758 1183 m 2,0,1
 750 1178 750 1178 746.5 1178 c 0,2,3
 711.388888889 1178 711.388888889 1178 679 1231 c 0,4,5
 670 1246 670 1246 667.5 1271.5 c 0,6,7
 662.392638037 1323.59509202 662.392638037 1323.59509202 684 1338 c 1,8,-1
 1019 1585 l 2,9,10
 1032 1595 1032 1595 1045 1595 c 0,11,12
 1099.71428571 1595 1099.71428571 1595 1135 1538 c 0,13,14
 1148 1518 1148 1518 1148 1492.5 c 0,15,16
 1148 1421.2 1148 1421.2 1112 1396 c 1,17,-1
 758 1183 l 2,0,1
501 651 m 1,18,-1
 914 651 l 1,19,20
 917 671 917 671 917 689 c 0,21,22
 917 767 917 767 875 817.5 c 128,-1,23
 833 868 833 868 748.5 868 c 128,-1,24
 664 868 664 868 595 803.5 c 128,-1,25
 526 739 526 739 501 651 c 1,18,-1
621 201 m 0,26,27
 720 201 720 201 789 267 c 1,28,-1
 996 169 l 1,29,30
 914 75 914 75 796 23 c 128,-1,31
 678 -29 678 -29 572 -29 c 0,32,33
 402 -29 402 -29 294.5 89 c 128,-1,34
 187 207 187 207 187 396 c 0,35,36
 187 626.027173913 187 626.027173913 328 824.5 c 0,37,38
 420 954 420 954 545 1026 c 128,-1,39
 670 1098 670 1098 818 1098 c 128,-1,40
 966 1098 966 1098 1062 987 c 128,-1,41
 1158 876 1158 876 1158 694 c 0,42,43
 1158 620 1158 620 1140 537 c 2,44,-1
 1126 469 l 1,45,-1
 462 469 l 1,46,47
 453 421 453 421 453 375 c 128,-1,48
 453 329 453 329 469.5 290.5 c 128,-1,49
 486 252 486 252 513.5 234 c 0,50,51
 563.916666667 201 563.916666667 201 621 201 c 0,26,27
EndSplineSet
EndChar

StartChar: ecircumflex
Encoding: 234 234 66
Width: 964
Flags: HW
HStem: -29 230<500.223 763.021> 469 182<501 916.999> 868 230<625.562 865.442>
VStem: 187 266<250.719 467.353> 917 241<651.68 819.151>
LayerCount: 2
Fore
SplineSet
501 651 m 1,0,-1
 914 651 l 1,1,2
 917 671 917 671 917 689 c 0,3,4
 917 767 917 767 875 817.5 c 128,-1,5
 833 868 833 868 748.5 868 c 128,-1,6
 664 868 664 868 595 803.5 c 128,-1,7
 526 739 526 739 501 651 c 1,0,-1
621 201 m 0,8,9
 720 201 720 201 789 267 c 1,10,-1
 996 169 l 1,11,12
 914 75 914 75 796 23 c 128,-1,13
 678 -29 678 -29 572 -29 c 0,14,15
 402 -29 402 -29 294.5 89 c 128,-1,16
 187 207 187 207 187 396 c 0,17,18
 187 626.027173913 187 626.027173913 328 824.5 c 0,19,20
 420 954 420 954 545 1026 c 128,-1,21
 670 1098 670 1098 818 1098 c 128,-1,22
 966 1098 966 1098 1062 987 c 128,-1,23
 1158 876 1158 876 1158 694 c 0,24,25
 1158 620 1158 620 1140 537 c 2,26,-1
 1126 469 l 1,27,-1
 462 469 l 1,28,29
 453 421 453 421 453 375 c 128,-1,30
 453 329 453 329 469.5 290.5 c 128,-1,31
 486 252 486 252 513.5 234 c 0,32,33
 563.916666667 201 563.916666667 201 621 201 c 0,8,9
1230 1152 m 1,34,-1
 959 1152 l 1,35,-1
 861 1313 l 1,36,-1
 704 1155 l 1,37,-1
 427 1155 l 1,38,-1
 783 1496 l 1,39,-1
 1019 1496 l 1,40,-1
 1230 1152 l 1,34,-1
EndSplineSet
EndChar

StartChar: edieresis
Encoding: 235 235 67
Width: 964
Flags: HW
HStem: -29 230<500.223 763.021> 469 182<501 916.999> 868 230<625.562 865.442> 1144 328<526.386 699.998 997.386 1171>
VStem: 187 266<250.719 467.353> 445 336<1224.17 1391.6> 916 336<1224.17 1391.6> 917 241<651.68 819.151>
LayerCount: 2
Fore
SplineSet
501 651 m 1,0,-1
 914 651 l 1,1,2
 917 671 917 671 917 689 c 0,3,4
 917 767 917 767 875 817.5 c 128,-1,5
 833 868 833 868 748.5 868 c 128,-1,6
 664 868 664 868 595 803.5 c 128,-1,7
 526 739 526 739 501 651 c 1,0,-1
621 201 m 0,8,9
 720 201 720 201 789 267 c 1,10,-1
 996 169 l 1,11,12
 914 75 914 75 796 23 c 128,-1,13
 678 -29 678 -29 572 -29 c 0,14,15
 402 -29 402 -29 294.5 89 c 128,-1,16
 187 207 187 207 187 396 c 0,17,18
 187 626.027173913 187 626.027173913 328 824.5 c 0,19,20
 420 954 420 954 545 1026 c 128,-1,21
 670 1098 670 1098 818 1098 c 128,-1,22
 966 1098 966 1098 1062 987 c 128,-1,23
 1158 876 1158 876 1158 694 c 0,24,25
 1158 620 1158 620 1140 537 c 2,26,-1
 1126 469 l 1,27,-1
 462 469 l 1,28,29
 453 421 453 421 453 375 c 128,-1,30
 453 329 453 329 469.5 290.5 c 128,-1,31
 486 252 486 252 513.5 234 c 0,32,33
 563.916666667 201 563.916666667 201 621 201 c 0,8,9
445 1273 m 0,34,35
 445 1361.60344828 445 1361.60344828 512.75 1416.80172414 c 128,-1,36
 580.5 1472 580.5 1472 648.25 1472 c 128,-1,37
 716 1472 716 1472 748.5 1431 c 128,-1,38
 781 1390 781 1390 781 1357 c 0,39,40
 781 1254.39655172 781 1254.39655172 713.25 1199.19827586 c 128,-1,41
 645.5 1144 645.5 1144 578.25 1144 c 128,-1,42
 511 1144 511 1144 478 1186.5 c 128,-1,43
 445 1229 445 1229 445 1273 c 0,34,35
916 1273 m 0,44,45
 916 1361.60344828 916 1361.60344828 983.75 1416.80172414 c 128,-1,46
 1051.5 1472 1051.5 1472 1119.75 1472 c 128,-1,47
 1188 1472 1188 1472 1220 1431 c 128,-1,48
 1252 1390 1252 1390 1252 1357 c 0,49,50
 1252 1254.39655172 1252 1254.39655172 1184.25 1199.19827586 c 128,-1,51
 1116.5 1144 1116.5 1144 1049.25 1144 c 128,-1,52
 982 1144 982 1144 949 1186.5 c 128,-1,53
 916 1229 916 1229 916 1273 c 0,44,45
EndSplineSet
EndChar

StartChar: igrave
Encoding: 236 236 68
Width: 550
Flags: HW
HStem: 0 21G<139 401.25> 1053 20G<362.75 625>
VStem: 139 539
LayerCount: 2
Fore
SplineSet
367 1073 m 1,0,-1
 625 1073 l 1,1,-1
 397 0 l 1,2,-1
 139 0 l 1,3,-1
 367 1073 l 1,0,-1
537 1185 m 2,4,-1
 275 1398 l 1,5,6
 262 1411 262 1411 262 1426.5 c 128,-1,7
 262 1442 262 1442 265 1457.5 c 0,8,9
 278.183486239 1525.6146789 278.183486239 1525.6146789 354 1573 c 0,10,11
 393.428571429 1597 393.428571429 1597 415.214285714 1597 c 128,-1,12
 437 1597 437 1597 447 1587 c 2,13,-1
 678 1340 l 2,14,15
 682 1336 682 1336 682 1328.5 c 0,16,17
 682 1298.42857143 682 1298.42857143 668.5 1274.21428571 c 0,18,19
 647.654221712 1236.82423894 647.654221712 1236.82423894 613.327110856 1211.91211947 c 0,20,21
 569.354502905 1180 569.354502905 1180 555.677251453 1180 c 128,-1,22
 542 1180 542 1180 537 1185 c 2,4,-1
EndSplineSet
EndChar

StartChar: iacute
Encoding: 237 237 69
Width: 544
Flags: HW
HStem: 0 21G<139 401.25> 1053 20G<362.75 625>
LayerCount: 2
Fore
SplineSet
367 1073 m 1,0,-1
 625 1073 l 1,1,-1
 397 0 l 1,2,-1
 139 0 l 1,3,-1
 367 1073 l 1,0,-1
493 1180 m 0,4,5
 460.772903226 1180 460.772903226 1180 428.095959596 1231.65656566 c 0,6,7
 400.997688222 1274.49422056 400.997688222 1274.49422056 422 1327 c 0,8,9
 425 1335 425 1335 433 1340 c 2,10,-1
 767 1587 l 2,11,12
 780 1597 780 1597 793 1597 c 0,13,14
 847.714285714 1597 847.714285714 1597 883 1540 c 0,15,16
 896 1520 896 1520 896 1494.5 c 0,17,18
 896 1425 896 1425 860 1398 c 1,19,-1
 507 1185 l 2,20,21
 499 1180 499 1180 493 1180 c 0,4,5
EndSplineSet
EndChar

StartChar: icircumflex
Encoding: 238 238 70
Width: 546
Flags: HW
HStem: 0 21G<139 412.25> 1053 20G<362.75 636> 1470 20G<452.062 721.267>
LayerCount: 2
Fore
SplineSet
920 1146 m 1,0,-1
 649 1146 l 1,1,-1
 551 1307 l 1,2,-1
 393 1149 l 1,3,-1
 116 1149 l 1,4,-1
 473 1490 l 1,5,-1
 709 1490 l 1,6,-1
 920 1146 l 1,0,-1
367 1073 m 1,7,-1
 636 1073 l 1,8,-1
 408 0 l 1,9,-1
 139 0 l 1,10,-1
 367 1073 l 1,7,-1
EndSplineSet
EndChar

StartChar: idieresis
Encoding: 239 239 71
Width: 548
Flags: HW
HStem: 0 21G<139 412.25> 1053 20G<362.75 636> 1159 328<244.75 413.647 715.75 884.647>
LayerCount: 2
Fore
SplineSet
633 1289 m 0,0,1
 633 1377.05128205 633 1377.05128205 700 1432.02564103 c 128,-1,2
 767 1487 767 1487 830.5 1487 c 128,-1,3
 894 1487 894 1487 931 1450.5 c 128,-1,4
 968 1414 968 1414 968 1358 c 0,5,6
 968 1269.76923077 968 1269.76923077 900.5 1214.38461538 c 128,-1,7
 833 1159 833 1159 770 1159 c 128,-1,8
 707 1159 707 1159 670 1196 c 128,-1,9
 633 1233 633 1233 633 1289 c 0,0,1
162 1289 m 0,10,11
 162 1377.05128205 162 1377.05128205 229 1432.02564103 c 128,-1,12
 296 1487 296 1487 359.5 1487 c 128,-1,13
 423 1487 423 1487 460 1450.5 c 128,-1,14
 497 1414 497 1414 497 1358 c 0,15,16
 497 1269.76923077 497 1269.76923077 429.5 1214.38461538 c 128,-1,17
 362 1159 362 1159 299 1159 c 128,-1,18
 236 1159 236 1159 199 1196 c 128,-1,19
 162 1233 162 1233 162 1289 c 0,10,11
367 1073 m 1,20,-1
 636 1073 l 1,21,-1
 408 0 l 1,22,-1
 139 0 l 1,23,-1
 367 1073 l 1,20,-1
EndSplineSet
EndChar

StartChar: eth
Encoding: 240 240 72
Width: 1062
Flags: HW
HStem: -49 229<463.662 646.524> 723 229<543.417 738.472> 1292 199<471.711 682.961>
VStem: 153 266<223.621 558.995> 894 217<799 1044.72>
LayerCount: 2
Back
SplineSet
223.232 454.656 m 0,0,1
 223.232 281.989248189 223.232 281.989248189 329.324966812 178.42903584 c 0
 399.714816742 109.71960085 399.714816742 109.71960085 475.831369287 106.608437013 c 0
 479.069185843 106.512852186 479.069185843 106.512852186 481.28 106.496 c 0,2,3
 526.276991662 106.496 526.276991662 106.496 569.678639958 125.607000968 c 0
 613.080288253 144.718001935 613.080288253 144.718001935 648.029392042 178.512807032 c 0
 682.978495831 212.307612129 682.978495831 212.307612129 709.794607958 255.827032968 c 0
 736.610720084 299.346453806 736.610720084 299.346453806 751.281360042 351.003559032 c 0
 765.952 402.660664259 765.952 402.660664259 765.952 454.656 c 0,4,5
 765.952 524.289771626 765.952 524.289771626 736.675444877 587.925628604 c 0
 707.398889754 651.561485582 707.398889754 651.561485582 661.020555123 695.210371396 c 0
 614.642220493 738.859257209 614.642220493 738.859257209 556.835444877 764.693628604 c 0
 499.028669261 790.528 499.028669261 790.528 442.368 790.528 c 0,6,7
 383.687306382 790.528 383.687306382 790.528 331.953826595 737.52590681 c 0
 280.220346809 684.52381362 280.220346809 684.52381362 251.726173405 607.327426523 c 0
 223.232 530.131039427 223.232 530.131039427 223.232 454.656 c 0,0,1
673.792 1290.24 m 1,8,9
 708.69104585 1250.35699908 708.69104585 1250.35699908 744.992979969 1196.81793116 c 0
 781.294914088 1143.27886324 781.294914088 1143.27886324 816.671020031 1078.09725634 c 0
 852.047125974 1012.91564944 852.047125974 1012.91564944 876.448979969 939.21680616 c 0
 900.850833963 865.517962877 900.850833963 865.517962877 905.216 800.768 c 0,10,11
 906.021538722 788.923288072 906.021538722 788.923288072 910.405390625 729.255953125 c 0
 914.789242528 669.588618178 914.789242528 669.588618178 914.940875 660.694125 c 0
 915.092507472 651.799631822 915.092507472 651.799631822 917.685921875 587.417234375 c 0
 920.279336278 523.034836928 920.279336278 523.034836928 917.504 501.76 c 1,12,13
 917.504 279.622702444 917.504 279.622702444 799.570871396 128.947956641 c 0
 694.357193208 -5.47605469021 694.357193208 -5.47605469021 539.254737329 -25.6010628356 c 0
 515.073594777 -28.6084306378 515.073594777 -28.6084306378 491.521 -28.6719 c 0,14,15
 243.557741528 -28.6719 243.557741528 -28.6719 136.783175951 167.859837714 c 0
 71.9012244022 288.375743254 71.9012244022 288.375743254 71.6797 458.752 c 0,16,17
 71.6797 653.254435456 71.6797 653.254435456 181.8948175 789.475217728 c 0
 292.109935 925.696 292.109935 925.696 452.608 925.696 c 0,18,19
 480.28722972 925.696 480.28722972 925.696 504.886695389 922.997752599 c 0
 529.486161058 920.299505199 529.486161058 920.299505199 550.086144117 914.740914067 c 0
 570.686127177 909.182322936 570.686127177 909.182322936 588.127079477 902.618888402 c 0
 605.568031777 896.055453868 605.568031777 896.055453868 621.628487053 886.321753573 c 0
 637.688942329 876.588053279 637.688942329 876.588053279 650.331216651 867.676468649 c 0
 662.973490973 858.764884019 662.973490973 858.764884019 676.854253857 846.373111598 c 0
 690.73501674 833.981339177 690.73501674 833.981339177 700.938448475 824.238641488 c 0
 711.141880211 814.495943799 711.141880211 814.495943799 725.202786093 800.963136289 c 0
 739.263691975 787.430328779 739.263691975 787.430328779 749.568 778.24 c 1,20,21
 749.568 866.646333333 749.568 866.646333333 689.846555412 1004.69807843 c 0
 630.125110823 1142.74982353 630.125110823 1142.74982353 561.152 1204.22 c 1,22,-1
 407.552 1060.86 l 1,23,-1
 309.248 1161.22 l 1,24,-1
 444.416 1290.24 l 1,25,26
 373.399405317 1314.82 373.399405317 1314.82 284.672 1314.82 c 0,27,28
 242.823463492 1314.71275523 242.823463492 1314.71275523 169.984 1306.62 c 1,29,-1
 155.648 1454.08 l 1,30,31
 182.272 1456.13 182.272 1456.13 237.568 1456.13 c 0,32,33
 428.645553719 1456.13 428.645553719 1456.13 565.248 1386.5 c 1,34,-1
 720.896 1525.76 l 1,35,-1
 817.152 1417.22 l 1,36,-1
 673.792 1290.24 l 1,8,9
EndSplineSet
Fore
SplineSet
509.5 643 m 0,0,1
 419 523.330578512 419 523.330578512 419 373 c 0,2,3
 419 284 419 284 456.5 232 c 128,-1,4
 494 180 494 180 540 180 c 0,5,6
 616 180 616 180 691.5 268 c 128,-1,7
 767 356 767 356 791 467 c 0,8,9
 798 498 798 498 798 530 c 0,10,11
 798 617 798 617 748 670 c 128,-1,12
 698 723 698 723 634 723 c 128,-1,13
 570 723 570 723 509.5 643 c 0,0,1
1006 1229 m 1,14,15
 1047 1165 1047 1165 1079 1057 c 128,-1,16
 1111 949 1111 949 1111 875 c 128,-1,17
 1111 801 1111 801 1105.5 745.5 c 0,18,19
 1096.4031355 653.704367301 1096.4031355 653.704367301 1058 506 c 1,20,21
 1007 266 1007 266 845.5 108.5 c 128,-1,22
 684 -49 684 -49 502.5 -49 c 128,-1,23
 321 -49 321 -49 237 48 c 128,-1,24
 153 145 153 145 153 306 c 0,25,26
 153 381 153 381 172 471 c 0,27,28
 216 678 216 678 363 815 c 128,-1,29
 510 952 510 952 685 952 c 0,30,31
 755 952 755 952 808.5 906 c 128,-1,32
 862 860 862 860 891 799 c 1,33,34
 894 815 894 815 894 858.5 c 128,-1,35
 894 902 894 902 870 987 c 128,-1,36
 846 1072 846 1072 814 1110 c 1,37,-1
 708 1028 l 1,38,-1
 588 1182 l 1,39,-1
 688 1255 l 1,40,41
 645.307692308 1292 645.307692308 1292 559 1292 c 2,42,-1
 557 1292 l 2,43,44
 496 1292 496 1292 448 1282 c 1,45,-1
 470 1475 l 1,46,47
 507 1489 507 1489 621 1491 c 1,48,-1
 626 1491 l 2,49,50
 711 1491 711 1491 779 1463 c 128,-1,51
 847 1435 847 1435 884 1401 c 1,52,-1
 1026 1512 l 1,53,-1
 1150 1327 l 1,54,-1
 1006 1229 l 1,14,15
EndSplineSet
EndChar

StartChar: ograve
Encoding: 242 242 73
Width: 1150
Flags: HW
HStem: -29 235<490.542 747.054> 866 234<611.809 868.368>
VStem: 185 256<255.441 620.483> 919 252<453.448 816.263>
LayerCount: 2
Fore
SplineSet
801 1183 m 2,0,-1
 540 1396 l 2,1,2
 527 1407 527 1407 527 1422.5 c 0,3,4
 527 1459.75 527 1459.75 541.5 1488.875 c 128,-1,5
 556 1518 556 1518 575.5 1537 c 0,6,7
 635.026315789 1595 635.026315789 1595 686 1595 c 0,8,9
 702 1595 702 1595 712 1585 c 2,10,-1
 942 1338 l 2,11,12
 947 1333 947 1333 947 1326 c 0,13,14
 947 1300.5 947 1300.5 932.5 1273.25 c 0,15,16
 911.670900693 1234.1056582 911.670900693 1234.1056582 877.835450346 1209.5528291 c 0,17,18
 834.353529059 1178 834.353529059 1178 820.17676453 1178 c 128,-1,19
 806 1178 806 1178 801 1183 c 2,0,-1
458 537 m 0,20,21
 441 454 441 454 441 398 c 0,22,23
 441 206 441 206 610 206 c 0,24,25
 832 206 832 206 902 537 c 0,26,27
 919 620 919 620 919 674 c 0,28,29
 919 866 919 866 750 866 c 0,30,31
 527 866 527 866 458 537 c 0,20,21
206 537 m 0,32,33
 262 797 262 797 418 948.5 c 128,-1,34
 574 1100 574 1100 799 1100 c 0,35,36
 981 1100 981 1100 1076 999.5 c 128,-1,37
 1171 899 1171 899 1171 718 c 0,38,39
 1171 634 1171 634 1150 537 c 0,40,41
 1094 276 1094 276 939 123.5 c 128,-1,42
 784 -29 784 -29 559 -29 c 0,43,44
 377 -29 377 -29 281 71.5 c 128,-1,45
 185 172 185 172 185 354 c 0,46,47
 185 438 185 438 206 537 c 0,32,33
EndSplineSet
EndChar

StartChar: oacute
Encoding: 243 243 74
Width: 1153
Flags: HW
HStem: -29 235<490.542 747.054> 866 234<611.809 868.368>
VStem: 185 256<255.441 620.483> 919 252<453.448 816.263>
LayerCount: 2
Fore
SplineSet
802 1183 m 2,0,1
 794 1178 794 1178 790.5 1178 c 0,2,3
 752.444444444 1178 752.444444444 1178 723 1231 c 0,4,5
 714 1246 714 1246 711.5 1271.5 c 0,6,7
 706.392638037 1323.59509202 706.392638037 1323.59509202 728 1338 c 1,8,-1
 1063 1585 l 2,9,10
 1076 1595 1076 1595 1089 1595 c 0,11,12
 1143.71428571 1595 1143.71428571 1595 1179 1538 c 0,13,14
 1192 1518 1192 1518 1192 1492.5 c 0,15,16
 1192 1421.2 1192 1421.2 1156 1396 c 1,17,-1
 802 1183 l 2,0,1
458 537 m 0,18,19
 441 454 441 454 441 398 c 0,20,21
 441 206 441 206 610 206 c 0,22,23
 832 206 832 206 902 537 c 0,24,25
 919 620 919 620 919 674 c 0,26,27
 919 866 919 866 750 866 c 0,28,29
 527 866 527 866 458 537 c 0,18,19
206 537 m 0,30,31
 262 797 262 797 418 948.5 c 128,-1,32
 574 1100 574 1100 799 1100 c 0,33,34
 981 1100 981 1100 1076 999.5 c 128,-1,35
 1171 899 1171 899 1171 718 c 0,36,37
 1171 634 1171 634 1150 537 c 0,38,39
 1094 276 1094 276 939 123.5 c 128,-1,40
 784 -29 784 -29 559 -29 c 0,41,42
 377 -29 377 -29 281 71.5 c 128,-1,43
 185 172 185 172 185 354 c 0,44,45
 185 438 185 438 206 537 c 0,30,31
EndSplineSet
EndChar

StartChar: ocircumflex
Encoding: 244 244 75
Width: 1150
Flags: HW
HStem: -29 235<490.542 747.054> 866 234<611.809 868.368> 1466 20G<739.062 1008.27>
VStem: 185 256<255.441 620.483> 919 252<453.448 816.263>
LayerCount: 2
Fore
SplineSet
458 537 m 0,0,1
 441 454 441 454 441 398 c 0,2,3
 441 206 441 206 610 206 c 0,4,5
 832 206 832 206 902 537 c 0,6,7
 919 620 919 620 919 674 c 0,8,9
 919 866 919 866 750 866 c 0,10,11
 527 866 527 866 458 537 c 0,0,1
206 537 m 0,12,13
 262 797 262 797 418 948.5 c 128,-1,14
 574 1100 574 1100 799 1100 c 0,15,16
 981 1100 981 1100 1076 999.5 c 128,-1,17
 1171 899 1171 899 1171 718 c 0,18,19
 1171 634 1171 634 1150 537 c 0,20,21
 1094 276 1094 276 939 123.5 c 128,-1,22
 784 -29 784 -29 559 -29 c 0,23,24
 377 -29 377 -29 281 71.5 c 128,-1,25
 185 172 185 172 185 354 c 0,26,27
 185 438 185 438 206 537 c 0,12,13
1207 1142 m 1,28,-1
 936 1142 l 1,29,-1
 838 1303 l 1,30,-1
 680 1145 l 1,31,-1
 403 1145 l 1,32,-1
 760 1486 l 1,33,-1
 996 1486 l 1,34,-1
 1207 1142 l 1,28,-1
EndSplineSet
EndChar

StartChar: otilde
Encoding: 245 245 76
Width: 1150
Flags: HW
HStem: -29 235<490.542 747.054> 866 234<611.809 868.368> 1149 247<910.598 1077.53> 1301 247<638.582 783.607>
VStem: 185 256<255.441 620.483> 919 252<453.448 816.263>
LayerCount: 2
Fore
SplineSet
458 537 m 0,0,1
 441 454 441 454 441 398 c 0,2,3
 441 206 441 206 610 206 c 0,4,5
 832 206 832 206 902 537 c 0,6,7
 919 620 919 620 919 674 c 0,8,9
 919 866 919 866 750 866 c 0,10,11
 527 866 527 866 458 537 c 0,0,1
206 537 m 0,12,13
 262 797 262 797 418 948.5 c 128,-1,14
 574 1100 574 1100 799 1100 c 0,15,16
 981 1100 981 1100 1076 999.5 c 128,-1,17
 1171 899 1171 899 1171 718 c 0,18,19
 1171 634 1171 634 1150 537 c 0,20,21
 1094 276 1094 276 939 123.5 c 128,-1,22
 784 -29 784 -29 559 -29 c 0,23,24
 377 -29 377 -29 281 71.5 c 128,-1,25
 185 172 185 172 185 354 c 0,26,27
 185 438 185 438 206 537 c 0,12,13
555 1445 m 17,28,29
 563 1450 563 1450 588 1469 c 128,-1,30
 613 1488 613 1488 628.5 1498 c 128,-1,31
 644 1508 644 1508 668 1521.5 c 0,32,33
 715.111111111 1548 715.111111111 1548 754.055555556 1548 c 128,-1,34
 793 1548 793 1548 825 1524 c 128,-1,35
 857 1500 857 1500 879.5 1472 c 0,36,37
 940.571428571 1396 940.571428571 1396 1004 1396 c 0,38,39
 1038 1396 1038 1396 1060 1407 c 128,-1,40
 1082 1418 1082 1418 1089.5 1421.5 c 128,-1,41
 1097 1425 1097 1425 1111 1434.5 c 128,-1,42
 1125 1444 1125 1444 1131 1447.5 c 128,-1,43
 1137 1451 1137 1451 1151.5 1462 c 128,-1,44
 1166 1473 1166 1473 1169.5 1475.5 c 0,45,46
 1194 1493 1194 1493 1204 1503 c 1,47,-1
 1149 1243 l 1,48,49
 1143 1239 1143 1239 1113 1217.5 c 128,-1,50
 1083 1196 1083 1196 1064 1184.5 c 0,51,52
 1005.34782609 1149 1005.34782609 1149 962.173913043 1149 c 128,-1,53
 919 1149 919 1149 889.5 1164.5 c 128,-1,54
 860 1180 860 1180 837.5 1202.5 c 128,-1,55
 815 1225 815 1225 794.5 1247.5 c 0,56,57
 745.755555556 1301 745.755555556 1301 711.877777778 1301 c 128,-1,58
 678 1301 678 1301 650 1291 c 128,-1,59
 622 1281 622 1281 604.5 1270.5 c 128,-1,60
 587 1260 587 1260 553.5 1237 c 128,-1,61
 520 1214 520 1214 504 1204 c 1,62,-1
 555 1445 l 17,28,29
EndSplineSet
EndChar

StartChar: odieresis
Encoding: 246 246 77
Width: 1150
Flags: HW
HStem: -29 235<490.542 747.054> 866 234<611.809 868.368> 1155 328<517.002 689.998 988.002 1161>
VStem: 185 256<255.441 620.483> 435 336<1235.02 1402.6> 906 336<1235.02 1402.6> 919 252<453.448 816.263>
LayerCount: 2
Fore
SplineSet
458 537 m 0,0,1
 441 454 441 454 441 398 c 0,2,3
 441 206 441 206 610 206 c 0,4,5
 832 206 832 206 902 537 c 0,6,7
 919 620 919 620 919 674 c 0,8,9
 919 866 919 866 750 866 c 0,10,11
 527 866 527 866 458 537 c 0,0,1
206 537 m 0,12,13
 262 797 262 797 418 948.5 c 128,-1,14
 574 1100 574 1100 799 1100 c 0,15,16
 981 1100 981 1100 1076 999.5 c 128,-1,17
 1171 899 1171 899 1171 718 c 0,18,19
 1171 634 1171 634 1150 537 c 0,20,21
 1094 276 1094 276 939 123.5 c 128,-1,22
 784 -29 784 -29 559 -29 c 0,23,24
 377 -29 377 -29 281 71.5 c 128,-1,25
 185 172 185 172 185 354 c 0,26,27
 185 438 185 438 206 537 c 0,12,13
435 1284 m 0,28,29
 435 1372.60344828 435 1372.60344828 502.75 1427.80172414 c 128,-1,30
 570.5 1483 570.5 1483 638.25 1483 c 128,-1,31
 706 1483 706 1483 738.5 1441.5 c 128,-1,32
 771 1400 771 1400 771 1367.5 c 0,33,34
 771 1264.33333333 771 1264.33333333 703.75 1209.66666667 c 128,-1,35
 636.5 1155 636.5 1155 568.75 1155 c 128,-1,36
 501 1155 501 1155 468 1197.5 c 128,-1,37
 435 1240 435 1240 435 1284 c 0,28,29
906 1284 m 0,38,39
 906 1372.60344828 906 1372.60344828 973.75 1427.80172414 c 128,-1,40
 1041.5 1483 1041.5 1483 1109.75 1483 c 128,-1,41
 1178 1483 1178 1483 1210 1441.5 c 128,-1,42
 1242 1400 1242 1400 1242 1367.5 c 0,43,44
 1242 1264.33333333 1242 1264.33333333 1174.75 1209.66666667 c 128,-1,45
 1107.5 1155 1107.5 1155 1039.75 1155 c 128,-1,46
 972 1155 972 1155 939 1197.5 c 128,-1,47
 906 1240 906 1240 906 1284 c 0,38,39
EndSplineSet
EndChar

StartChar: divide
Encoding: 247 247 78
Width: 1003
Flags: HW
HStem: 117 328<486.75 655.647> 524 240<280 1001> 845 328<640.75 810.193>
LayerCount: 2
Fore
SplineSet
280 764 m 1,0,-1
 1052 764 l 1,1,-1
 1001 524 l 1,2,-1
 229 524 l 1,3,-1
 280 764 l 1,0,-1
558 975 m 0,4,5
 558 1063.05128205 558 1063.05128205 625 1118.02564103 c 128,-1,6
 692 1173 692 1173 755.5 1173 c 128,-1,7
 819 1173 819 1173 856 1136.5 c 128,-1,8
 893 1100 893 1100 893 1044 c 0,9,10
 893 955.896551724 893 955.896551724 826 900.448275862 c 128,-1,11
 759 845 759 845 696 845 c 128,-1,12
 633 845 633 845 595.5 882 c 128,-1,13
 558 919 558 919 558 975 c 0,4,5
403 247 m 0,14,15
 403 334.230769231 403 334.230769231 470.5 389.615384615 c 128,-1,16
 538 445 538 445 601.5 445 c 128,-1,17
 665 445 665 445 701.5 408.5 c 128,-1,18
 738 372 738 372 738 332.5 c 0,19,20
 738 226.948717949 738 226.948717949 671 171.974358974 c 128,-1,21
 604 117 604 117 541 117 c 128,-1,22
 478 117 478 117 440.5 154 c 128,-1,23
 403 191 403 191 403 247 c 0,14,15
EndSplineSet
EndChar

